<?xml version="1.0" standalone="no"?>
<!DOCTYPE svg PUBLIC "-//W3C//DTD SVG 1.1//EN" "http://www.w3.org/Graphics/SVG/1.1/DTD/svg11.dtd" >
<svg xmlns="http://www.w3.org/2000/svg" xmlns:xlink="http://www.w3.org/1999/xlink" version="1.1">
<metadata></metadata>
<defs>
<font id="caslon_antiquebold" horiz-adv-x="638" >
<font-face units-per-em="2048" ascent="1638" descent="-410" />
<missing-glyph horiz-adv-x="665" />
<glyph horiz-adv-x="0" />
<glyph unicode="&#xd;" horiz-adv-x="681" />
<glyph unicode=" "  horiz-adv-x="665" />
<glyph unicode="&#x09;" horiz-adv-x="665" />
<glyph unicode="&#xa0;" horiz-adv-x="665" />
<glyph unicode="!" horiz-adv-x="372" d="M88 1214v19q0 49 16 100q14 53 68 64q39 8 55 8q96 0 97 -201q0 -12 -9 -102q-6 -88 -18 -170v-68l-14 -119q-4 -43 -15 -108q-2 -2 -2 -14q0 -4 -1 -10.5t-1 -10.5l-6 -147q0 -6 -1 -24.5t-3 -24.5v-13v-16v-25q0 -43 -41 -43q-43 0 -53 39v-2q-4 9 -4 72v47q0 14 -6 63 q0 8 -1.5 24.5t-3.5 25.5q0 8 -1 24t-3 25q-2 23 -10 161v-2q0 4 -3 13.5t-7 26t-8 32.5q-8 25 -11 160q-4 100 -14 196zM100 109q0 114 82 114q12 0 56 -22q51 -27 53 -33l-2 2q20 -25 20 -70q0 -57 -24 -82q-31 -33 -90 -32q-27 0 -72 45q-23 27 -23 78z" />
<glyph unicode="&#x22;" d="M92 1163q0 37 8 51q4 33 13 46q36 65 77 65q57 0 89 -65q4 -8 4 -9q18 -39 18 -51v-6l-18 -76v2l-4 -30q-20 -45 -23 -64q-2 -14 -2 -41q0 -8 -1 -22.5t-1 -20.5q-6 -80 -51 -80q-76 0 -76 176l-6 23q-2 0 -2 2l2 -2q-27 51 -27 102zM410 1198q0 31 22 76v-2l10 33 q23 34 74 34q49 0 86 -73q6 -18 8 -39q8 -18 8 -33q0 -59 -26 -121q0 -10 -14 -63q-23 -137 -64 -138q-25 0 -49 23q-23 10 -23 41q0 2 1 13.5t1 17.5v20q0 10 -10 76q0 33 -22 117q-2 4 -2 18z" />
<glyph unicode="#" horiz-adv-x="1024" d="M20 451v28q0 66 48 82q12 0 30 2l47 4l54 -2q59 0 75 17h-2q10 14 15 90q0 29 12 71v-2q4 12 4 25q0 18 -10 18h-10l-88 -4h4q-10 -2 -25 -2h-6l-4 -2q-84 0 -84 43q0 78 20 99q14 12 64 14l49 4q16 2 53 2q6 0 21.5 1t25.5 1q39 6 39 57v56q0 14 13 57v-2q6 29 12 90 q10 78 61 78q8 0 35 -6l21 2q43 0 43 -37v-8l-2 -17q-10 -94 -19 -114v-6q-2 -6 -4 -19.5t-4 -30.5l-6 -32q-12 -43 -13 -52q0 -2 13 -6l-2 2l18 -6l64 4q23 0 71 4q2 2 4 7l11 40l6 25q8 31 10 31q0 2 1 6t1 8q0 2 1 10.5t1 12.5l4 26q4 45 4 78q18 76 74 76q45 0 72 -17 q16 -12 16 -43q0 -14 -6 -53q-2 -6 -2 -28v2l-8 -37l-4 -27q-2 -8 -7 -29q-10 -37 -10 -51q0 -45 15 -45h20q4 0 13.5 1t11.5 1q8 0 19 1t15 1q25 0 35 2l-2 -2q10 4 17 4q55 0 73 -18q12 -12 13 -57q0 -68 -52 -78h-6q-4 -4 -24 -4l-56 -4q-23 0 -88 -5h-12q-20 -2 -29 -18 l2 4l-6 -31l-2 -12q-4 -53 -16 -110q-4 -16 -4 -27q0 -18 6 -19h20q14 2 43 3q8 0 20.5 1t18.5 1q2 0 6.5 1t6.5 1h-2q10 2 24 2q72 0 72 -49q0 -20 -6 -58q-2 -39 -31 -45l2 2q-31 -8 -121 -10q-72 -2 -92 -16q-16 -23 -16 -56l2 -45q0 -12 -15 -57v2q0 -6 -2 -20.5t-4 -32 t-4 -37.5q-2 -76 -61 -76l-37 4h-19q-43 0 -43 43l2 17q8 76 17 114q2 6 6 37l8 41v-4q0 2 2 8v6q12 45 12 51q-4 2 -12 5v-2q-20 6 -18 6l-64 -2h-49q-20 -4 -24 -15q-4 -4 -11 -43q-14 -43 -16 -51q0 -20 -2 -37l-4 -26q0 -16 -4 -33v2q0 -6 -2 -23.5t-2 -23.5 q-18 -74 -72 -74q-51 0 -72 14q-16 16 -16 47q0 27 8 78q0 2 2 15.5t4 19.5v-2q4 37 8 47q12 43 13 64q0 45 -9 45h-20q-4 0 -12.5 -1t-12.5 -1q-20 -2 -77 -6h-11q-72 0 -78 45zM377 295l2 6zM434 580q2 -2 8 -2q2 0 7.5 -1.5t9.5 -1.5h-2l59 5h-2q12 2 41 2q4 0 15.5 1 t17.5 1q2 2 4 6q6 29 10 47q14 49 14 53q2 4 2 15q0 2 1.5 7t1.5 9q2 6 2 16q0 4 1 10.5t1 8.5q2 8 2 12q0 10 -4 10q-4 2 -9 2q-8 0 -10 2l-61 -4q-45 0 -68 -2q-2 -2 -2 -4q-2 -6 -14 -51q-4 -12 -7 -20.5t-3 -12.5q-6 -12 -7 -18q0 -16 -2 -35q0 -4 -1 -11.5t-1 -9.5 l-2 -24v-10h-2z" />
<glyph unicode="$" horiz-adv-x="913" d="M78 319q0 10 2 19q0 4 3 21.5t5 31.5l-4 53l4 25q4 35 10 43q12 20 39 20q10 0 14.5 -2t14.5 -2q10 -20 14 -36l15 -29l14 -55l-2 2l12 -31l17 -45l28 -41q14 -43 45 -84q2 -4 39 -31q31 -23 41 -22q2 8 8 24l11 31v59l6 60v-2v10q-2 10 -2 16q0 4 -1 17.5t-1 21.5 q-2 8 -2 23q0 8 4 20l-2 -6q0 4 1 13.5t1 11.5q2 14 2 30q0 82 -17 115q-2 8 -32 27h2l-21 10l-22 18l-58 19l-10 10q-4 4 -8 6q-35 25 -74 78q-39 76 -49 102q-8 14 -14 54q-12 47 -13 67q0 31 11 92q16 41 16 43v-2q2 12 8 23q72 156 242 192l26 7q27 6 31 -3l-10 107 q0 41 63 41q51 0 52 -41v-29l-2 -37l-7 -38q10 0 27 -3h-2q4 0 9 -1t7 -1q18 0 27 -6l96 -37l-4 2l68 -16q27 -10 39 -27q10 -16 10 -106l2 -29l2 -63v-23q2 -14 2 -47q0 -6 1 -18.5t1 -20.5q2 -8 2 -24q0 -45 -49 -45q-37 0 -45 51l2 -2q-2 2 -5 10t-5 12q-2 6 -8.5 21.5 t-10.5 25.5v-2l-39 66q-18 63 -24 72q-10 10 -47 32l-43 29v-4q-6 -25 -11 -45v4l-2 -51l-2 -25l2 -67q0 -49 -2 -80l-4 -68v-4q0 -23 19 -45q33 -25 73 -51h-4l80 -29q20 -8 27 -14l-4 2q8 -6 59 -82l37 -55l14 -37q16 -41 21 -62l-2 4q23 -102 22 -106q0 -59 -37 -121v2 q-2 -2 -6 -13t-8 -18v2q-4 -12 -25 -49q-23 -33 -26 -47q-8 -10 -19 -12l2 2q-10 -6 -18 -12q-49 -33 -70 -45q-51 -27 -92 -31q-53 -10 -53 -35q0 -14 8 -47v-16q0 -6 -4 -31v2l-2 -16l4 -70q0 -41 -51 -41q-27 0 -51 25q-10 14 -10 53q-6 25 -7 37q0 16 7 47q0 2 4 10 q0 4 -4 20q-2 8 -3 23q-2 23 -12 39q-4 0 -16.5 2t-26.5 4q-14 0 -61 27q-45 14 -142 47q-63 18 -63 65q0 23 2 31v-2l2 4v4v17q-4 37 -6 61q0 4 -1 10t-1 10zM281 1077q0 -31 30 -92l-4 4q8 -8 19 -33q0 -2 6 -8l6 -14l-4 2l55 -37l21 -12q12 0 12 74q0 10 -6 47l2 22 l-2 37l12 133q-4 41 -33 41q2 0 -1 -2t-9 -5t-13 -8t-21.5 -13.5t-26.5 -16.5q-8 -6 -27 -51q-16 -53 -16 -68zM512 256q0 -12 2 -25v-41q0 -27 4 -43v-6l27 15q16 6 57 30l-2 -2q37 37 57 95q10 27 11 69q0 95 -86 156q-12 10 -25.5 19t-21 14.5t-9.5 7.5q-6 -4 -6 -25 q0 -2 1 -8t1 -10q2 -10 2 -31q0 -8 -6 -47v-111q-6 -43 -6 -57z" />
<glyph unicode="%" horiz-adv-x="1132" d="M59 969h35q-10 2 -21.5 14t-9.5 29q2 10 3 28q0 4 1 18.5t1 20.5l4 31l8 35v-2q10 68 45 123q37 74 72 94q53 33 106 33q61 0 92 -19q117 -70 129 -188q2 -18 11 -56l6 -26l2 -12q0 -20 2 -33q4 -29 4 -37q0 -18 -6 -45v2l-2 -21l-11 -88q-8 -66 -36 -110 q-47 -66 -80 -88q-51 -35 -119 -35q-84 0 -180 90q-29 29 -41 82v-2q-12 37 -13 49l2 59q0 25 -2 41v7zM125 18q0 8 12 29q0 2 23 41q10 16 47 86v-2q6 8 57 80l-2 -2l27 53l57 100v-2l19 37l16 27q25 43 51 70q25 29 66 124q10 29 41 68l18 41l53 82h-2l35 63 q16 27 30.5 51.5t24 40t11.5 17.5q2 8 6 14q18 37 61 129q2 2 4 6q2 2 8.5 11.5t10.5 15.5l-2 -2q18 33 53 98q33 61 55 84q17 23 56 23q66 0 65 -51q0 -18 -8 -33l-129 -221v2q-6 -12 -15.5 -35t-13.5 -31q-8 -18 -47 -76q-12 -18 -102 -178v2q-10 -23 -19 -37l-28 -34 q-4 -4 -19 -39q-8 -20 -18 -41q-70 -137 -82 -170q-12 -35 -37 -60l-57 -63l-9 -27q-4 -6 -6 -10q-14 -27 -20 -41q-10 -23 -29 -45v2q-10 -12 -20 -41q-2 -4 -41 -59l-19 -23q-59 -100 -69 -115q-12 -12 -39 -12q-74 0 -74 53zM213 891q2 -29 6 -47v2q23 -80 53 -88 q16 -4 39 -4q55 0 60 86q0 8 4 32q4 29 6 48q6 57 6 61q0 18 -2 41l2 37l-2 28l-2 91l-8 22l-6 25v-2q-16 53 -66 53q-51 0 -65 -27q-8 -12 -13 -71l-4 -19v-24l-4 -54v-12q0 -14 2 -22v-15l-6 -71l2 -29zM436 297v2v-2zM625 309v2q0 14 2 37q4 29 6 68l2 33l12 34v-2 q8 66 41 125q43 76 76 94q51 31 104 31q57 0 90 -18q113 -66 132 -187q4 -23 10 -57l6 -27l2 -12q0 -2 1 -12t1 -17q2 -12 2 -39q0 -23 -2 -34v2v-6l-2 -5l-2 -20l-12 -90q-12 -98 -82 -172q-63 -59 -152 -60q-84 0 -180 91v-2q-23 20 -43 79q0 4 -1 10.5t-3 10.5 q-6 20 -6 31v59q0 31 -2 53zM778 229q0 -33 6 -43q23 -80 54 -88q16 -4 39 -4q27 0 45 23q12 20 14 63q0 6 4 19l-2 -6q0 2 1 8t1 10q4 16 6 47q6 57 6 66q0 12 -2 34l2 39l-4 31v90q-8 12 -8 21q-6 23 -8 26q-12 49 -63.5 49t-67.5 -26q-8 -12 -13 -72l-4 -18l2 -23l-4 -53 v-35q2 -6 2 -16l-6 -72v-70z" />
<glyph unicode="&#x26;" horiz-adv-x="1118" d="M74 487h39q0 14 -2 16.5t-17 2.5q-2 2 -4 5t-6 14.5t-4 23.5q2 66 53 186q35 74 78 109l57 47q4 2 13.5 5t26 10t32.5 14q12 2 12 8q0 12 -16 45q-25 37 -31 57q-14 43 -14 84q0 51 31 121q14 39 43 80q35 35 104 69h-2q39 23 96 23q209 0 209 -190q0 -113 -76 -113 q-33 0 -49 29q-14 35 -14 53v26v5q-4 12 -4 24q-2 31 -41 31q-31 0 -51 -25q-39 -41 -39 -86v-12q0 -2 2 -6v-6l-2 -56q0 -2 39 -63l-2 2q29 -47 47 -59q23 -16 82 -37q12 -12 12 -23q0 -31 -35 -31h-27q-6 0 -14 1t-23.5 2t-29.5 1h-21q-35 0 -96 -57q-74 -47 -86 -217 q-4 -14 -7 -27.5t-5 -19.5l-2 -8q0 -12 2 -23q0 -6 10 -47v2q10 -20 10 -47l-6 -55q0 -25 16 -103q2 -27 21 -79l-2 2q14 -33 25 -43q45 -45 65 -54q23 -8 72 -14q47 -12 53 -12q12 0 80 20v-2q2 0 11 4t13 6l21 6q10 4 29 31l20 23q37 35 47 57q39 66 39 102v5l-2 24 q-6 78 -10 101q-10 49 -35 71q-10 6 -10 8q-10 -10 -25 -26q-20 -27 -53 -27q-43 0 -62 47q-14 29 -14 68q0 70 43 110q12 10 21 19q4 4 13 11t13 11q49 41 68 50q35 12 102 20h-4l70 20l59 15q12 6 39 20h2q6 4 16 4q35 0 35 -30q0 -12 -61 -62l-37 -37l-41 -32 q-23 -23 -47 -41h-6l-2 -2q-8 -4 -16.5 -7.5t-12.5 -5.5l-8 -4t-6 -2q0 -4 6 -14q4 -2 13 -9.5t22 -15.5q70 -59 71 -186q10 -47 11 -72q0 -68 -4 -96q-8 -37 -52 -88q-16 -25 -26 -45q-31 -55 -62 -80q-37 -27 -63 -33l-37 -8h2q-111 -37 -236 -37q-72 0 -81 2q-6 8 -25 15 q-90 35 -178 124q-2 2 -9.5 8.5t-21.5 16.5t-29 21q-27 14 -55 67q-4 14 -25 66q-2 6 -6 16t-10 27.5t-10 29.5v-2q-2 8 -2 39q0 2 -1 13.5t-1 17.5zM719 104h2h-2z" />
<glyph unicode="'" horiz-adv-x="280" d="M68 1204q0 27 16 66q27 63 82 63q20 0 46 -30.5t28 -55.5v-24q8 -18 8 -29v-10q0 -45 -23 -113q-4 -12 -14 -63q-18 -137 -57 -138q-12 0 -33 20.5t-21 31.5l4 122l-4 9q-16 31 -16 49l-4 26v-2z" />
<glyph unicode="(" horiz-adv-x="538" d="M115 557q0 8 6 51v-4q4 106 14 227l37 154l16 64q33 61 66 143q18 41 37 51l22 35l19 31l16 14l14 25q2 4 10.5 18t14.5 25v-2q27 43 53 43q33 0 33 -37q0 -8 -35 -68q-2 -4 -37 -78v4l-22 -63l-8 -21l2 2l-15 -49q-18 -70 -18 -90v-53v-4q-2 -2 -3 -8t-1 -11.5t-2 -11.5 v2q0 -4 -2 -22.5t-4 -28.5l-6 -29q-6 -41 -13 -108l-4 -39q0 -4 2 -8q2 -10 2 -33l2 -33q2 -31 2 -47q0 -25 -4 -55q-2 -10 -2 -23v-4q2 -4 3 -12t1 -15q2 -6 3 -24.5t1 -26.5q0 -66 2 -137q4 -88 33 -162q2 -6 10 -33q12 -61 25 -75h-2l29 -54q0 -2 26 -49v2q20 -33 21 -49 q0 -39 -33 -39q-25 0 -72 66q-18 29 -57 98q-68 68 -94 187q-4 20 -41 124l-10 43v-2q-8 23 -31 111q-6 45 -6 88z" />
<glyph unicode=")" horiz-adv-x="548" d="M102 -129q0 20 33 61q23 29 60 140q0 2 1 7t4 10t3 7q6 12 12 28.5t10 25t6 16.5v-2q10 41 11 69q2 2 6 29q10 49 10 61.5t2 20.5v-2q0 2 1 6t1 6l4 27v-2l2 45v22v-2l2 58q0 41 9 84v-4q0 2 -1.5 8t-2.5 16t-1 23q-4 23 -6 49q0 25 2 41v-2q0 2 1 7t1 9q2 12 4 37l5 27 q-8 39 -11 71l-2 27q-6 72 8 72l15 16h-33v23q0 6 1 14t1 10q0 8 -16 74q-20 78 -25 94h2l-6 19v-3q-14 37 -18 50q0 4 -2 13t-5 13l3 -2q-2 6 -35 49q-29 41 -29 56q0 39 41 39q31 0 66 -76q16 -31 32 -53l37 -62v2q12 -18 39 -63l-2 4q4 -4 23 -60v2q4 -8 9 -27.5t7 -25.5 v2l37 -69q4 -10 10 -37v-4l8 -58v2l27 -127l2 -71v4l8 -45q0 -14 -4 -35l-2 -4v-6q0 -6 -1 -20.5t-3 -20.5v2q-4 -47 -6 -58q-2 -16 -6 -79q0 -20 -21 -89l2 2q-14 -53 -31 -86l-8 -22l-12 -31q-41 -100 -41 -104q-43 -78 -68 -109q-25 -37 -55 -80l-16 -20v2 q-45 -63 -76 -64q-14 0 -18.5 3.5t-4.5 19.5z" />
<glyph unicode="*" horiz-adv-x="702" d="M96 1112v4l4 27q4 29 6 45q17 33 56 33q23 0 47 -17h-2l22 -10l11 -8l32 -10q16 -10 33 -19q-4 10 -6 17q6 43 6 47q-4 18 -12 51l2 -2q-4 10 -4 22q0 49 47 68h-2q23 8 39 8q23 0 49 -37l4 -28l6 -27l-2 -29v2l-2 -78q0 -18 16 -18q27 0 72 37q16 8 49 8l-6 -2 q31 12 37 12q51 0 51 -98q0 -35 -35 -53q-8 -4 -30 -4q-2 0 -7.5 -1t-9.5 -1l-49 -13l-35 2q-10 -4 -10 -20l14 -21l31 -38l10 -19q23 -23 29 -35v2q10 -16 10 -49q0 -31 -20 -51q-35 -29 -58 -29q-33 0 -77 82l-13 27l-8 26l2 -4l-20 45l-21 -26q-6 -6 -6 -8l-8 -13 q-2 -8 -6 -16q-2 -4 -5 -17.5t-8 -21.5q-2 -12 -38 -37q-12 -8 -43 -8q-23 0 -48.5 26.5t-25.5 49.5q0 18 24 53l-2 -2l17 25l20 20l19 23q25 18 24 34q0 -6 -4 -2l2 -2q-61 14 -110 35l2 -2l-21 6q-39 12 -39 39z" />
<glyph unicode="+" horiz-adv-x="894" d="M88 700q0 45 68 45h12q33 0 63 -2l78 5q10 0 17 -3h-2q10 -2 19 -4t14 -3t8 -1q20 0 20 6v60q4 37 6 49q-4 18 -4 41v25l-8 71q0 82 61 82q78 0 90 -41q8 -25 9 -92q0 -2 1 -8t1 -10q2 -12 2 -35q0 -16 -2 -25q-2 -4 -2 -12q-2 -12 -2 -25q0 -31 14 -69v2q0 -6 10 -6 q16 0 43 2h-2q10 2 25 2q2 0 12 -1t16 -1q10 -2 19 -2q14 0 42.5 4t35.5 4q12 0 36 -4h11q49 -10 49 -62q0 -78 -41 -86q-14 0 -33 -2q-68 -6 -72 -6q-18 0 -40 2h-29q-78 0 -90 -16q-8 -6 -8 -27q0 -8 8 -47l2 -6v-6t1 -2t1 -2v4q2 -8 2 -27q0 -16 -2 -27q-4 -25 -4 -28 q0 -8 6 -70v-27q0 -53 -51 -53q-12 0 -37 6l-23 -2q-41 0 -45 58q0 14 -2 22l-2 6v9q-2 12 -2 28q0 20 6 47q2 10 2 17q0 14 -2 37v-2q-2 10 -2 18q0 4 2 12q0 4 1 13.5t1 11.5q2 12 2 24.5t-18 12.5h2q-16 4 -21 4h-2l-61 -4h-59l-45 -9q-8 4 -13 5q-2 0 -7 1t-7 1l-25 2 q-47 10 -47 45v33z" />
<glyph unicode="," horiz-adv-x="344" d="M72 -143q0 18 14 39q2 4 55 47q10 10 11 39q0 31 -29 47q-18 10 -31 22q-10 16 -10 37q0 61 41 90q19 13 76 29h6q41 -2 61 -43q0 -2 3 -8t7.5 -16.5t10.5 -22.5l16 -47q2 -6 2 -45q0 -8 -6 -43q-12 -70 -63 -113h2q-37 -27 -43 -29l2 2q-45 -16 -97 -16q-29 0 -28 31z " />
<glyph unicode="-" horiz-adv-x="368" d="M0 287l10 84q10 22 33 26l41 -2h33l33 -4h-3q8 0 27 6q12 2 21 2q6 0 21 -1t24 -1q16 -2 36 -2q2 0 12.5 1t18.5 1q25 4 35 4q35 0 59 -26l-2 2q12 -12 13 -25q0 -6 -9 -20q-2 -2 -2 -6q0 -43 -8 -54l2 2q-16 -20 -35 -20q-23 0 -34 2h2q-4 0 -13 2l-20 4q-16 0 -41 -4 q-6 -4 -14 -4h-7l-51 6l-30 -6q-6 0 -14.5 1t-10.5 1h-8l-37 -2l-21 -2q-8 -2 -18 -2q-25 0 -39 20q-4 6 -4 17z" />
<glyph unicode="." horiz-adv-x="342" d="M84 92q0 98 80 98q16 0 55 -18q49 -25 51 -27q18 -18 19 -59q0 -45 -23 -72q-27 -27 -88 -26q-23 0 -69 37q-25 25 -25 67z" />
<glyph unicode="/" horiz-adv-x="833" d="M33 -16q0 14 16 41l-2 -2q2 2 35 65l18 33v-2l17 51q20 25 47 76v-2l26 67l52 99q43 98 51 114q8 20 35 60l26 39l25 67q23 47 29 60q57 123 61 131q6 10 26.5 42.5t34.5 59.5q2 0 2 2l-2 -2l15 39l39 82l-2 -2q23 88 32 100q10 16 27 45v-4q6 18 10 25q4 8 12.5 27.5 t12.5 29.5q12 16 16 27q25 53 42 66.5t50 13.5q57 0 58 -50q0 -23 -11 -36l-28 -60q-2 -2 -6 -14t-9 -19v2q-4 -10 -15 -33.5t-11 -25.5q-37 -68 -39 -78l-16 -57q-8 -20 -66 -123v2q-53 -117 -115 -231q-14 -16 -32 -70q-37 -84 -41 -88l2 2q-20 -37 -29 -51l-2 -2l-10 -45 q-6 -18 -27 -54l-22 -41l-29 -30l-17 -60q-37 -66 -51 -84l-14 -47q-51 -68 -66 -98q-29 -72 -43 -86q-12 -14 -51 -14q-35 0 -53 22q-8 8 -8 21z" />
<glyph unicode="0" horiz-adv-x="894" d="M92 594v16h37q-2 0 -10 9.5t-16.5 27t-8.5 33.5q2 70 8 137l7 53l16 72v-2q8 74 33 154l24 61q6 14 19 39q55 125 102 158q76 59 150 61l82 -4q59 -8 143 -92l16 -17h-2q27 -37 43 -61q37 -53 53 -109v3q12 -37 21 -107q2 -51 18 -131l9 -66l6 -69q4 -41 4 -62 q0 -27 -10 -84v4l-2 -45l-9 -71l-4 -45l-8 -60q0 -125 -82 -258l-8 -12q-82 -127 -172 -154q-55 -14 -96 -14q-84 0 -172 76q-104 92 -138 170q-23 63 -28 90q0 6 -2 10v6q-2 4 -2 6v-2q-18 80 -19 119v15q2 14 2 43q0 8 -1 20t-2 36.5t-1 45.5zM299 485q0 -61 12 -135 l8 -47l11 -49q10 -76 49 -133q4 -4 12 -13.5t15 -15.5q2 -4 55 -8q16 -2 31 -2q39 0 63 41q23 29 35 88v-2q4 20 8 102l8 54l2 22l4 41l4 61l9 146q0 2 -1 8t-1 12v45l2 66l-2 68l-5 208q-6 27 -18 82q-10 51 -39 121v-2q-27 51 -82 51q-37 0 -71 -22q-18 -12 -29 -23 q-37 -23 -53 -137l-4 -57v2l-3 -68l-4 -51l2 -39q0 -16 -4 -57q-4 -33 -4 -43q0 -33 2 -60q2 -14 2 -24q0 -14 -12 -117l2 -61q0 -23 -2 -35v2q-2 -4 -2 -10v-9z" />
<glyph unicode="1" horiz-adv-x="503" d="M74 1278q0 45 92 80l20 10q20 8 37 14q72 35 105 35q61 0 61 -65v-9l-2 -26v-64l-2 -47v-192l-8 -164v2l-10 -217v-98v-29v-86l2 -45v-74l4 -45q0 -12 4 -57v-4q4 -10 29 -58l-3 2q29 -47 29 -67q0 -29 -22 -51q-29 -23 -41 -23l-78 4q-49 -4 -105 -4q-72 0 -71 59 q0 33 12 56v-2q2 8 29 61q8 10 12 19q6 25 6 28l2 174l6 66q2 12 2 43q0 6 1 22.5t1 24.5v37q0 27 -2 61v-2q-2 10 -2 27q0 29 2 49v-2q0 6 1 16.5t1 14.5q0 6 4 184v49q-14 164 -20 180q-2 4 -7 12.5t-7 12.5q-8 4 -21 16h2l-43 31l2 -2q-23 8 -22 43z" />
<glyph unicode="2" horiz-adv-x="817" d="M47 57q0 43 37 111q18 37 31 55l4 6q4 4 12 14.5t14 16.5l5 6q4 6 11 15.5t11 13.5q6 8 41 56t66 89l108 144l27 32q35 45 49 72q106 180 106 318q0 18 -18 79q-6 37 -8 41q-2 10 -21 25q-81 57 -112 57l-4 -2q-4 -2 -18.5 -6t-27.5 -8q-90 -12 -155 -64q-6 -6 -23 -6 q-43 0 -43 43q0 31 66 125q74 111 205 111q90 0 129 -8q23 -6 63 -29q2 -2 6 -4t10.5 -6t12.5 -6q76 -43 92 -62h-2q66 -78 65 -184v-10l-2 -60l2 -47q0 -53 -34 -154q-29 -70 -107 -159l-10 -10h2q-20 -25 -100 -107h2q-6 -8 -20.5 -23.5t-20.5 -23.5q-6 -6 -24.5 -28.5 t-31.5 -35.5q-47 -68 -61 -84l-19 -24q-12 -18 -45 -60q-10 -23 -14 -30q10 0 23 -2q2 -2 10 -2q6 -2 12 -2h-2l62 4q6 0 18 1t16 1q6 0 14.5 -1t10.5 -1q14 0 59 -6q10 -2 19 -2q29 0 67 16q14 10 21 14l-2 -2l31 43l-3 -4q8 16 33 16q55 0 56 -55q0 -8 -7 -39 q-2 -6 -5 -23.5t-5 -25.5v2l-6 -35q-2 -14 -2 -32q0 -10 -4 -23q-16 -92 -74 -92q-35 0 -57 2q-41 4 -51 4q-25 0 -43 -2h-35q-41 0 -105 -6h-49q-37 0 -92 6l-102 -6q-63 0 -64 63z" />
<glyph unicode="3" horiz-adv-x="843" d="M51 283q0 120 86 120q55 0 92 -55q37 -53 37 -98q0 -6 -2 -14q0 -4 -1 -13.5t-1 -13.5q-2 -14 -2 -29v-6l16 -16q61 -63 93 -64q63 0 120 41q23 18 37 37q2 0 15 18q0 2 2 3q2 0 2 2q6 10 18 33.5t15 25.5q18 43 28 149l2 29v-2q0 6 -4 23l-2 2q0 2 -2 5t-4 7t-14.5 23.5 t-20.5 33.5q-35 63 -43 72q-45 57 -139 84h2q-55 12 -55 61q0 41 129 90q12 2 59 84q43 82 43 136q0 23 -10 57q-2 8 -4 12v-2q-2 12 -19 43q-37 84 -143 84q-90 0 -125 -28q-29 -20 -49 -21q-41 0 -41 49q0 78 98 127q66 39 123 39q39 0 84 -22q129 -59 145 -72 q53 -35 74 -60q20 -27 47 -71l19 -33q10 -31 10 -66q0 -23 -2 -45v-4q0 -137 -133 -245h2q-39 -35 -39 -43q0 -2 24 -27q72 -53 121 -133l19 -27q4 -14 18 -35q20 -66 21 -166v-12q0 -4 -1 -12t-1 -12v-15q-4 -76 -21 -118v2q-31 -86 -84 -119q-43 -31 -92 -49h2l-27 -19 l-57 -16q-45 -23 -61 -25q-27 0 -47 -2l-68 -2h-4q-68 0 -152 82q-27 27 -108 125q-25 35 -25 113z" />
<glyph unicode="4" horiz-adv-x="817" d="M0 647q0 25 31 70l61 63q14 14 43 58l12 18l19 23q37 57 110 122l17 17l18 22l25 31v-2l37 47l18 21q8 8 25.5 31.5t27.5 33.5q14 23 39 41q2 2 7.5 10.5t12.5 18.5t15 20l-2 -2l10 10l33 46q10 14 37 47q23 16 39 16q57 0 57 -80v-55q0 -8 -1 -23.5t-1 -19.5v-365 q0 -12 2 -20v-15q0 -4 -1 -19t-1 -24q-2 -16 -2 -38v-23l31 -31q12 -12 12 -55q0 -45 -43 -88l-8 -8l2 -47l-2 -72l-2 -41l2 -49v-146q0 -6 1 -22t1 -23v-22q0 -119 -76 -119q-106 0 -133 31l-14 28v7q20 104 20 157q0 8 -14 68v29q0 37 6 153v-2l2 41q0 2 1 9t1 12v14 q0 25 -55 24h-236q-31 2 -73 3h-11q-100 0 -100 69zM238 741q2 0 6 -1t6 -1l31 -4l24 2h4q6 2 39 6l111 -12q14 0 20 6q6 37 17 154v82q-2 31 -2 94q-12 -8 -35 -33l2 2q-12 -16 -74 -75l-2 -5q-4 -4 -11 -12t-9 -12v2q-2 -6 -11 -14l-26 -41l2 2q-2 -4 -10.5 -17.5 t-16.5 -26t-14 -22.5q-2 -2 -4 -6l-2 -2l-11 -19q-8 -12 -14 -18l-2 -4l-2 -4l2 4q-4 -4 -9 -12.5t-9 -12.5zM473 35q4 -8 6 -10q-6 0 -6 10zM688 727q0 -4 2 -4z" />
<glyph unicode="5" horiz-adv-x="815" d="M59 266q0 51 31 88q27 33 66 33t65.5 -34t26.5 -77q0 -23 -2 -36v-7l-2 -6q-2 -14 -2 -28q0 -78 71 -107q29 -12 72 -16l14 -2h4q31 0 91 39q18 12 34 28l-4 -6q2 2 4 6t5.5 9.5t7.5 9.5l12 18l20 31l15 29q2 6 5 14t5 12t2 6q4 12 4 43q0 4 1 15.5t1 19.5v19q2 10 2 12 q0 10 -2 33q-10 170 -100 252v-2q-72 61 -105 75h2q-51 20 -135 25q-98 2 -98 72q0 27 18 143q0 2 1 15.5t1 23.5q0 6 1.5 22.5t1.5 26.5q10 94 12 113q4 12 4 84q2 104 31 122q27 10 59 11h25q18 2 55 2q61 0 74 2h16q2 0 7 -1t9 -1h25q4 0 37 4q8 2 29.5 3t31.5 1 q20 0 33 2q10 2 23 2q70 0 69 -51q0 -18 -37 -66q-8 -8 -26 -32q-33 -45 -92 -64q-12 -4 -99 -18l2 2q-10 -4 -39 -17q-16 -4 -49 -4h-28q-16 0 -19 -8l-4 -45q0 -18 -6 -37q-8 -29 -8 -31q0 -8 2 -8l32 -16q6 -4 46 -15q2 0 90 -41q0 -4 6 -4l-2 2q39 -16 47 -24 q14 -14 45 -39l20 -21q2 -2 9.5 -8t11.5 -10q37 -41 45 -59l31 -64l-2 2l28 -45l21 -51l8 -31v2q10 -45 10 -59q2 -31 2 -133q-4 -72 -6 -90q-23 -74 -94 -197q-47 -78 -133 -135l2 2q-49 -35 -146 -35q-12 0 -20 2h-19q-37 0 -65 10v-2q-41 10 -76 33q-74 41 -96 76 q-66 98 -66 186z" />
<glyph unicode="6" horiz-adv-x="911" d="M63 506v16q0 43 13 160q6 53 20 104q25 84 54 148l30 51v-2q12 25 56 94q160 211 327 297q10 6 20.5 11.5t19.5 9.5l13.5 6t10.5 6q53 31 73 31q55 0 56 -43q0 -23 -17 -33q-20 -16 -92 -55q-39 -27 -112 -103q-66 -68 -97 -139q-2 -2 -15 -27.5t-24 -44.5v2 q-2 -6 -5 -13t-9 -17.5t-10 -18.5q-2 -2 -4 -5t-2 -5q-33 -53 -41 -84q-10 -35 -11 -43q0 -4 -2 -4q2 0 19 4l-2 -2q31 8 80 12q2 0 11 1t13 1l107 8q59 0 92 -10q25 -8 78 -47q53 -35 59 -49v2q41 -59 47 -72h-2q16 -27 37 -71q8 -18 19.5 -44t13.5 -30l6 -16v2 q4 -29 4 -64q0 -41 -2 -80q0 -47 -12 -84q-59 -170 -176 -239q-78 -45 -117 -50q-43 -8 -90 -8q-133 0 -160 15q-37 18 -119 100q-66 63 -76 82q-59 102 -67 149q-4 18 -8 91zM283 385q0 -33 71 -166q45 -80 86 -96q55 -14 99 -14q41 0 77 26q25 14 47.5 66.5t22.5 128.5 q0 96 -2 108q-2 47 -25 113q-10 20 -16 37q0 2 -2 4l2 -6q-47 76 -84 98q-62 31 -123 31q-150 0 -151 -215q0 -4 -1 -24.5t-1 -33.5v-57z" />
<glyph unicode="7" horiz-adv-x="765" d="M39 37q0 16 41 94q4 10 33 59q14 25 14 33l2 2l2 2q2 2 14.5 25.5t20.5 40.5v-2q14 29 22 41q43 78 82 190q6 10 33 62.5t43 83.5v-2l14 32q2 4 16.5 38t24.5 52q2 8 10.5 22.5t10.5 20.5q27 47 39 95q6 20 53 123l29 75l-2 -6v2l2 2l2 2v2q0 4 -13 7l-26 4l-62 6h-45 l-45 2q-14 -2 -59 -2q-8 0 -27.5 -1t-29.5 -1q-49 -4 -99 -70q-16 -23 -49 -22q-43 0 -43 43q0 35 39 184l4 29v14q14 113 74 113q25 0 37 -17q12 -10 35 -41q0 -2 145 -4l63 -2q25 0 43 2q16 0 93 -6h2h-2l36 4q37 -2 70 -2q80 0 80 -51q0 -25 -12 -47l-70 -138v3l-25 -66 v2l-12 -37q-8 -25 -24 -61q0 -8 -7 -19q-4 -10 -21 -61t-34 -92v2q-31 -92 -63 -183l-17 -38v2l-12 -39l-23 -51v2l-26 -72l-29 -80v2l-53 -158q-4 -8 -6 -15t-6 -17.5t-7 -18.5h3q-4 -12 -17 -41l2 2q-14 -70 -43 -90q-16 -6 -53 -8q-47 -12 -84 -12q-88 0 -88 51zM127 223 l4 6v-2l-2 -2z" />
<glyph unicode="8" horiz-adv-x="897" d="M92 406q0 78 29 135q18 37 82 100l43 39q23 18 22 22q0 25 -67 123q-39 57 -49 174q0 4 -1 14.5t-1 14.5q-2 25 -3 59q0 45 11 68q18 43 55 94l33 39q41 51 106 76l6 4q6 2 16.5 8t22.5 13q46 28 144 28q31 0 45 -8l32 -14h-2q57 -23 76 -41q63 -61 92 -146 q23 -61 25 -73q4 -45 4 -91q0 -20 -10 -81q-18 -94 -62 -125q-2 0 -7 -4.5t-11 -8.5q-6 -6 -23 -14q-10 -8 -18 -16.5t-14 -12.5l-4 -4q6 -6 34 -24q18 -14 37 -34t21 -22l4 -6l8 -12q14 -29 27 -51l10 -17l14 -37q20 -47 25 -63q0 -39 2 -72q0 -4 1 -17t1 -20v-16 q0 -123 -57 -219q-59 -96 -66 -102v2q-33 -37 -80 -62q-102 -43 -162 -43h-49q-117 0 -196 68q-16 10 -56 49l-4 6q-4 6 -14 22.5t-21 32.5q-39 59 -45 109q-6 70 -6 156zM207 317q0 -14 18 -63q25 -72 84 -115q45 -37 72 -39q29 -6 43 -6q80 0 98 6q31 8 51 29 q86 102 86 197q0 16 -6 53q-10 57 -12 59q-6 16 -53 70q-14 18 -53 53q-6 4 -31 18.5t-43 22.5q-39 14 -55 16q-23 -4 -40.5 -8t-24.5 -6t-9 -2q-12 -12 -19 -22l-28 -35q-2 -2 -18.5 -25.5t-24.5 -38.5v-6l-2 -4q-10 -39 -21 -90l-2 -4v-6q-10 -45 -10 -54zM322 1104 q0 -31 6 -53q4 -18 49 -80q18 -23 69 -66q6 -4 19 -16q2 -2 7 -8.5t10 -11.5t12 -9q6 -2 28 -2q23 0 31 6l-4 -4q8 8 16 14q-2 -2 2 2.5t13 8.5l16 16q94 80 94 199q0 57 -51 108l-53 54v-2q-23 14 -68 14q-90 0 -143 -55q-53 -49 -53 -115z" />
<glyph unicode="9" horiz-adv-x="899" d="M57 985q0 129 47 207q61 92 127 145q55 37 125 58q58 14 74 14l37 -2l63 4q29 0 78 -29h-2l17 -8l57 -39q100 -78 141 -145q18 -31 37 -129q14 -57 14 -117q0 -25 9 -106q2 -6 2 -54q0 -49 -21 -166l-47 -141l-14 -31q-2 -2 -2 -4q-18 -41 -31 -65v4q-6 -16 -61 -88 q-63 -86 -142 -158v2q-4 -4 -71 -61q-10 -10 -41 -23q-4 0 -7 -2l9 2l-164 -82q-59 -16 -64 -16q-45 0 -45 45q0 35 47 59q37 18 68 39q2 0 2 4l59 48l-2 -3l25 23q98 96 160 209l39 70v-3l8 19q20 51 20 84v8q-2 0 -5 -4t-5 -4q-33 -25 -96 -25h-35l-49 2q-86 2 -109 9 q-20 8 -59 38q-84 59 -144 183q-27 49 -45 110q-4 29 -4 119zM270 983q0 -186 58 -256v2q63 -70 131 -70q74 0 90 5q59 16 92 57q20 20 21 55v82q0 25 2 39q4 29 4 37v12q0 45 -56 168q-16 37 -39 74l2 -2q-55 78 -143 78q-35 0 -82 -37q-31 -23 -51 -60q-29 -57 -29 -184z " />
<glyph unicode=":" horiz-adv-x="342" d="M86 104q0 113 80 113q14 0 53 -22q49 -23 53 -33l-2 2q20 -20 21 -68q0 -51 -23 -78q-27 -33 -90 -32q-27 0 -67 45v-2q-25 27 -25 75zM86 578q0 108 80 108q18 0 53 -20q49 -27 51 -29q20 -25 21 -70q0 -49 -23 -78q-10 -12 -41.5 -23t-48.5 -11q-27 0 -67 49v-2 q-25 25 -25 76z" />
<glyph unicode=";" horiz-adv-x="344" d="M72 -152q0 20 14 41q4 6 55 50q10 10 11 41q0 35 -29 51v-2q-23 16 -29 26q-12 14 -12 39q0 61 41 94q8 8 76 31h6q39 -2 61 -45q0 -2 3 -8t8.5 -18.5t9.5 -24.5l16 -49q2 -6 2 -49q0 -8 -6 -45q-12 -78 -63 -119h2q-29 -25 -43 -29l2 2q-43 -18 -97 -18q-29 0 -28 32z M88 598q0 111 82 111q14 0 57 -21q49 -29 52 -31q18 -18 18 -67q0 -57 -23 -80q-25 -37 -92 -37q-23 0 -67 49v-2q-27 31 -27 78z" />
<glyph unicode="&#x3c;" horiz-adv-x="976" d="M84 682v31l848 553v-119l-598 -393l598 -404v-244z" />
<glyph unicode="=" horiz-adv-x="894" d="M94 487v2l2 31l-2 37q0 45 66 45h43h-2l12 -2l90 2h8q53 -4 60 -4q8 0 32 4h9q4 0 55 1t100 1q6 0 70 6h16q4 0 22.5 -1t31.5 -1q23 -2 53 -2q33 0 45 -4v2q35 -6 35 -41v-33l4 -24q0 -45 -64 -45q-47 0 -78 2q-8 2 -24 2q-10 0 -49 -8h-39q-41 -2 -111 -2h-41h-8 q-72 -6 -82 -6q-2 0 -8 1t-10 1q-23 0 -37 2h-21q-14 0 -28 -2q-2 0 -12.5 -1t-14.5 -1l-82 6q-41 4 -41 32zM94 694v4l2 31l-2 37q0 45 66 45q12 -2 49 -4l92 4h10q27 -4 62 -4h39q33 2 155 6q6 0 70 6h16v-35q2 4 9.5 11.5t25 13.5t37.5 6h35q33 0 45 -4v2q35 -10 35 -43 v-29l4 -28q0 -43 -64 -43q-49 0 -80 2q-8 2 -18 2q-14 0 -53 -8h-27q-90 -4 -125 -4q-33 0 -47 2q-49 -6 -80 -7h-16q-25 0 -41 2h-21q-14 0 -28 -2h-25l-84 2q-41 6 -41 35z" />
<glyph unicode="&#x3e;" horiz-adv-x="976" d="M84 109v120l596 394l-596 403v240l848 -572v-32z" />
<glyph unicode="?" horiz-adv-x="704" d="M59 1126q0 29 17 88v-2q4 31 30 76l-2 -4q6 12 37 43q33 35 62 53h-2q23 14 74 24.5t67 10.5q18 0 49 -6q18 -2 62 -10q27 -2 71 -47q66 -72 94 -117q41 -70 41 -231q0 -25 -24 -97l-21 -45l-45 -67q-14 -27 -53 -93q-12 -18 -37 -43l-4 -8q-16 -31 -49 -92l-20 -35v4 q0 -4 -7 -22q-27 -66 -32 -92v-4q-6 -61 -9 -70q-16 -23 -43 -23q-43 0 -43 52q0 10 13 131q0 20 12 57l16 51q0 4 11 43q0 2 2 7.5t4 7.5q18 43 45 122l33 97l12 20v-2l14 43q6 20 13.5 43t11.5 34t4 15l-4 43q-4 41 -10 70l2 -6q-4 8 -5 16v-2l-6 23q-8 59 -49 102 q-27 23 -76 23t-84 -29q-23 -18 -22 -59q0 -6 4 -23q8 -6 33 -43q12 -14 12 -51q0 -66 -37 -96q-16 -10 -45 -10.5t-43 10.5q-16 8 -39 41q-6 4 -14 20q-20 29 -21 59zM231 119q1 102 91 102q14 0 53 -16q8 -2 65 -27q23 -27 23 -82q0 -57 -29 -73q-6 -6 -61 -31h2 q-16 -8 -33 -8q-20 0 -72 39q-39 27 -39 96zM299 561q4 8 6 14q-4 -12 -6 -14zM451 1145l4 -4z" />
<glyph unicode="@" horiz-adv-x="1380" d="M66 666q0 72 18 202q12 66 51 146l33 69l29 35l18 27l31 35l-2 -2q49 57 112 116q166 111 367 111q231 0 367 -111q102 -84 120 -108q33 -47 58 -90v2q16 -33 31.5 -63.5t24.5 -52t11 -26.5q18 -49 19 -139q0 -88 -21 -151q-37 -145 -176 -230q-86 -53 -201 -90v2l-12 -4 q-10 -6 -20 -6l-54 2q-14 -2 -34 -2q-55 0 -62 29l-6 14l-37 -19q-16 -8 -80 -22l-39 -8q-29 0 -67 16q-41 14 -60 33q-33 33 -45 63q-41 92 -41 144q0 76 35 180q55 147 154 207q39 25 125 45h-2q51 14 69 14q61 0 90 -51v2v-4l17 12l69 -4l45 -4q31 -10 31 -51 q0 -18 -4 -43q-6 -39 -24 -139l-23 -144q-12 -61 -25 -108h2q0 -37 19 -37q43 0 94 53q115 111 115 178v4l-2 54q-2 70 -6 88q-2 6 -4.5 13t-4.5 16.5t-4 13.5l-2 4q0 4 -1 8t-3 10t-4 13q-14 57 -31 110q-10 37 -108 141q-4 4 -17.5 18.5t-19.5 20.5q-4 4 -9 10.5t-7 8.5 q-16 10 -86 26h2q-29 8 -88 11l-68 10l-16 -2q-20 -4 -72 -23q-94 -39 -107 -49q-53 -41 -118 -102q-49 -55 -111 -158l2 6q-8 -23 -18 -59l-13 -37l2 2l-26 -147l10 -119v2q2 -10 2 -33q0 -10 1 -18.5t3 -12.5v-4q16 -49 31 -104l20 -70h-2q0 -4 4 -8q0 -2 68 -72 q16 -25 35 -49q2 -2 23.5 -15.5t39.5 -23.5l6 -6l-2 4q31 -14 64 -43q29 -14 63 -20l60 -4q25 -2 51 -3h12q78 0 113 9l-2 -2q14 4 67 32q25 14 121 60l-4 -2l43 37q121 96 148 98h-2q4 0 10 1t10 3l14 4q2 6 9 8q8 4 14 4q33 0 33 -34q0 -27 -52 -91q-31 -39 -67 -73l2 2 q-92 -82 -219 -137q-68 -27 -123 -39l4 2q-23 -6 -88 -8q-86 -6 -113 -7q-94 0 -161 27l2 -2q-31 10 -109 68q-8 8 -57 40l-49 50q-47 47 -78 88l-33 57h2q-6 10 -25.5 41t-29.5 47l2 -2q-6 6 -13 39l-2 8q-2 10 -4 17l2 -2l-24 77q0 2 -2 6q0 20 -2 48zM418 215q2 -2 4 -2z M555 594q0 -43 23 -92q16 -37 75 -37q80 0 117 63h-2q23 41 35 72q4 33 16 88q0 10 4 17l-2 -5q2 2 2 5l11 43v-5l2 45l4 43q0 4 -6 11q-19 16 -50 16q-49 0 -96 -14q-57 -23 -86 -74q-20 -29 -24 -49l-7 -37z" />
<glyph unicode="A" horiz-adv-x="1056" d="M0 47q0 29 18 41l37 29q10 4 33 65v-2q4 12 37 56q2 2 20 77q2 2 39 90v-2q4 14 15 39l32 88q47 125 99 273q0 2 3 9t8 19.5l9 22.5q8 29 43 111q47 123 58 151q31 106 45 201q14 92 67 92q27 0 45 -45q2 -4 9.5 -24.5t23.5 -69.5t33 -97q6 -12 14 -32l21 -41 q2 -8 12 -56q0 -4 2 -9t5 -14t5 -18h-2q10 -31 12 -47q12 -35 33 -71l55 -148l19 -65v2l33 -111q6 -18 21.5 -71.5t25.5 -83.5l-2 2q16 -37 47 -144q27 -88 59 -127q4 -2 10.5 -7t17.5 -13t19 -15q20 -16 21 -45q0 -43 -53 -53v2q-12 -4 -62 -4q-8 0 -25.5 -1t-27.5 -1 l-51 -4q-10 0 -74 12q-49 -16 -76 -16q-51 0 -51 41q0 25 35 51q51 41 51 92q0 29 -18 84q-4 8 -7 16q-6 23 -28 72v-2q-12 20 -33 127l2 -2q-20 59 -80 59l-6 2h-6q-25 4 -57 15q-31 12 -68 12q-61 0 -86 -12q-25 -10 -43 -74v2q-14 -55 -31 -80h2q-23 -39 -33 -73 q-4 -12 -6 -23q0 -2 -2 -11t-4 -12l2 3q0 -6 -1 -17.5t-3 -15.5q-6 -39 -6 -45q0 -29 6 -45h2l2 -2q4 -4 12.5 -13.5t22.5 -25t27 -27.5q29 -29 28 -45q0 -45 -67 -45q-29 0 -66 2h-69l-86 -2q-68 0 -68 49zM457 711q10 -20 65 -31h-2q27 -6 31 -8v2q31 -6 39 -6q6 0 6 6 q0 100 -25 186q-25 78 -36 90l-15 -26q-33 -55 -41 -70v4q-26 -87 -26 -117q0 -14 4 -30zM811 8q2 0 6 2q-4 0 -6 -2z" />
<glyph unicode="B" horiz-adv-x="1019" d="M94 41q0 25 12 37l56 63q25 57 31 127q6 121 6 189v438q0 37 -2 57v13q2 12 2 32q6 37 6 43v13q0 6 -1 14t-2 22.5t-1 26.5q-6 47 -15 76q-4 12 -7 23.5t-3 13.5v-4q-4 6 -10 12t-15.5 17.5t-17.5 21.5q-25 18 -24 45q0 39 30 45l-4 -2q18 4 86 8q6 0 43 6q13 2 25 2 l22 -2l31 -2q31 -4 74 -6q2 0 11 -1t13 -1q14 -2 27 -2h133l31 -2h-2q49 0 166 -80q63 -31 90 -59q82 -94 82 -254q0 -59 -27 -107q-51 -86 -86 -121q-33 -25 -45 -36l2 2l-2 -2v-2v-3q0 -12 18 -24q20 -14 78 -78l27 -47h-2q47 -78 47 -147v-27q-2 -23 -2 -41v-6 q0 -129 -115 -240q-133 -98 -209 -98h-2q-33 -2 -78 -2h-92l-143 2q-33 0 -51 2q-41 4 -49 4q-12 0 -25 -2q-2 0 -6 -2h-6q-18 -2 -49 -2q-55 0 -56 47zM352 182h37q0 -16 4 -20q18 -29 58 -45q25 -12 30 -13h2l39 5q35 4 70 6q53 39 61 47q59 47 78 110l-2 -2q4 25 6 62 q0 16 2 30v95q-4 57 -10 67q-31 43 -72 82q-53 56 -147 56h-76q-18 -2 -26 -58q-4 -20 -5 -45v-98l-6 -33q0 -8 2 -14q0 -4 1 -13.5t1 -11.5l-2 -121q-2 -25 -19.5 -53.5t-25.5 -32.5zM403 1061q0 -8 5 -19q6 -33 6 -100q0 -20 -2 -43v-16q0 -63 41 -92q14 -14 36 -15 q57 0 89 23l49 32q12 8 63 39l-6 -2q51 59 51 154q0 4 -8 86v-2q-6 31 -35 49q-29 20 -35 33l2 -2q-10 12 -19 21.5t-14 15.5t-8 8h-4q-6 0 -55 4l-74 14q-27 -8 -61 -43q-4 -14 -8 -35v3q-4 -16 -6 -60zM588 113h2h-2z" />
<glyph unicode="C" horiz-adv-x="1255" d="M86 702q0 121 12 183q23 106 84 180l-2 -4q10 12 13 14q37 43 38 51l50 82q29 47 182 119q133 57 141 59q78 23 150 24q190 0 366 -107q18 -12 72 -33q35 -10 39 -51q6 -47 6 -129q0 -4 -1 -16.5t-1 -18.5q-2 -10 -2 -25v-55q0 -43 -41 -43q-27 0 -45 37q-2 2 -8 18 q-8 12 -15 29q-4 12 -16 33q-6 12 -16 28q-6 10 -7 13q-16 27 -28 30l-66 47q-29 23 -104 74l2 -2q-16 6 -92 18q-43 8 -70 8.5t-53 -14.5q-53 -14 -125 -73q-51 -31 -60 -39l3 2q-63 -74 -91 -125q-43 -98 -43 -119v-88q0 -6 -2 -12q0 -2 -1 -9.5t-1 -9.5q-20 -63 -20 -76 q0 -8 2 -14q6 -43 6 -74v-12q0 -6 -1 -16.5t-1 -14.5q-2 -12 -2 -22v-6l4 -31v-70q0 -20 41 -108q35 -63 59 -88q78 -88 158 -113v2q49 -16 100 -16l99 2q16 0 78 4h14q8 0 18 2q45 2 58 12q37 20 82 76l-2 -2q27 49 61 100q12 14 14 29v-4v4q2 4 2 6q8 63 56 64 q49 0 49 -66q0 -39 -2 -67q0 -6 -1 -18.5t-1 -20.5v-60q-4 -61 -8 -76v2q-6 -18 -31 -34l-31 -17l4 2h-4q-66 -43 -88 -49l-57 -18v2q-74 -29 -117 -29h-129q-6 0 -17.5 1t-13.5 1h-6q-20 0 -51 -2q-63 8 -72 10q-27 8 -80 37q-68 39 -69 41l-47 37q-80 57 -136 113 q-47 51 -125 190q-31 53 -53 131q-8 27 -8 180z" />
<glyph unicode="D" horiz-adv-x="1239" d="M76 57q0 33 20 47h-2l8 5q10 6 19 10q6 2 24 16q43 33 43 107v16q0 25 9 70q4 49 4 55q0 20 -4 78v14v14v23v-2q4 33 4 84v2q-4 25 -4 63v99q0 31 -4 100q-2 33 -3 57q0 39 5 72q6 37 6 45q0 4 -4 45q-4 43 -7 56q-14 57 -18 67q-2 6 -27 35l5 -2l-17 12q-2 0 -10 5 t-12 10q-27 20 -27 51q0 53 104 53q47 0 88 -10h-4h7q6 -2 12 -2q10 0 82 16l112 6q6 -2 50 -2q6 0 21 -1t26 -1q66 -2 163 -6q33 -2 148 -70l14 -8l29 -26l-4 4q82 -47 127 -111q25 -18 90 -109q37 -106 41 -135q12 -84 12 -127v-207q0 -55 -35 -165q-14 -51 -20 -60 q-4 -10 -39 -67q-29 -55 -66 -101q-47 -43 -79 -65l2 2q-4 -2 -11.5 -6t-9.5 -7l-29 -16q-12 -8 -124 -47h2q-4 -2 -10.5 -4t-14.5 -4t-12 -4q-80 -31 -119 -35q-29 0 -74 -2q-6 0 -16 -1t-12 -1l-21 2q-16 -6 -27 -6q-4 0 -7 -1t-5 -1q-12 0 -20 2q-2 0 -10.5 2t-15.5 3 t-15 3q-12 2 -70 2q-35 0 -61 2l-56 -2l-69 2l-33 -2q-49 2 -49 59zM422 387q2 -10 2 -31q6 -41 6 -51q0 -20 -4 -61v-13q-2 -4 -2 -8q0 -39 29.5 -73.5t66.5 -34.5l6 2q6 2 22.5 7t35.5 9l63 10l45 11q4 2 56 20q6 4 34 37l45 53q4 6 17 19l-2 -2l7 7t7 9l12 18 q16 29 25 39q4 6 16 23q4 4 17 20q8 14 14 43q0 2 1 7.5t1 9.5q0 2 3 27.5t5 41.5l15 80q0 8 1 18.5t3 25t2 22.5q4 45 4 55l-6 53l-2 56q0 14 -4 75v11q0 2 -5.5 10t-14.5 24.5t-17 32.5q-18 39 -70 115q-23 23 -82 55l-12 6l4 -2q-8 6 -37 27h2q-43 27 -65 39h2 q-29 8 -68 8q-154 0 -160 -104q-4 -47 -16 -113q0 -4 14 -66v-36q0 -6 -4 -39q0 -10 -2 -27.5t-3 -32t-1 -26.5q0 -76 -2 -121q-2 -4 -2 -10v-9l8 -94q-2 -39 -6 -74v2l-2 -49z" />
<glyph unicode="E" horiz-adv-x="968" d="M76 35q0 31 24 49q0 12 15 12q4 2 15 6t17 7q31 33 37 47q6 23 9 65q0 10 1 20.5t3 22.5t2 19q-2 10 -2 34v109q-2 23 -2 43l2 20v15q0 37 11 78t21.5 64.5t14.5 27.5l-37 -2q-2 18 -4 61v-2q-2 10 -2 43q0 31 2 47v53l4 87q4 72 10 106l-12 57q-14 63 -21 76 q-27 37 -86 76q-16 10 -16 35q0 61 76 61l43 -2q2 0 16 1t25 1q8 0 26.5 1t32.5 1q16 0 43 2h23q6 0 17 1t15 1q49 0 88 -10q16 -6 21 -6q14 2 39 6l-2 -2q8 4 30 4q25 0 50 2q20 2 49 2q47 0 98 -12l4 -2h6h-6q23 2 39 6l4 2h8h13q59 0 65 -49q4 -10 6 -76v-31v-32v-21 q2 -6 4.5 -23.5l4.5 -31.5q0 -16 2 -23q2 -8 2 -24q0 -51 -41 -51l-19 10q-16 10 -30 20q-12 12 -46 82l-16 31q-14 23 -18 27l-9 8q-16 16 -45 28v-2q-12 2 -63 7q-4 4 -14 4h-7l-4 2q-61 20 -90 20q-76 0 -78 -33v-18q0 -2 -1 -11.5t-1 -13.5l-4 -28v-19q-12 -68 -12 -100 v-6q0 -4 1 -35t1 -47q0 -41 -2 -82q0 -76 47 -76q25 0 45 14q63 43 94 80q23 29 45 29q27 0 43 -37v-22q0 -4 1 -13.5t1 -15.5l5 -37v-29q0 -23 -5 -84l-2 -30q0 -20 2 -45q0 -10 5 -27v-10q0 -18 -17 -58v3q-6 -25 -33 -25q-18 0 -47 35l-22 28l-17 45l-32 33 q-8 12 -16.5 20.5t-49.5 8.5q-25 0 -29 -10l2 -2v-8.5v-11.5v-15q0 -6 -1 -22.5t-1 -26.5q0 -37 -8 -72q-12 -53 -12 -74q0 -18 2 -41l-2 -53q0 -43 -2 -68q0 -4 -1 -14t-1 -12l-4 -25v-6q0 -45 98 -49h6q6 0 29 -2l51 -6q10 0 66 16q33 8 34 15l41 36q41 29 45 37l-2 -4 q16 31 43 107v-2q12 43 52 43q45 0 45 -62q0 -141 -9 -188v2l-4 -82q-14 -53 -65 -53q-12 0 -92 18q-4 0 -9.5 1t-9.5 3q-49 -8 -61 -8h-12q-4 0 -87 4l-143 -6q-2 0 -14 1t-19 1q-14 2 -34 2h-13q-66 0 -139 -2l-84 -4q-53 0 -53 41z" />
<glyph unicode="F" horiz-adv-x="915" d="M59 1313q1 51 62 51l37 -2q10 2 49 6q10 2 24 2q18 0 103 -14h-4q14 0 55 6h-2q6 0 15.5 1t15.5 3q6 0 20 2l17 2h-2q86 6 141 6q12 0 98 -6h2h-2l17 2q31 0 59 2h37q18 2 39 2q68 0 67 -53l-2 -47v-19q0 -4 1 -14t1 -16v-154q0 -57 -41 -57t-90 84l-2 2q0 2 -2 8 t-6 14.5t-14.5 31t-14.5 34.5q-14 27 -53 47h2l-24 8l-9 4h2l-8 4l-76 -8q-10 0 -18 4h2q-20 6 -47 6q-57 0 -92 -47q-6 -4 -8 -39q0 -2 -2 -6v-6q0 -4 -2.5 -22.5t-4.5 -30.5v-47q0 -29 -2 -45q-2 -4 -2 -11v-12q0 -25 8 -92v-23q-6 -37 -6 -61q0 -29 12.5 -33t55.5 -4 q37 0 57 8l-2 -2q61 39 90 82q33 57 56 58q43 0 43 -152q0 -6 -4 -18l2 2q-10 -82 -11 -99q0 -2 4 -22q10 -72 11 -94q0 -45 -41 -45q-27 0 -41 24l-39 72q-16 33 -60 53q-37 18 -73 19q-53 0 -54 -95q-4 -68 -8 -94v-76l2 -35v-182q4 -12 6 -30q0 -2 1.5 -8.5t1.5 -8.5 q0 -4 2 -6l8 -23q4 -2 35 -22q36 -22 36 -50q0 -38 -43 -38q-35 0 -94 6v2q-2 0 -6 -2l-31 -2l-75 8l-125 -8q-39 0 -39 37q0 25 51 69l-2 -2q27 35 43 82q20 51 20 92v183l-2 33v55l-2 49v164l-2 49l10 65l-2 66l2 51v37v27q0 29 -2 39q0 4 -6 30q-2 6 -5 17.5t-5 19.5 l2 -2q-8 25 -10 33l2 -2q-2 2 -2 5t-2 5q0 2 -2 2q-12 16 -27 35q-10 14 -18 16l-35 19h2q-23 6 -23 41z" />
<glyph unicode="G" horiz-adv-x="1331" d="M86 662q0 35 2 61v-2q0 8 1 19.5t1 15.5v26q4 92 49 199q49 121 135 227q45 55 107 88l-2 -2q8 6 20 17q66 45 140 69q14 4 30.5 9.5t23.5 8.5t9 3q16 0 62 1t73 1q119 0 217 -8q35 -2 70 -17l76 -35l-2 3q35 -8 92 -39q57 -43 57 -111q0 -80 -6 -184q-4 -45 -9 -68.5 t-10 -28t-16 -4.5h-2q-41 0 -94 140v-2q-10 41 -25 55q-29 20 -43 31q-10 18 -53 61q-2 0 -8 6q-10 8 -16 12q-45 33 -101 43q-86 16 -96 17q-109 0 -207 -62q-59 -35 -84 -61q-49 -55 -76 -135q-10 -35 -28 -117q-25 -98 -25 -104q2 -8 6 -62v-37q0 -4 -1 -21.5t-1 -25.5 l-2 -92l-6 -59q0 -8 23 -95l4 -10q4 -10 15 -34.5t22 -51.5q51 -123 192 -184q82 -31 135 -31q23 0 105 19q18 2 57 6q102 6 102 159q0 33 -17 57.5t-44 26.5q-55 2 -68.5 9.5t-13.5 40.5q0 25 29 45q23 0 65 8q23 2 45.5 5t32.5 4t12 1t125 -10h19q10 0 20 2t27 2 q47 0 55 -49v-10q0 -25 -12 -37l-35 -39l2 2q-4 -2 -6 -74v-47l-2 -78q0 -37 -6 -82t-62 -45q-16 0 -53 4q-14 2 -37 2q-4 0 -71 -20l-74 -6l-51 -6l-31 -5q-45 -4 -76 -8q-29 -4 -31 -4h-4q-127 0 -162 12q-143 55 -237 140q-57 55 -82 94q-80 115 -113 223l2 -2 q-2 4 -6 18.5t-6 18.5t-8 18.5t-8 22.5l2 -2q-33 76 -33 154z" />
<glyph unicode="H" horiz-adv-x="1415" d="M55 53q0 41 60 53q61 14 78 48q10 25 12 71q2 16 2 127q0 25 -2 43q0 4 -1 16.5t-1 18.5q-2 25 -2 49q0 16 6 86q2 10 3 29.5t1 30.5v16q-4 61 -4 88q0 41 12 111q2 4 2 14q0 8 -2 18q-2 35 -2 91q0 14 2 30v64l-2 57v43q0 90 -74 113q-47 8 -47 55t74 47q25 0 51 -2h21 q25 -2 80 -2h57l90 2q63 0 63 -45q0 -27 -18 -39l-39 -31q-45 -39 -45 -147q0 -10 6 -94v-31q0 -39 -4 -76q0 -6 -1 -19.5t-3 -19.5q-6 -37 -6 -43q0 -43 74 -61q31 -6 118 -6h72q84 0 117 8l115 -14h10q27 0 80 26q23 10 22 29q0 4 -4 29v10q0 10 -2 16l2 19v84l6 90 q-6 31 -6 47q0 29 2 45q2 8 2 14q0 51 -24 86q-4 6 -21 13h2q-51 14 -51 51q0 45 61 45h70q6 0 15.5 1t13.5 1l2 -2h8q2 0 11 -1t13 -1l7 -2q6 0 47 4q4 0 11 1t14.5 2t13.5 2t10 1h2q108 0 108 -40q0 -19 -69 -81q-27 -31 -27 -141q0 -10 2 -21q2 -16 2 -35q0 -4 -1 -14 t-1 -16v-21q0 -27 8 -131l-4 -43q0 -37 -2 -84q0 -31 -2 -49q-2 -4 -2 -10q-2 -6 -2 -17q0 -14 6 -81v-27l-2 -72l-2 -235v-11q0 -92 33 -127l4 -2q12 -6 33 -22h-2q31 -25 31 -47q0 -41 -48 -41q-31 0 -61 6h-186q-4 0 -11.5 -1t-9.5 -1q-18 -2 -47 -2q-47 0 -47 39 q0 12 10 22l58 54q18 18 26 73q4 29 6 123l2 23q-10 29 -10 43l2 90q0 8 1 19.5t1 15.5t1 9t1 7q0 76 -12 90q-16 20 -100 23q-18 0 -37 2h-15q-8 0 -20 -1t-19 -1q-25 -2 -59 -2q-20 0 -31 2q-4 0 -10 1t-8 1h-31q-2 0 -8 -1t-15.5 -2t-17.5 -1h-8q-18 0 -70 8q-29 4 -45 4 q-92 0 -104 -57v-64l-2 -51q0 -2 1 -15.5t1 -25.5q0 -8 1 -30.5t1 -35.5v-22q0 -8 -6 -62q0 -6 1 -13t1 -9l-2 -12q18 -51 39 -105l-2 6q45 -51 55 -59q37 -27 37 -47q0 -35 -39 -35h-178q-31 0 -37 2q-10 4 -27 4q-14 0 -51 -4q-20 -2 -55 -2q-106 0 -107 53z" />
<glyph unicode="I" horiz-adv-x="512" d="M94 1319q1 51 60 55l110 -6q63 8 90 8q98 0 99 -69q0 -23 -27 -45q-29 -27 -35 -43q-16 -49 -16 -277q0 -16 2 -41q0 -16 1 -57t1 -66v-53q0 -84 -4 -170q-2 -6 -2 -27q0 -14 2 -28q2 -31 2 -62q0 -14 -2 -28v-19q0 -6 6 -57l2 -107v2l2 -30l16 -33q2 -8 9 -21q0 -2 1 -5 t3 -7t2 -6l28 -29q18 -33 19 -47q0 -51 -37 -51h-57q-6 0 -9 -2q-14 -2 -38 -2h-7q-4 2 -8 2q-2 0 -10 1t-14 1l-82 -2h-8q-23 0 -68 16q-23 12 -23 45q0 20 15 35l45 41q12 20 12 51q0 6 4 27q0 6 1 22.5t3 30.5q4 12 4 20.5t-4 32.5q-2 14 -2 39q0 37 2 64v-2q0 4 1 14 t1 15q6 57 6 86q0 10 -6 75v-2q-2 6 -3 22.5t-1 22.5l6 66l-2 4v6t-1 11.5t-1 15.5v202q0 8 -2 19q-2 25 -6 82q0 4 -1 12t-1 12l-2 109q-4 33 -39 68h2q-39 31 -39 59z" />
<glyph unicode="J" horiz-adv-x="526" d="M78 1321q0 31 8 39t102 24h5q55 -8 63 -8h12q80 12 90 13q66 0 66 -66q0 -12 -35 -47v-23l-2 -18l-2 -29q-4 -45 -4 -129q0 -70 2 -104v-19q-6 -39 -6 -90v-16l4 -119h-35q8 -6 20.5 -29.5t12.5 -48.5v-30l2 -136l-4 -82l4 -139q0 -10 -1 -30.5t-1 -28.5v-23q0 -6 1 -15 t2 -27.5t1 -35.5l4 -84v-24q-4 -113 -12 -152q-2 -14 -21 -75l-6 -13l-10 -24l2 2q-16 -57 -33 -88h2q-23 -43 -39 -56h4l-57 -61l-61 -66q-6 0 -9 -2q-4 -2 -14 -2q-41 0 -41 45q0 27 23 64q4 6 24 63q0 2 4 13.5t7 13.5q6 12 8 20q0 14 2 23q0 2 1 8t1 8q6 53 6 113v84 l2 55l10 54v8l2 39q0 45 6 110q4 29 7 62q-12 141 -13 161v48q0 12 1 28.5t1 22.5v6q0 2 -1 13t-1 16q0 14 -1 46.5t-1 49.5l2 84l-2 37l2 47l2 61v2q0 2 -1 5t-2 8.5t-1 11.5q-4 23 -6 117q-2 20 -2 69v25v18l-10 66q-6 31 -8 39l-2 2v2l4 -4h-2l-2 2q-14 14 -37 32h2 q-39 29 -39 64zM152 1227v2v-2z" />
<glyph unicode="K" horiz-adv-x="1193" d="M84 1321q0 45 59 45h15q8 0 22.5 -1t18.5 -1q20 -2 45 -2q23 0 39 2h16l8 2h25l18 2h15h8q6 -2 12 -2q31 0 51 -2q39 -2 62 -12q35 -14 34 -47q0 -25 -10 -37q-14 -14 -84 -45q-14 -8 -30 -107q-2 -12 -2 -24v-7l-3 -4l7 -77v-3q0 -2 -1 -6t-1 -8t-1 -10t-1 -10 t-2.5 -9.5t-3.5 -10.5t-1 -11v-23q0 -8 13 -47q4 -41 6 -55h10q16 0 41 18l2 2q2 2 7 7.5t15.5 12.5t18.5 15l12 13l56 55q76 59 192 174q4 6 14 16q14 12 39 50q20 35 21 53v14l-37 31q-25 23 -25 51q0 49 54 49q10 0 61 -6q14 -2 48 -5t50 -5q12 -2 29 -2q18 0 33 2 q6 0 18.5 1t14.5 1q96 0 96 -49q0 -35 -51 -68h2q-25 -16 -35 -22l-31 -19l4 2l-67 -63q-27 -18 -51.5 -37t-41 -31t-20.5 -14l-8 -8l-31 -33q-12 -12 -94 -84l-43 -35l-25 -23h2q-47 -37 -104 -92h2q-14 -16 -14 -30q0 -10 6 -23q2 -4 5 -7t8 -9t9 -11l11 -10 q57 -61 133 -157l65 -74v2q43 -35 158 -154l84 -90q29 -27 33 -35h-2l61 -61q47 -35 47 -76t-51 -41q-31 0 -55 2q-6 0 -14.5 1t-18.5 3t-17 2h-8q-23 -2 -104 -6q-23 -2 -45 -2h-4q-68 2 -68 49q0 20 14 35l31 25l-2 4l-49 61q-78 78 -90 99l2 -5q0 2 -1 5.5t-3 5.5l-12 16 l-39 29q-23 25 -129 127l-9 10q-10 10 -43 39l7 -2l-29 12q-4 4 -8 6q-4 4 -9 6q-20 20 -26 21q-4 0 -4 -14v-7l2 -82q0 -8 -6 -47q0 -6 -1 -14t-1 -10q-2 -16 -2 -33q0 -8 8 -47l4 -74l6 -43l-2 4q4 -10 4 -22q4 -29 39 -51q25 -18 45 -33q16 -10 16 -35q0 -39 -43 -39 q-14 0 -28 2h-49q-12 2 -23 2l-39 -2h-18q-31 0 -125 -4h-8q-20 -2 -50 -2q-45 0 -45 43q0 33 58 57q41 12 41 121v6q0 6 -1 17.5t-2 34t-1 42.5q0 16 4 54q2 16 2 38.5t-2 57.5l-4 147v140v-2q-2 27 -2 55q0 41 2 72v55v41q0 59 -19 190q0 43 -2 52q-10 6 -63 51 q-27 20 -27 51z" />
<glyph unicode="L" horiz-adv-x="886" d="M90 86q25 18 41 33q45 41 51 121q8 43 8 163v89v102v6q0 68 9 125q2 2 2 16h39l-7 7q-4 6 -10 17t-12 25.5t-11 31t-5 30.5v207l-5 49v-2v41q0 4 -1 15.5t-1 17.5q-8 10 -24 39h2l-21 34l2 -4l-16 8q-2 0 -17.5 7.5t-23.5 11.5q-18 8 -18 39q0 41 49 45l-4 -2q12 4 28 4 q2 0 9.5 1t11.5 1l131 -4q27 2 106 6l56 2h8q57 0 57 -49q0 -27 -24 -39h2l-21 -12l-22 -29q-8 -10 -12.5 -13t-4.5 -1q-39 -109 -39 -248q0 -88 7 -180l-2 -88v-191q0 -10 -7 -53v-31q0 -27 5 -51q4 -45 6 -57q2 -39 4 -56q0 -18 -8 -57v-12q0 -74 73 -74q14 0 64 8 q41 0 84 2h-2l20 2h51q8 0 43 41v-2q53 63 60 78q47 92 73 92q37 0 37 -41v-8l-4 -84l4 -68v-24l2 -35q0 -61 -45 -84q-16 -4 -77 -4h-50l-129 4h-6q-4 -2 -8 -2q-16 0 -29 -2h-18q-33 -4 -51 -4q-45 0 -111 8q-25 4 -41 4q-27 0 -100 -4h-12l-21 -4q-4 0 -11 -2t-21.5 -5 t-24.5 -5l2 2q-12 -4 -21 -4q-69 0 -69 46q0 28 20 54z" />
<glyph unicode="M" horiz-adv-x="1540" d="M57 53q0 16 8.5 28.5t51.5 35.5q70 35 82 172v39q0 78 6 245l12 228q0 37 -16 131l2 -2q-4 12 -4 108q0 12 -1 45t-1 56q-4 55 -17 69q-2 6 -74 49q-45 29 -45 66q0 45 41 51q12 0 35 2h51q2 0 13.5 -1t21.5 -1q6 0 19.5 -1t21.5 -1q14 -2 23 -2q35 0 106 8h-2q10 2 29 2 q45 0 61 -47q2 -14 8 -51q4 -80 21 -154q29 -119 131 -327q0 -8 2 -10q2 -4 12 -35q0 -4 2 -8.5t2 -8.5q10 -35 25 -63q2 -4 5 -14.5t9.5 -29t10.5 -32.5q0 2 6 -6t18 -27.5t29 -48.5q27 -49 31 -65h-2l4 -11q12 0 39 45q4 6 10 17q27 35 80 170l12 28l18 48l35 90v-2 l51 143h-2l31 98l33 76q20 53 43 121l6 18q4 16 10 27v-2q10 31 49 49q18 6 111 6q25 0 53 -4h4l62 2h4q23 0 49 -31q14 -18 14 -34q0 -35 -26 -41l4 2l-39 -17q-25 -10 -49 -63q-6 -12 -11 -70q-6 -66 -8 -162q0 -78 2 -120q4 -53 4 -60v-20q0 -152 -2 -176v-88l2 -158 q0 -4 -1 -16.5t-1 -20.5v-35q0 -8 15 -63q20 -72 24 -74l47 -27q25 -18 25 -51q0 -51 -43 -51h-6l-41 4h-100q-16 -2 -31 -2l-125 2q-4 0 -19.5 -1t-23.5 -1h-43q-59 0 -60 39q0 29 35 53q6 4 23 16q66 45 82 76q6 10 10 35v21q0 45 6 145l2 35l2 31v-3q0 2 1 10.5t1 14.5 q0 23 2 33q2 16 4 20q-2 8 -6 41l-2 76q0 39 -6 86l-4 37v6q0 12 4 53v8q6 57 6 82v2l-8 -24q-12 -27 -18 -43q-14 -45 -25 -60l-27 -34q-10 -8 -36 -99q-39 -82 -50 -104l2 4q-6 -27 -45 -164q0 -2 -5 -11t-15 -28.5t-21 -38.5v2q-6 -12 -39 -114l-38 -80v2q-6 -18 -31 -78 q-6 -8 -8 -16q-16 -20 -35 -21q-25 0 -45 35q-12 18 -33 104h2q-2 4 -63 148q-23 63 -60 141q-41 74 -59 105q-37 63 -64 170v-2q-23 76 -84 186l2 -2q-2 2 -4 6l-2 4q-8 6 -8 15q-2 4 -4 10q-2 2 -2 4l4 -88l-10 -88v2l-2 -74q2 -29 2 -61q0 -2 -1 -10.5t-2 -24t-1 -27.5 q-2 -14 -3 -46t-1 -48q0 -8 1 -23.5t3 -21.5l4 -41v-92q0 -35 26 -117q12 -33 80 -78q47 -39 47 -65q0 -43 -69 -43q-27 0 -47 2q-4 0 -16.5 1t-16.5 1q-41 0 -86 2q-131 2 -152 8q-41 18 -41 53z" />
<glyph unicode="N" horiz-adv-x="1331" d="M43 59q0 20 16 35q0 10 21 10q2 0 31 19q43 23 55 67q16 49 18 181q0 43 2 65q2 18 2 27q0 20 -2 61v21q0 29 9 92q2 10 2 18l-2 35v41q0 6 -1 14.5t-1 10.5q0 4 -1.5 10t-1.5 8q0 20 7 64q4 12 4 53q0 2 1 16.5t1 24.5q2 14 2 39v49q0 59 -8 92q-14 63 -29 82 q-2 2 -78 47h2q-45 20 -45 62q0 55 47 55l53 -2l-4 -2q14 4 54 8h14q2 0 88 4l127 6q76 0 76 -59q0 -10 -4 -23l2 2q-6 -37 -6 -49q0 -47 116 -221l21 -31q2 -2 6 -10t9 -15.5t9 -15.5q63 -102 150 -215q35 -41 108 -123q4 -4 9.5 -10t7.5 -8l16 -19v3q16 -31 33 -39l47 -23 q4 4 12 27q4 20 15 116l8 105l-2 102q0 12 4 54v10l2 2l-6 55l-2 27v-2q-12 66 -19 147q-8 47 -96 103q-31 18 -31 49q0 10 15.5 31.5t27.5 21.5l115 -12l14 4q37 12 50 12h59q43 0 74 -6q37 -14 37 -47q0 -29 -23 -41l-39 -23q-47 -29 -49 -69q-2 -25 -6 -127q0 -45 -4 -66 v-6q0 -4 1 -11t2 -19.5t1 -22.5q0 -49 2 -103v-55q-8 -66 -8 -94v-152q-8 -59 -9 -77q0 -14 9 -87v-114q2 -45 2 -84q0 -25 2 -33q0 -8 1 -19.5t1 -15.5q0 -6 1 -12t1 -8q0 -84 -66 -84q-29 0 -37 18l-55 88l-6 6q-8 8 -12 15q-72 72 -76 80h2q-23 37 -45 67q-12 10 -70 82 h2l-20 21l-33 45l-41 49l-37 51l-41 51l-28 35q-20 27 -29 37q-10 12 -25 31q-6 8 -13 19t-18.5 26.5t-19.5 25.5q-37 51 -49 74l2 -2q-4 6 -31.5 44t-50.5 69l-59 82q0 -2 -1 -5.5t-1 -5.5v-112l-2 -92q-2 -129 -9 -259q-6 -74 -6 -90q0 -20 6 -59q0 -25 3 -43 q0 -4 1 -14.5t1 -14.5l2 -28q2 -55 6 -82v2q12 -84 104 -99q47 -8 47 -63q0 -43 -106 -43q-23 0 -43 2h2q-41 2 -115 2q-31 0 -49 -2h-14q-29 0 -70 10q-45 14 -45 49zM76 104h4h-4z" />
<glyph unicode="O" horiz-adv-x="1472" d="M86 737v11q0 74 33 174h-2q8 29 76 147q4 8 21 31.5t26 40.5h-2q6 10 30 43q88 96 228 159q100 45 125 50l-3 -2l11 2q10 0 26.5 2t32.5 2q2 0 8 1t9 1q87 6 112 6q92 0 162 -25q49 -20 117 -69q20 -16 49 -37q0 -2 2 -2q4 0 12 -8l17 -15l28 -28v2q14 -12 51 -49 q8 -8 27 -39l37 -62q2 -4 7 -11t7 -11l-2 2l43 -66l-2 4q6 -8 12 -41l2 -8q2 -10 5 -16l-2 4q8 -16 14 -34.5t10 -32t6 -15.5v-4q0 -29 2 -47l6 -82q0 -12 -6 -74l4 -88v-12q0 -14 -8 -64q-6 -27 -49 -115l-35 -67l-28 -37l-23 -25l-29 -34q-29 -35 -114 -111 q-180 -115 -389 -115q-133 0 -197 21q-231 68 -350 299q-59 115 -84 192h2q-20 68 -27 113v8q0 6 -1 18.5t-2 37t-1 45.5q0 14 -4 30zM354 543q0 -2 29 -129q6 -27 25 -82h-2l59 -70q20 -35 33 -47l18 -12q16 -12 35 -25q55 -45 86 -57q14 -6 82 -12q16 -2 37 -3h18 q61 0 84 7h-2q27 14 49 30q10 6 92 60h-2q16 14 43 51q4 12 13 22q43 61 98 168l-2 -2q12 45 14 74q2 18 2 27v137q0 29 -2 72v-2q-2 12 -2 47q0 6 -1 21.5t-1 23.5q-6 12 -12 39q-20 82 -66 157q-20 41 -102 129q-10 12 -22.5 26.5t-20.5 23.5l-6 10q-12 12 -58 20 q-6 0 -10 2q-8 0 -20 6q-37 7 -76 9l-62 10q-31 -6 -63 -23q-63 -43 -72 -51q-47 -43 -90 -102q-14 -16 -47 -84l-29 -49v2l-16 -43q-10 -23 -16 -41v2q0 -2 -2 -5t-3.5 -6.5t-1.5 -7.5q-6 -25 -6 -82q0 -29 2 -51v-61zM1157 840l2 -2z" />
<glyph unicode="P" horiz-adv-x="976" d="M33 1311q0 53 59 53q14 0 21 -2q16 -4 18 -4q6 0 14 2q2 0 10.5 1t10.5 1q4 0 12 1t10 1h9l4 2l100 -10l10 -2l45 10q33 8 43 8l27 -2l16 2l56 -2q6 0 17 -1t17 -1q29 0 39 -2q6 -2 35 -10h-2q10 0 17 -2q158 -12 272 -244q29 -55 31 -84q6 -33 6 -61v-39 q-6 -145 -105 -226q-84 -88 -129 -98l-41 -10q-27 -4 -57 -10q-10 -2 -14 -4h-43l-66 -7l-49 2h-4q-8 0 -10 -12q-4 -6 -11 -45v-4l-4 -59l-4 -60v-8q0 -4 4 -33q6 -37 6 -53v-20l-4 -66q2 -88 78 -135q39 -27 39 -47q0 -37 -49 -37q-25 0 -39 2h-6q-6 2 -8 2q-27 2 -49 2 l-68 2l-76 -8l-28 -2l-23 -2h-20q-82 0 -82 53q0 27 26 43l-2 -2l37 25q25 16 43 100q4 25 11 55.5t7 36.5q6 59 7 158q0 16 -7 90q0 23 3 37l4 35l-2 71l-2 88q0 59 -7 131v50q0 12 1 30.5t1 22.5q0 31 -6 92q-10 90 -106 139q-43 27 -43 66zM385 846q0 -6 2 -15q0 -2 1 -8 t1 -8v4q0 -6 3 -16t3 -15q14 -94 43 -94q4 0 8 2l66 11q47 2 63 6l-4 -2q41 16 70 55q6 6 14.5 18.5t14.5 18.5q10 10 16 39l10 63q4 31 21 58h-4q0 4 -11 45q-4 12 -6 63v23q0 10 -22 43l-21.5 21.5t-36 33.5t-41.5 35q-8 4 -24 8h-49l-35 2h-2q-29 0 -41 -29 q-29 -43 -29 -71q0 -16 2 -31q0 -2 1 -8t1 -8v-17q0 -23 -2 -37q-2 -27 -2 -45v-57l-4 -53q-6 -31 -6 -35z" />
<glyph unicode="Q" horiz-adv-x="1484" d="M86 705q0 59 10 126q2 6 2 12.5t2 12.5q4 12 4 23q0 16 29 75l-2 -2q20 74 37 111q37 78 141 178q31 29 56 45l47 27q20 16 114 73q87 23 185 23q16 0 98 -10h-2q61 0 102 -2q2 0 6.5 -2t11.5 -4t13 -5q53 -20 76 -26q10 -4 28.5 -8t26.5 -6q4 -2 39 -27q41 -41 49 -47 l6 -6q6 -8 22.5 -24.5l33.5 -33.5l26 -28h-2q27 -27 64 -70q39 -51 55 -88l20 -53q55 -133 56 -211q0 -145 -15 -219l-8 -39q-4 -29 -37 -92l-12 -25v2q-18 -45 -27 -57v2l-14 -27l-24 -37l2 2l-11 -18l-18 -19l-21 -22l-14 -8l4 4q-14 -14 -30.5 -29.5t-24.5 -25t-12 -11.5 h4q18 0 82 47q27 18 59 19h29q25 -2 45 -2h6q10 2 27 2q61 0 61 -76h-39q10 -2 23.5 -14.5t11.5 -26.5q-2 -25 -14 -68q-10 -20 -50 -28q-27 -8 -61 -8h-14q-27 0 -41 2h-7l-6 2q-8 0 -28 -4q-14 -2 -37 -2h-25q-6 0 -14 1t-10 1q-18 0 -27 -2q-51 -8 -72 -9q-35 0 -84 15 l-2 2q-4 0 -43 -13q-12 -4 -14 -4q0 -2 -2 -4l-84 13l-47 -11l-55 -4l-74 -6q-63 0 -189 70h2q-2 2 -17 7t-21 9q-43 25 -101 68q-88 80 -117 129q-82 139 -104 182q-25 47 -29 102l-8 76q-6 61 -6 101zM326 575q0 -76 41 -157l20 -41q41 -84 125 -154h-2q31 -23 106 -59 l46 -21q2 0 10 -3t22.5 -7t30.5 -10v2l45 -14h-4l22 -2h33q8 0 33 8q6 0 31 6q39 6 57 18h-2q139 96 152 154q63 135 73 213q12 80 13 242q0 37 -19 114q-2 80 -78 195q-27 41 -61 80q-12 14 -72 69q-23 20 -43 27l4 -2l-30 8h2h-2l-2 2l-13 4q-14 4 -20 6q-31 11 -51 11 h-58q-47 0 -59 -2h-6q-23 0 -115 -72q-25 -20 -41 -37q-4 -4 -13 -11t-14 -12q-31 -41 -47 -65q-2 -2 -16 -20.5t-23 -32.5l2 2q-2 -2 -2 -6t-2 -7q-12 -33 -20 -57q-27 -76 -33 -123q-4 -23 -8 -59l-6 -37v4zM909 1397h2h-2z" />
<glyph unicode="R" horiz-adv-x="987" d="M80 55q0 29 29 51q37 31 47 44q33 47 34 55q6 20 7 51l2 174q0 27 2 68t2 47v6q0 18 -2 45q-2 35 -2 115l2 80q0 20 7 45.5t15 41t10 17.5h-36v94l-2 17q0 8 -1 23t-1 22q0 27 -3 34q0 14 -14 78q-4 31 -8 43l2 -2q0 2 -3 10.5t-5 12.5l2 -4q-2 14 -31 32v-2 q-39 27 -39 52q0 29 15 43q16 16 53 16h55q37 0 80 4l55 -6q41 -4 51 -4q12 0 19 2q43 6 65 6q41 0 109 -10q4 -2 6 -2t7 -1t7 -1q84 -8 103 -21q113 -84 143 -139h-2q23 -37 37 -84l-2 2l14 -35q18 -35 19 -94q0 -74 -37 -154q-8 -16 -51 -82q-8 -10 -76 -49 q-29 -16 -35 -32l4 -2q27 -23 51 -54q12 -31 27 -90q6 -41 25 -72q12 -37 20 -69l8 -51q6 -68 31 -115q4 -8 12 -10q8 -4 27 -8q12 0 22 -5l-4 2q57 -2 58 -61q0 -23 -19 -49q-6 -10 -69 -43q-104 -51 -140 -51q-33 0 -59 39q0 12 -16 59q-12 37 -21 59l-12 35l2 -4 q-4 10 -6 31q-2 10 -6 39l-19 75l-16 101l-11 47v-2q-20 74 -34.5 96.5t-63.5 54.5v-2q-33 18 -76 19q-14 0 -28.5 -14.5t-14.5 -28.5l2 -72q0 -6 -2 -12q0 -2 -1 -13.5t-1 -17.5q-4 -39 -6 -86l-6 -65q4 -78 25 -172l-2 4q8 -20 28 -29q86 -41 86 -80t-39 -45q-8 -2 -36 -2 q-2 0 -13.5 -1t-17.5 -1l-64 2h-41l-37 6l-32 4q-6 0 -41 -10h-72q-51 0 -51 55zM356 975q10 -2 24.5 -14.5t16.5 -28.5v-29q0 -55 -2 -69v-5q0 -16 4 -49v2q6 -35 9 -39h55h65q18 0 54 23q63 41 86 72q20 33 28 73q2 10 3 19.5t3 15.5q4 12 5 17q0 16 -11 71q-8 35 -10 43 q-8 47 -61 94q-23 31 -47 56q-29 20 -60 20v35q-12 -37 -33 -39l-51 -10q-14 -10 -28 -68v2l-3 -8q-2 -6 -4 -14t-4 -14.5t-3 -12.5t-1 -8v-2l4 -55v-78h-39z" />
<glyph unicode="S" horiz-adv-x="1024" d="M78 338q0 123 55 123q27 0 39 -29l39 -113v3l10 -21q2 -6 25 -47l-2 2q4 -4 8 -16q16 -16 27 -23q2 -2 8 -7t10 -9l39 -35q25 -23 59 -45q6 -4 11.5 -8t9.5 -7.5t7 -5.5t5 -2l2 -2q37 -14 39 -14l57 8q61 2 86 12.5t52 38.5q35 35 47 54q6 8 14 22l6 12q4 8 10.5 15.5 t6.5 9.5q16 45 16 68q0 170 -186 231l-58 29l2 -2l-137 36l-39 23h2q-6 4 -34.5 20.5t-49.5 28.5h2l-16 8l-10.5 10.5t-22.5 23.5t-27 30q-53 61 -67 94q-12 29 -19 51l-2 37q-2 27 -2 62q0 8 -2 18v10q0 47 27 107q16 41 51 84q18 29 109 98l39 27l30 16q84 43 166 43 q106 0 129 -2q43 -2 146 -41q25 -4 65 -35q29 -35 45 -108q25 -98 25 -127v-19l6 -41q0 -43 -39 -43q-29 0 -51 23q-10 10 -35 76v-3q-12 20 -37 46l-47 32l-25 21l-18 14q-55 57 -68 68q-18 12 -49 12q-6 0 -53 -6q-70 -10 -72 -12q-25 -8 -45 -37q-47 -53 -55 -66l2 2 q-18 -37 -22 -53q-6 -31 -7 -43q0 -33 25 -96q18 -45 96 -86q12 -8 72 -23l27 -4q10 -2 23 -7t21.5 -8t14.5 -3h2q2 0 6 -1t6 -1q29 -8 74 -37h-2q33 -14 61 -29q29 -18 58 -41q84 -72 108 -115l35 -69q2 -2 4 -8.5t5 -11.5t5 -9t7.5 -13t7.5 -14q10 -76 10 -133l2 -45v-6 q0 -84 -74 -170v2q-31 -33 -84 -84q-12 -12 -71 -47q-57 -33 -78 -37q-31 -8 -70 -8h-14l-113 4h-49l-37 2l-63 17l-133 26q-88 27 -97 90l-8 52q-8 47 -10 96q0 29 -2 61q-2 14 -2 29z" />
<glyph unicode="T" horiz-adv-x="1017" d="M31 1346q10 29 45 28q8 0 16 -4h-6h10q92 -22 138 -22h4q12 2 22 4q4 0 18.5 2t26.5 4q86 0 148 8q4 0 10 1t8 1h-4q10 2 22 2v-18l3 18q12 -2 38 -6h-2l121 -16q41 -4 51 -5h17q6 0 22 3h-2q18 4 68 8h14q59 6 74 8q12 0 22 4q6 2 13 4q8 2 14 4q31 10 53 10 q53 0 54 -45q0 -10 -17 -53l-8 -20q-16 -39 -29 -105q-10 -68 -34 -121q-14 -25 -50 -24q-45 0 -47 63q-2 53 -30 78v-2q-14 8 -60 12q-8 0 -20 7l2 -3q-39 6 -51 11q-6 2 -11 2q-14 0 -28 -8q-2 0 -23 -33q-20 -35 -20 -43v-4l2 -58v2l6 -47v-26l2 -39q0 -59 -2 -88 q-2 -31 -37 -37h33v-178l2 -66q0 -10 -2 -20v2q-8 -59 -9 -103l11 -106v-115q0 -102 86 -123q8 -2 23.5 -27.5t15.5 -31.5q0 -45 -62 -45h-30q-84 4 -127 10q-10 0 -50 -8q-25 -4 -43 -4q-12 0 -69 6q-6 2 -13 2q-4 0 -24 -4q-16 -4 -29 -4q-41 0 -41 39q0 29 31 53 q4 2 13 6t12 4h-3q63 29 78 70q14 37 21 135v92l-4 139v23l2 98l2 41q0 45 2 74q2 31 2 47q0 6 -2 20v-2q-2 8 -2 56q0 6 -1 24.5t-1 28.5v35l2 112q0 10 -8 41l-7 27l-6 23h-28q-20 0 -41 6q-23 10 -35 10q-49 0 -80 -25q-18 -14 -35 -39v2q-2 -8 -26 -77q-18 -47 -66 -47 q-39 0 -39 47l2 163q0 -2 -2 0q-6 41 -10 84q-6 41 -6 48z" />
<glyph unicode="U" horiz-adv-x="1386" d="M78 1311q0 49 67 49l48 2h26q8 -2 12 -2q27 0 58 2h61q39 0 56 2h-3q12 2 68 2l76 2q76 0 76 -59q0 -23 -15 -43q-16 -16 -61 -29v2q-66 -20 -90 -72q-14 -37 -15 -84q-2 -18 -2 -53t2 -53l4 -43q0 -6 1.5 -17.5t1.5 -15.5q0 -16 2 -24v-11q-2 -10 -2 -16 q0 -4 -1.5 -18.5t-1.5 -22.5v-25q-2 -8 -3 -23.5t-1 -23.5q-4 -25 -4 -28.5t1 -12t2 -26t1 -31.5q4 -31 7 -74v-63l-3 -37q-2 -20 -2 -59q0 -78 19 -111q10 -20 24.5 -46t21.5 -39t11 -22v2q6 -8 51 -32h-2q10 -4 60 -39q12 -10 22 -10q14 0 76 12l-4 -2q8 4 18 4l97 -4 q33 4 92 28h-2q70 43 76 54q2 2 28 45q2 2 7 11t8 15q37 68 38 74v-2q0 20 7 94l8 109v-2l8 182l-4 49l-2 109v12l2 45q-2 2 -2 4q-2 14 -6 51q0 12 -13 37q-12 31 -20 113q-2 14 2 16h-2l-49 37q-4 4 -41 53l2 -4q-35 27 -39 29q-41 25 -41 49q0 41 72 41q31 0 88 -8 q25 -4 55 -4q2 0 7 1t9 1q14 2 43 2h86l56 2h6q49 0 49 -47q0 -31 -57 -86l-21 -10q-27 -10 -28 -13l4 2q-12 -12 -33 -59q-10 -25 -10 -57q0 -10 2 -31q2 -23 2 -66l4 -188l-4 -45v-39l-4 -53v2l-2 -133q0 -8 6 -76q2 -12 2 -27q0 -35 -13 -94q-8 -31 -8 -35l-2 -4v-6 l-8 -41l-6 -16v2q0 -2 -3 -11.5t-5 -15.5v2q-27 -72 -56 -104q-96 -109 -178 -127l-6 -2h-6q-25 -6 -39 -9l2 2q-29 -6 -92 -8q-57 -6 -84 -6q-84 0 -139 17q-160 47 -185 61h2q-45 20 -98 88q-10 10 -20 27v-2q-39 41 -54 84q-24 71 -24 149v6v15l2 53l-4 67v-2l-8 45 q0 47 -2 76q0 14 -1.5 40t-1.5 32q0 117 17 176v-6l2 2v4v10l-14 111l2 8v10q0 2 1 10.5t1 14.5v28q0 135 -62 166q-41 18 -49 33q-10 8 -10 25z" />
<glyph unicode="V" horiz-adv-x="1175" d="M12 1321q0 55 68 57l59 -4q12 0 27.5 -1t35 -3t29.5 -2q29 -2 45 -2q23 0 89 8l30 -4q23 4 47 4q88 0 88 -51q0 -23 -43 -53q-76 -57 -75 -78l2 -29q0 -66 6 -94l-2 4q23 -59 24 -67h-2l29 -91v3l35 -70l12 -47l-2 2q45 -98 51 -125q2 -10 13 -78l18 -49l29 -68l20 -49 q16 -43 17 -45q0 2 20 53v-2l10 31l-2 -4q8 27 23 59l-2 -2l18 66q2 8 5 16t6 19.5t5 19.5l29 92v-2q2 4 7 14.5t15.5 31t18.5 36.5v-4l21 59l28 60v-2l13 47l26 59l-2 -4l10 51l11 39q16 66 16 74q0 14 -47 49q-57 45 -57 86q0 43 49 43q29 0 39 -2h-2q88 -12 104 -12 q4 0 12 2q78 10 111 10q57 0 57 -61q0 -25 -12 -43q-6 -6 -49 -25q-16 -6 -41 -45q0 -4 -27 -68v3q-10 -31 -16 -41l-47 -101v2l-37 -112q-37 -76 -55 -142h2q-20 -59 -48 -123l-20 -53q-25 -57 -49 -119q-10 -37 -31 -82l-35 -92v2l-32 -92q-37 -117 -68 -178 q-18 -33 -51 -33q-23 0 -37 21q-10 18 -21 65h2l-6 19q-16 63 -53 139l-10 37l-17 53l-12 47l-37 121q-16 82 -20 92q-6 20 -53 127q-10 23 -35 80q-2 16 -10 39v-2q0 2 -4.5 9t-4.5 9q-29 109 -80 228q-2 4 -15 27.5t-25 47.5q-4 10 -17 29q-4 6 -16.5 28.5t-22.5 39.5v-2 q-14 14 -39 34q-2 2 -8 6.5t-8 6.5v-2q-27 27 -27 53z" />
<glyph unicode="W" horiz-adv-x="1636" d="M12 1323q0 55 62 55q29 0 139 -4q18 -2 36.5 -2t33.5 2l26 2q137 0 148 -8h-2q41 -18 41 -76q0 -31 -13 -43l-32 -37l2 2q-25 -31 -25 -102q0 -76 25 -154q8 -39 88 -213l28 -94h-2l47 -129l15 -63h-2q23 -68 30 -82v2q2 -6 7 -6q10 0 30 76q16 43 21 49q12 16 35 92 q41 104 41 127q0 49 -74 194q-20 39 -45 125q-4 16 -33 90q-31 74 -51 109h2q-4 4 -45 25h2q-25 12 -25 55q0 61 64 61h6l137 -6h117q39 0 49 -39q2 2 6 10q14 33 49 33h21q6 0 16 -1t14 -1h50q41 2 104 2q74 0 74 -63q0 -27 -21 -47q-18 -18 -51 -41q-29 -18 -80 -109 q-2 -2 -9 -13t-11 -20l-5 -10t-5 -8q-10 -33 -25 -96q-4 -14 -12 -31q-2 -4 -6.5 -14.5t-8.5 -16.5q-4 -12 -4 -16t6 -31q4 -8 8.5 -23.5t6.5 -21.5q20 -61 24 -78q0 -2 10.5 -41t16.5 -59q4 -20 8 -31v2q20 -39 51 -135l4 -22q14 -76 19 -76q6 14 16 45q29 80 45 145l23 80 v-4v6l2 4q8 33 33 107q18 43 32 73l2 9q4 8 8.5 22t10.5 31q4 12 12 41l17 53v-2l12 51l16 86q0 23 -22 60q-2 4 -7.5 10t-9.5 12l-14 29q-8 12 -12 22l-27 19q-14 16 -14 43q0 20 17.5 40.5t35.5 20.5h4q111 -12 129 -12q80 0 86 2h49q78 0 78 -61q0 -25 -22 -41l-50 -31h2 q-35 -25 -59 -86v2q0 -2 -3 -7t-4 -10.5t-1 -7.5q-31 -68 -49 -110l2 2q-4 -14 -21.5 -70.5t-29.5 -101.5q-4 -14 -39 -113h2q-43 -131 -99 -287h2q-6 -23 -33.5 -111.5t-45.5 -156.5q-16 -70 -23 -110v2q-12 -100 -72 -101q-29 0 -45 23q-18 43 -30 76l-23 69l-25 72v-4 l-32 61l-13 37l-22 43l-19 66l3 -2q-39 94 -50 137q-6 16 -6 22q0 -2 -2 -6l-5 -10t-5 -12q-16 -43 -29 -76l-26 -66l2 2l-41 -151q-70 -174 -74 -201q-16 -72 -55 -72q-12 0 -40 30t-32 44v-2l-16 53l2 -2l-19 49l-41 121v-2l-51 123l-22 70h2l-21 45l-29 92l2 -2l-34 82 l-41 125v-2l-41 102l-15 51q-12 51 -32 107l-13 24q-43 92 -69 129q-31 25 -51 33q-53 29 -54 78zM842 1217q0 -16 37 -121q14 -27 34 -27q8 0 17 8l-2 -2q0 4 2 10q20 49 22 76v10q2 14 2 35t-10 31l-31 10q-16 4 -22 13q-4 -6 -10 -11l4 2l-41 -26q-2 -2 -2 -8zM1047 1063 l2 6v-2q-2 -2 -2 -4zM1264 756q0 14 4 14q-4 -8 -4 -14z" />
<glyph unicode="X" horiz-adv-x="1124" d="M6 57q0 20 19 43q4 6 65 33l25 17q4 4 13 17t19.5 26.5t22.5 29.5l41 51q6 6 43 56q6 18 39 71l-2 -8q0 6 14 25q0 2 14.5 21.5t24.5 35.5l-2 -2q18 39 23 43q6 10 10 19q0 2 12 22l39 55v-2q14 27 14 66q0 8 -8 33v-2q-2 6 -31 41q-12 14 -16 32l-27 76q-12 31 -41 66 l-43 79l-24 50q-8 12 -22.5 39.5t-22.5 42.5q-4 12 -10 28l-5 13l7 -3q-10 6 -17 9q-2 2 -9 5t-14 7t-14 6h2q-20 10 -43 41l-16 18l-23 23q-10 25 -10 35q0 47 66 47h10q12 0 25 2q41 2 96 2q16 0 43 -2l47 -4l33 -4q45 -6 123 -10q39 0 39 -72q0 -23 -13 -41l-12 -12 q-23 -27 -35 -37q-14 -12 -14 -47q0 -14 8 -43l2 -4q2 -2 6 -10.5t11.5 -20.5t15.5 -29.5t18 -38.5l17 -47v4q29 -55 39 -65.5t28 -10.5q10 0 27 17q0 4 8 12l10 10q8 6 74 101l20 26l-2 -4q12 23 37 56q43 53 45 59q8 23 9 47q0 27 -17 41h2q-2 2 -43 8q-39 6 -39 51 q0 53 49 54h5l73 -2q4 2 17 2q2 0 4 2q43 8 82 8h4q2 -2 6 -2q2 0 9 -1t13 -1q57 0 84 -2q74 -2 74 -60q0 -29 -35 -47q-2 -2 -47 -20q-76 -23 -198 -215h2q-8 -12 -56 -82q-14 -14 -28 -39q-2 -4 -5.5 -8t-5.5 -9q-4 -6 -14 -17t-14 -15q-20 -25 -33 -37q-35 -41 -35 -60 q0 -14 8 -30l45 -94h-2q20 -31 54 -132q4 -6 9 -14t13 -20.5t16 -22.5h-2l52 -82l18 -33q2 -4 13.5 -25.5t21.5 -39.5q10 -20 49 -51q18 -14 78 -74q55 -51 55 -76q0 -49 -49 -49l-41 2l-27 -2h-104l-59 4q-4 0 -9 -2h-18q-23 0 -90 12q-4 2 -12 2q-12 0 -25 5l4 -3 q-68 4 -68 52q0 23 17 39q6 6 53 41q12 8 12 26q0 20 -2 37v-2q-8 39 -24 63l-37 62v-2q-12 20 -19 37q-16 53 -34 76l-49 73l-3 2q-20 -14 -40 -43l-17 -22l-24 -35l-13 -16l2 2q-37 -70 -86 -138q-26 -32 -26 -61q0 -47 45 -98q45 -55 45 -76q0 -31 -33 -37l2 2 q-10 -4 -51 -4h-29q-41 0 -67 8q-25 8 -31 8q-10 0 -47 -4t-41 -4l-25 -2q-2 0 -12 -1t-14 -1h-7q-57 0 -57 55z" />
<glyph unicode="Y" horiz-adv-x="1120" d="M12 1321q0 14 15 29q6 8 90 12q59 6 67 6q14 0 62 -8h-4q18 0 32 2q29 4 41 4l7 -2h12q4 0 14 -1t17 -1q4 -2 41 -2q77 0 77 -50q0 -21 -20 -40l-31 -35q-10 -14 -10 -29q0 -29 59 -114q35 -57 45 -68l37 -37q18 -18 37 -55h-2l31 -49l18 -39q43 0 127 170q14 37 23 51 l51 65q20 20 20 44q0 20 -16 47q-6 2 -8 8q-8 6 -15 18l-2 2q-4 4 -15 11.5t-17 11.5h2q-16 10 -17 37q0 51 78 51h21q6 0 16 -1t14 -1q14 -2 29 -2h4q4 2 13.5 3t19.5 3t30.5 2t79.5 -8q74 -12 74 -56v-4q0 -23 -12 -34t-76 -45q-29 -16 -63 -60l-4 -6q-6 -8 -41 -43 q-8 -10 -45 -84l-29 -43v2l-23 -37l-14 -18l-10 -15l-19 -30l-57 -86q-23 -25 -39 -58v2q-8 -27 -8 -82v-151q-6 -53 -6 -55v-2q2 -4 3 -9.5t1 -9.5q2 -12 2 -39v-6l-2 -90l-2 -61v-13q0 -43 12 -67q14 -29 55 -64h-2q43 -33 43 -61q0 -35 -32 -35h-5l-38 2q-10 -2 -46 -2 l-94 4q-4 0 -10 -2q-4 0 -12 -1t-11 -1q-16 -2 -36 -2q-16 0 -27 2h2q-20 2 -33 2l-28 -2h-54q-57 0 -57 39q0 31 27 43l43 20h-2q10 4 53 70q29 31 29 51v8q-2 18 -3 35l7 119q0 33 6 90q0 6 2 14l-8 105q-4 37 -7 76l-4 6q-4 6 -16 27.5t-25 41.5q-6 12 -22 40t-25 44 q-12 20 -18 33q-25 33 -41 53q-35 41 -53 78q-10 18 -37 66l2 -4q-2 2 -5 6l-3 4q-47 76 -56 84l-41 39l-34 39v-2l-29 26h4q-55 35 -59 39q-14 14 -15 35z" />
<glyph unicode="Z" horiz-adv-x="978" d="M66 53q0 51 32 99l-2 -2q49 82 90 163q12 18 56 90v-2l8 21l26 39l-2 -2l11 24q2 2 6 9l2 2q6 8 16 30.5t17 30.5q0 14 6 16q2 4 5 8.5t5 6.5l2 4q25 33 31 59q16 23 86 199l37 78q8 8 37 53v4l32 49h-2q27 47 56 111q18 27 18 51q0 27 -10 29q-8 4 -25 4q-2 0 -10 1 t-14 1l-74 4h-45l-29 4h-8q-86 0 -168 -43q-23 -12 -35 -43q-10 -20 -20 -55q-16 -37 -47 -37q-18 0 -31.5 14t-13.5 29v6l4 37l-2 47q0 6 4 39q0 6 2 20.5t2 16.5v2q-2 14 -2 43q0 4 -2 10v6q0 47 43 47q10 0 61 -12q12 -4 17 -4q4 2 10 2q4 0 25.5 2t37.5 4h-2q8 4 25 4 q6 0 39 -4q2 0 7 -1t11 -3t10 -2q33 -8 68 -8q14 0 78 8l127 4q8 0 16 -2q6 0 16.5 -1t14.5 -1q16 -2 35 -2q2 0 8 1t12 1q29 0 49 2h37q84 0 84 -61q0 -35 -65 -144q-51 -84 -62 -108q-12 -31 -14 -35q-37 -74 -98 -219q-12 -23 -29 -58v2l-29 -57l-29 -49v2l-24 -62 q-4 -12 -12 -30l-31 -62q-8 -18 -49 -71l-17 -31v2l-12 -25l-53 -125l-10 -20q-8 -18 -9 -39q0 -27 9 -35v2q14 -18 184 -18q74 0 137 22q25 10 29 17q2 2 6 8l-2 -2l14 22q8 12 33 37l10 11q6 16 8 51q8 45 54 45q51 0 51 -64v-14q0 -6 -1 -15.5t-1 -13.5v-45l-4 -39v-12 q-6 -76 -8 -98q-8 -33 -31 -33l-51 4h-2q-8 0 -29 -4q-10 -2 -27 -2q-31 0 -37 -2q-16 0 -34 -2q-2 0 -10.5 1t-14.5 1q-2 0 -12 1t-17 1q-18 2 -116 2q-25 0 -97 -8h-32l-25 -2q-6 4 -47 6l-25 6q-29 10 -104 10q-16 0 -57 -8h-11q-6 -4 -18 -4q-57 0 -57 53zM535 983l2 2z " />
<glyph unicode="[" horiz-adv-x="552" d="M137 -27q0 59 6 103q10 76 11 102h34q-2 0 -11 12.5t-19.5 35t-10.5 40.5v6q6 51 7 64q0 6 -7 74q-2 14 -2 34q0 31 7 91q2 12 2 22l-4 156v-4q0 6 -1.5 17t-3.5 15q-6 45 -6 60q0 18 8 82q2 10 3 49q0 47 -3 84l-2 57v-4q-2 8 -2 29q0 4 -1 11t-1 11v25q0 39 21 147 q2 4 2 27q0 4 1 15.5t1 17.5q0 61 88 61h6q6 -2 10 -2t14.5 -1t18.5 -1l35 2q27 -6 31 -6q6 0 41 8l45 2l4 2h8h-2q10 2 29 2q59 0 61 -57v-8q0 -47 -37 -47l-49 2v-2q-18 0 -31 -2q-2 0 -10 -1t-12 -1q-35 -4 -56 -89v3q-16 -72 -16 -125q0 -4 1 -16.5t2 -35t1 -47.5 l-6 -112l2 -103v-71q-2 -33 -2 -58q0 -14 4 -63v-8l-6 -78v-8l6 -84v-19q-8 -78 -8 -86q4 -39 6 -80v-49q8 -57 10 -88q10 -90 35 -109q16 -12 23 -12h41q82 -2 82 -61q0 -43 -39 -43h-7l-40 4l-39 -8q-12 0 -21 4l2 -2q-25 8 -45 8q-16 0 -33 -2q-4 0 -14 -1t-16 -1 q-16 -2 -52 -2q-55 0 -75 28q-18 29 -19 84z" />
<glyph unicode="\" horiz-adv-x="833" d="M33 1380q0 52 61 52q27 0 49 -17q18 -18 41 -67q0 -2 2 -5q16 -33 33 -67q-4 14 4 -2q23 -43 25 -45l-2 2q2 -2 5 -10.5t5 -10.5q12 -23 39 -108l-2 2l39 -82l12 -39q53 -88 62 -102q12 -20 61 -131q12 -31 31 -60l22 -67l31 -45v-5q2 -2 35 -57q2 -4 47 -106l53 -101 l23 -65v2q20 -39 47 -76l20 -51v2l12 -27q10 -23 21 -39l16 -30q16 -23 17 -41q0 -43 -60 -43q-39 0 -53 14q-8 6 -43 86q-8 16 -55 80l-15 24l-14 45q-31 43 -37 62l-10 27q-2 4 -8 24.5t-10 32.5l2 -4l-29 28l-23 41l-8 15l-14 28q0 2 -3 12.5t-6 23t-5 20.5 q-25 39 -31 53q-16 29 -53 123v2q-10 20 -15 27q-27 43 -65 129q-47 94 -101 186h2q-14 29 -38 102l2 -2q-14 33 -37 76q-8 18 -43 90q-39 78 -39 94z" />
<glyph unicode="]" horiz-adv-x="552" d="M35 -90q0 59 57 59q6 0 14 -2l9 -2h2h-2l30 4q39 4 41 6q27 14 35 54q23 68 23 125q0 8 -2 14q-2 27 -2 80q0 37 8 94v-2q0 2 2 8v6q2 8 2 15q0 20 -6 65q-2 20 -2 55t2 60v-2q0 4 1 17.5t1 19.5q2 20 2 37q0 27 -2 45q0 4 -1 13t-1 13q0 6 -1 15.5t-1 13.5q-2 18 -2 43 l-2 98q14 78 14 101q-4 41 -4 77l-2 76v-4l-8 43v66q0 12 -15 57v-2q-6 10 -32 24q-12 6 -17 7h-31q-90 4 -90 61q0 47 39 47h6l37 -4q31 8 43 8q10 0 49 -8q10 -2 21 -2h10q49 6 55 6q68 0 84 -4q53 -25 54 -108q0 -55 -2 -89q-10 -188 -11 -229v-49q0 -10 9 -82l-3 2 q2 -12 3 -43v-51v2l-7 -84q0 -33 2 -53q0 -4 1 -9.5t1 -7.5l5 -71q-4 -123 -9 -144q0 -27 -2 -61l-2 -25l4 -43l-2 -30l4 -70v-107l-6 -26q-6 -27 -12 -70q0 -53 -10 -67h2q-14 -20 -56 -31l3 2q-8 -4 -21 -4l-4 -2h-6q-10 0 -55 4q-6 0 -21.5 2t-26 3t-14.5 1l-39 -10 l-88 -4h-6q-49 0 -49 53z" />
<glyph unicode="^" horiz-adv-x="987" d="M-63 559l571 848h31l553 -848h-119l-393 596l-404 -596h-239z" />
<glyph unicode="_" horiz-adv-x="985" d="M0 -92h1024v-86h-1024v86z" />
<glyph unicode="`" horiz-adv-x="894" d="M256 836q0 35 27.5 63.5t60.5 28.5q20 0 43 -15l-2 2q4 -2 78 -75q4 -6 14 -13q4 -4 13.5 -11t13.5 -9q39 -33 39 -62q0 -35 -35 -34q-8 0 -72 24l2 -2l-73 21l-17 6q-12 6 -16 6h2q-4 0 -51 18q-27 14 -27 52z" />
<glyph unicode="a" d="M51 166q0 8 4 18v25q0 2 1 12t1 17q2 37 27 73q43 57 137 107l12 4q55 25 64 27q37 12 68 38q23 29 22 48q0 6 -29 59l2 -2q-24 27 -30 31h-21l-24 -5l-6 -8l-5 -8q-6 -6 -10 -8q-18 -18 -39 -33q-31 -23 -49 -22q-53 0 -53 63q0 57 45 94l-2 -2q10 10 70 33l-3 -2l23 12 q31 16 59 17q80 0 109 -13q53 -20 102 -96q25 -37 25 -90v-12q0 -4 -1 -12.5t-1 -10.5l-2 -252q0 -31 2 -53q6 -25 31 -51q10 -12 12 -12l39 -17q10 -10 10 -24q0 -20 -35 -62q-46 -65 -100 -65h-2q-23 0 -47 12l-27 20l-4 2q-4 2 -4 5q-4 4 -8 6l-6 4q2 -2 -9 -6h2 q-86 -43 -153 -43q-90 0 -162 71q-20 20 -25 54q-2 6 -2 14l-2 4v4q-2 8 -3 16.5t-2 12.5t-1 6zM233 201q0 -29 21 -45q37 -29 80 -29t51 82q0 14 2 27v-3q0 4 2 16.5t3 25t3 24.5q2 14 2 25l-2 38q0 2 -1 8.5t-1 10.5q0 10 -2 14q-14 -4 -39 -28q-6 -2 -18 -15 q-49 -39 -53 -45q-47 -59 -48 -106z" />
<glyph unicode="b" horiz-adv-x="821" d="M39 1200q0 35 63 62q76 25 131 75q23 16 54 17q53 0 53 -58q0 -8 -2 -14l-2 -6v-6q-20 -88 -21 -117v-10l2 -84v-12q-2 -10 -2 -48q0 -33 7 -147q2 -25 2 -51v-78l4 6v-2q0 2 2 2t4 2q27 23 76 33l26 2h64q66 0 145 -68q141 -115 152 -245l8 -138q0 -137 -111 -249 q-88 -84 -235 -84q-61 0 -101 32q-16 12 -22 19q-4 -4 -25 -21q-14 -12 -28 -12l-70 2q-16 0 -31 -2h-37q-67 0 -67 42q0 17 20 42l19.5 19.5t15.5 16.5t8 9q4 37 4 59l-4 121q0 43 6 172q2 14 3 33q0 33 -7 119q-2 23 -2 51q0 16 4 74q2 27 2 65q0 82 -8 140q-2 14 -4 33.5 t-2 23.5v8q-6 53 -10 66l2 -2q-10 31 -8 32h-8q-8 4 -13 9q-6 0 -18 6q-39 20 -39 61zM141 131l2 2zM319 338q0 -12 1.5 -27.5t1.5 -19.5q0 -23 6 -66v2q14 -35 37 -63l38 -53l15 -9l31 -2q2 0 10 -1t14 -1q6 -2 19 -2q66 0 102 76q29 68 29 147q0 133 -54 209 q-20 31 -53 41q-14 8 -59 19h4l-45 4q-16 2 -45 6q-20 -4 -39 -31q-8 -10 -8 -45v-47q0 -41 -2 -65q-2 -12 -3 -23v-49z" />
<glyph unicode="c" horiz-adv-x="649" d="M53 395q0 131 84 232v-2q45 53 84 77q68 44 150 48h41q61 0 84 -2q74 -2 125 -74q24 -36 24 -71q0 -32 -22.5 -57.5t-49.5 -25.5q-63 0 -129 84q-23 29 -38 29q-14 2 -72 6q-31 -6 -66 -55q-26 -38 -26 -140v-8v-18q0 -4 1 -9.5t1 -7.5v-49q8 -14 20 -43q2 -6 7 -15 t8.5 -15.5t3.5 -10.5l6 -14q23 -53 51 -92q12 -18 43 -37q25 -18 43 -19h29q59 4 106 27l-2 -2q33 18 43 19q29 0 29 -29q0 -18 -31 -43q-2 -2 -26.5 -20.5t-43 -32t-42 -26.5t-35.5 -13q-123 0 -183 28q-29 14 -77 47q-25 25 -60 72q-20 27 -49 80q-6 12 -12 74 q-18 80 -19 108z" />
<glyph unicode="d" horiz-adv-x="782" d="M53 322q0 233 101 340q47 55 165 83h-2q2 0 14.5 3.5t20.5 5.5l37 8q61 0 105 -49v10q-2 10 -2 33l4 55v-2l2 43q0 27 4 68q2 18 2 32q0 4 -1 15.5t-1 17.5q-2 16 -2 49v62q0 18 -13 32l-45 29q-18 12 -18 43q0 29 31 53q6 0 39 23q31 10 84 43l-3 -2q41 31 76 31 q57 0 58 -56q0 -14 -4 -35q-8 -29 -13 -96q-4 -27 -12 -92q-2 -4 -2 -12q0 -43 2 -72q4 -53 4 -72q0 -2 -1 -10t-1 -14q-2 -16 -2 -45l-2 -82l-2 -569q0 -14 4 -31l-2 2l20 -35l15 -31l-2 2q23 -37 22 -57q0 -49 -65 -49q-18 0 -33 2h-8l-6 2q-4 2 -11 2q-2 0 -8 -1t-10 -1 h-19q-45 0 -65 20l-14 23l-37 -18q-33 -16 -49 -21l-35 -2h2l-43 -8q-29 0 -72 14q-35 10 -70 33q-33 31 -59 70l2 -3q-45 74 -51 95v-2q-29 51 -29 123zM221 299q0 -59 43 -125q31 -45 94 -45q76 0 107 61q31 59 31 101l-2 92q0 10 2 16l4 35l-6 55q-4 55 -9 60 q-26 24 -69 24q-49 0 -99 -16q-51 -20 -77 -80q-18 -39 -19 -178z" />
<glyph unicode="e" horiz-adv-x="626" d="M51 332q0 8 12 80q18 129 62 182v-4q23 37 63 90q80 72 170 72q117 0 217 -111q47 -53 48 -104q0 -88 -78 -88q-18 0 -29 2h-12l-8 2q-29 0 -52 -2q-2 0 -10 -1t-10 -1q-12 -2 -35 -3h-29q-31 0 -41 3h3q-55 6 -68 6q-33 0 -53 -21q-6 -4 -6 -24q0 -12 2 -31 q10 -76 12 -80q10 -25 67 -74q45 -39 64 -45v2q31 -10 59 -10q41 0 109 16q16 4 45 19q8 4 20 4q33 0 33 -35q0 -14 -10 -33q-4 -8 -4 -12h2q-10 -41 -37 -70q-2 -2 -11 -9t-18 -13q-10 -6 -63 -37q-39 -18 -121 -18q-20 0 -84 22l-20 10q-4 0 -11.5 3.5t-11.5 5.5l-6 2 q-33 23 -57 63q-35 47 -72 111q-31 98 -31 131zM211 27h2h-2zM236 565q0 -4 4 -8q37 -8 170 -8q31 0 30 8q0 29 -34 64q-29 22 -76 22t-76 -35q-18 -23 -18 -43z" />
<glyph unicode="f" horiz-adv-x="432" d="M23 55q0 43 51 51q16 6 49 27q8 8 10 12v-4l2 49l4 46l2 36v19q2 23 2 57v17q-4 25 -4 49q-2 14 -2 49l-2 43q0 31 8 96q0 70 -4 78q-8 12 -16 14l-57 -2q-31 6 -31 41q0 37 59 55v-2q37 16 37 23l-2 100q0 10 10 62v-2q2 8 7.5 30.5t7.5 32.5l4 19q2 29 37 131 q20 59 94 127q53 43 108 43q31 0 78 -29q39 -23 39 -90q0 -82 -65 -82q-29 0 -50 10q-18 8 -39 45q-2 8 -12 8q-18 0 -24 -32l-9 -49q-16 -98 -16 -105v-4l2 -47l2 -57v2l4 -45v-11q2 -8 3 -21.5t1 -21.5q6 -8 31 -14q88 -23 88 -72q0 -23 -12 -32q-10 -10 -88 -17 q-10 -4 -13 -18q-10 -53 -10 -109v-53v-43v-49v-25v-18q0 -51 10 -146q2 -16 11 -73q29 -55 96 -70q31 -6 31 -45q0 -33 -39 -39h-252q-141 0 -141 55z" />
<glyph unicode="g" horiz-adv-x="747" d="M53 -352q0 59 8 125q8 76 72 123q25 18 31 24v4l2 -2q-47 80 -47 193q0 31 4 41l31 43q-31 35 -37 61v-2q-33 59 -33 193q0 113 53 188q41 59 84 82q25 12 72 22q8 2 37 17q14 8 108 8q23 0 47 -4l78 -39h10q-6 0 7 6q35 35 57 35q37 0 61.5 -26.5t24.5 -61.5 q0 -23 -14 -51q-4 -4 -13 -17l-24 -24v-17q0 -14 4 -43l6 -53v-61q0 -55 -6 -84q-10 -43 -47 -90q-10 -18 -56 -48h2q-39 -29 -73 -47q-8 0 -49 -8q-12 -2 -33 -4t-27 -4t-16 -2h-21q-86 6 -98 6q-18 0 -18 -10q0 -23 57 -31l104 -14l99 2q14 0 57 -29h-4q63 -25 86 -43h-2 q51 -37 86 -108q8 -25 8 -78v-39v-31v-24l-2 -35q-2 -63 -22 -113q-33 -74 -107 -113l-4 -2l-8 -8v2q-2 -2 -8 -6q-106 -72 -197 -72q-115 0 -178 39q-59 39 -90 76q-61 80 -62 154zM217 -326q0 -68 27 -104q33 -57 141 -57q141 0 219 94q20 18 21 71q0 41 -29 78 q-29 35 -88 70l-19 10h3q-34 14 -46 14q-10 0 -18 -2q-16 -4 -31 -4q-6 0 -14 2q-4 0 -20.5 3.5t-28.5 5.5q-2 -2 -6 -2q-8 -4 -41 -37q-12 -12 -21 -19q-49 -47 -49 -123zM229 473q0 -72 13 -92l2 -4q2 -6 7 -16.5t9 -20.5q51 -94 86 -94q109 0 141 49q2 4 4.5 8t4.5 8 t5 10.5t5 10.5v-2q20 43 20 65q0 82 -24 150q-10 23 -31 41q-2 0 -4 1t-7 2t-14 3q-71 26 -79 26q-37 0 -76 -28l-2 -4q-2 -2 -5 -8.5t-8 -10.5l3 4q-2 -2 -5.5 -8t-5.5 -8q-39 -53 -39 -82z" />
<glyph unicode="h" horiz-adv-x="790" d="M53 1165q0 31 62 66q18 6 71 53v-2l13 14q2 2 10 9.5t12 11.5q41 41 65.5 41t49.5 -25q16 -16 16 -30q-18 -127 -18 -160v-86q2 -39 2 -88v-35l2 -55q-2 -6 -6 -39q-4 -41 -6 -47q-4 -25 -4 -45q0 -6 -3 -7q2 0 33 25q20 12 72 12q78 0 145 -41q49 -31 78 -65 q14 -20 31 -90q12 -51 16 -131q2 -20 6 -68l-2 4q4 -12 4 -16q0 -8 -4 -21l2 4q-2 -16 -2 -35l2 -63v-63q0 -43 5 -80q2 -6 20 -25h-2q41 -35 41 -59q0 -37 -55 -37q-16 0 -95 14q-12 4 -28 4q-8 0 -21 -4l-49 -8q-41 0 -41 39q0 27 17 51q20 31 28 68v-4q4 29 4 81v5 q2 6 2 10q8 90 8.5 104.5t-14.5 59.5q-8 45 -8 100v20q0 6 1 14.5t1 10.5q0 35 -27 68q-20 35 -49 34q-45 0 -76 -18q-33 -16 -32 -76v-6l6 -100l2 -84q-8 -49 -8 -62q0 -8 8 -77q2 -6 2 -17q0 -16 -1 -31.5t-3 -23.5v-6q0 -31 10 -58q0 2 3 0t9.5 -7t14.5 -13l-2 2 q32 -26 32 -51q0 -37 -49 -37q-25 0 -82 8q-27 0 -67 2l-23 2q-43 -8 -67 -8q-59 0 -60 37v4q0 16 7.5 23.5t52.5 35.5l-2 -2q10 6 16 23v4q0 2 1 6t1 8q14 43 14 74q0 18 -2 29q0 29 -2 67v96l4 21v-4l2 80l7 63v17q0 47 -13 143l2 27q0 43 2 96l2 61v21l-2 51v12q0 8 5 41 q-8 37 -19 64q-6 10 -4 10h2l-41 16l2 -2q-37 6 -37 45z" />
<glyph unicode="i" horiz-adv-x="376" d="M78 45q0 20 8 29q2 2 29 39q4 4 6 10l4 2v61l6 58l2 137q-2 23 -6 63v7q0 16 4 36v-2l2 21q2 6 2 20q0 2 1 8.5t1 10.5t-6 14q-10 10 -43 35q-6 25 -6 35q0 39 41 55q18 10 43 27q72 45 86 45q43 0 43 -62q0 -16 -6 -65l2 -17v-26q0 -35 -2 -58q0 -4 -1 -13t-1 -13 q0 -6 -1 -15.5t-1 -11.5v-51l4 -51v-150l4 -28q4 -59 20 -86q29 -51 29 -68q0 -47 -72 -47q-18 0 -32 2q-4 0 -9.5 1t-7.5 1q-12 2 -33 2h-10l-61 -6q-39 6 -39 51zM106 907q0 25 23 66q23 35 66 35q39 0 75 -27q37 -31 37 -80q0 -37 -31 -74q-27 -43 -63 -43q-31 0 -72 29 h2q-31 16 -30 49q-6 37 -7 45z" />
<glyph unicode="j" horiz-adv-x="387" d="M70 616q0 41 26 56q8 4 15 6q16 4 24 10l-2 -2l49 33q25 16 41 29q36 36 55 36h1q43 0 43 -55q0 -57 -31 -113l-4 -4l-2 -4l8 -67v-13q-6 -25 -6 -51q0 -55 6 -127l-2 4q4 -12 4 -22t-2 -19v2q-6 -70 -6 -202q0 -10 2 -21q0 -6 1 -18.5t1 -14.5l-17 -178l-2 -33l-2 -32 q-4 -16 -6 -37q-2 -6 -3 -18.5t-1 -18.5q-4 -14 -31 -64h2q-14 -29 -59 -90q-39 -47 -66 -47q-35 0 -34 43q0 31 24 80q8 12 15 60l6 18v-2q4 45 14 88l-4 37l4 43q-6 37 -6 45q0 10 6 61v90l2 68v125q0 20 -2 35q0 2 -1 10t-1 12q0 25 -2 68q0 6 -12 67q0 4 -3 23.5 t-6 30.5v-2q0 2 -3 5t-10 11t-13 16q-10 10 -10 43zM96 915q0 10 14.5 42t22.5 38q16 17 53 17q53 0 88 -41q23 -29 23 -64q0 -47 -47 -94q-31 -27 -49 -27q-31 0 -68 29q-18 10 -27 37v6q-2 6 -2 10l-2 4v11z" />
<glyph unicode="k" horiz-adv-x="800" d="M47 33q0 20 19 41l12 8l-2 -2q25 18 30 22q12 8 17 35l10 80l8 43v-2q0 2 1 8t1 10.5t1 16.5t1 18v15q2 14 2 32v11l-2 39l2 38q0 2 -1 9.5t-1 13.5v51q2 12 2 74l3 51q0 43 -3 74v115l3 47q0 6 1 17t1 15v7q0 12 -5 57q-2 80 -16 121v-2l-10 20q-29 14 -41 26.5 t-12 26.5q0 27 63 50v-2q10 6 51 22q29 12 47 21q39 25 60 45q25 27 45 26q37 0 37 -45q0 -33 -15 -61q-20 -41 -26 -68q-10 -72 -11 -133v-2q1 -41 3 -92v-37q0 -4 1 -15.5t1 -17.5t-1 -19.5t-1 -21.5q-2 -35 -3 -67q0 -31 7 -78q0 -2 1 -6l1 -4v4q2 -8 2 -25 q0 -12 -11 -74q-8 -27 -8 -53q0 -20 4 -20t15 6h-2l30 28q39 20 45 27q23 23 33 37q55 39 90 84q2 14 27 72q16 23 39 22l51 -2q12 0 23 2q6 0 17 1t13 1q96 0 97 -43q0 -25 -52 -53l-26 -19q-12 -8 -19 -12h2q-4 -4 -19 -13t-22 -13l-55 -33q-53 -31 -65 -43 q-47 -37 -48 -53q0 -12 54 -66q14 -20 47 -84q12 -27 57 -80q0 -2 3 -5t4 -6t1 -5v2q37 -59 52 -80q18 -23 53 -49q37 -31 37 -72q0 -49 -49 -49q-16 0 -50 2h-10q-29 0 -55 -2q-14 -2 -33 -2q-39 0 -39 18l-18 19v-39q-61 2 -62 43q0 25 21 45l14 16l-2 2q-27 49 -37 97 q-6 12 -22 28q-4 14 -23 41q-10 8 -33 27l2 -2q-20 14 -30 31h2q-35 59 -54 63q2 -2 3 -31q0 -37 -9 -78l6 -81q0 -2 -1 -8.5t-1 -10.5v-16q0 -39 39 -80q27 -31 27 -47q0 -37 -49 -37q-23 0 -64 12q-6 2 -12 2q-4 0 -51 -8q-39 0 -76 -2h-47q-37 0 -37 33z" />
<glyph unicode="l" horiz-adv-x="389" d="M45 1138q0 39 76 79q25 16 39 34l43 29v-2q31 20 41 29q-12 -8 14 -17l16 -4v39q37 0 37 -45q0 -16 -8 -47l4 -55v-7q0 -2 -1 -6t-3 -11t-2 -13v-19q0 -4 -1 -12t-1 -14q0 -33 -2 -64v-4l4 -106l-2 -21v2l-6 -184h-10q8 -20 16 -174l4 -131v-21q-6 -43 -6 -53 q0 -4 10 -78q4 -37 8 -63q0 -4 2 -11.5t2 -11.5v-4v4q6 -14 21 -57l8 -13l25 -22q8 -20 8 -39q0 -37 -27 -43q-16 -2 -61 -2h-60q-4 0 -18 -1t-22 -1h-15l-35 2h-2h-8l-4 -2q-14 -2 -35 -2q-43 0 -43 37q0 25 12 39l33 39l-2 -2l17 26l-2 -2l20 41l-2 -2q4 20 4 59l6 58 l2 22l2 19l-6 82v67q0 16 -2 25v18q0 31 8 99v-3q0 2 1 6.5t1 6.5v10q-6 37 -6 45v76l2 18v31q2 31 2 96q0 33 -2 41v-2l-14 51q-2 31 -10 52v-2q-6 14 -13 20l-41 25h5q-21 7 -21 46zM244 1307l2 2z" />
<glyph unicode="m" horiz-adv-x="1275" d="M74 43q0 23 12 35l41 41q16 16 23 37l-3 -6v61q2 6 3 18q0 4 1 13.5t1 11.5v25v30q-2 41 -2 97q0 10 -1.5 22t-1.5 14l3 21q2 23 2 33q4 37 4 45q0 33 -19 47q-45 31 -45 49q0 29 19 35h-2l57 33l-2 -3q12 6 40.5 26t45.5 30q25 10 31 10q39 0 45 -37v-20l36 18h-2 q18 12 95 21q47 6 86 6q96 0 159 -90l9 -11q-4 0 26 27q18 18 94 59q10 4 27 13q20 6 25 10q8 4 59 4q55 0 109 -27h-2q61 -31 131 -129q10 -41 10 -92q0 -35 -2 -63q-2 -10 -2 -25q0 -2 1 -11t1 -15.5t1 -21.5t1 -24v-4q4 -57 4 -77.5t-2 -32.5q-2 -29 -2 -64t39 -82 q10 -10 43 -37q16 -8 16 -28q0 -39 -82 -39q-70 0 -100 6l-23 4l-120 -6q-37 0 -37 49q0 20 22 49l29 37q6 8 10 37q0 8 4 37q0 8 4 29q2 12 4 29.5t2 21.5v8v35v47v10l-2 6v35q2 29 2 72q0 80 -41 116q-24 23 -67 23q-49 0 -80 -31q-27 -20 -37 -43q-6 -16 -10 -53 q0 -16 -6 -35q-10 -51 -10 -73q0 -4 2 -17q0 -27 2 -39q2 -98 6 -133q4 -16 8 -72q0 -12 10 -22q16 -16 74 -60q14 -10 14 -26q0 -37 -92 -37q-12 0 -45 4q-37 4 -39 4q-8 0 -45 -6q-14 -2 -53 -2q-72 0 -72 43q0 16 21 49q28 38 28 163v9h37q-4 2 -12 11.5t-18.5 33 t-12.5 51.5q0 10 6 66q2 18 2 39q0 39 -28 108q-25 61 -95 62q-49 0 -88 -43q-18 -29 -24 -45v4q-4 -33 -4 -37v-6q2 -25 2 -49q0 -29 -6 -84l-2 -17l-2 -22l2 -47l-2 -70q0 -2 2 -6t2 -6q2 -12 5 -30.5t3 -26.5v2q4 -14 14 -31l-2 4l10 -21q49 -51 50 -65q0 -35 -54 -35 q-14 0 -57 6h-12q-14 0 -35 -2h-15q-16 0 -26 2h-12q-6 0 -39 -4q-14 -2 -41 -2q-41 0 -41 39z" />
<glyph unicode="n" horiz-adv-x="774" d="M51 47q0 27 45 57q12 6 35 60q6 10 10 67q6 80 6 129v58q0 27 3 57q0 39 -17 55h2q-2 2 -31 19q-35 16 -47 33v2q-2 6 -2 18q0 25 37 47q70 35 96 51q75 56 91 56q18 0 32 -21l2 -28l35 24q47 27 105 27q18 0 94 -17h-4q76 -8 102 -59q33 -98 33 -123l4 -24v-39l4 -60 l-2 -6v-12q0 -25 -2 -43l4 -80q2 -49 14 -96q4 -25 15 -52q0 -8 35 -53q18 -23 34 -43q0 -51 -63 -51h-27l-43 4h-6q-14 0 -31 -2q-4 0 -12 -1t-12 -1q-10 -2 -23 -2q-6 0 -18 1t-17 1q-33 0 -38 2q-37 6 -37 43q0 20 35 55q2 2 14 37l12 33l-4 92l4 21q6 31 6 71 q0 178 -14 215q-25 70 -84 70q-41 0 -72 -25q-4 -12 -12 -32q-12 -27 -18 -39v-58l-5 -20v-19q0 -6 -4 -24v-16q-2 -33 -6 -62q6 -70 6 -78q0 -2 -1 -13t-1 -17q-2 -6 -2 -15q2 -4 2 -10q0 -2 2 -15.5t4 -23.5l5 -39v4q8 -20 16 -43l-2 6q12 -18 43 -39h-2q14 -8 14 -26 q0 -35 -51 -35q-23 0 -90 10l-51 4q-14 0 -64 -12l2 2q-10 -4 -24 -4q-63 0 -64 47z" />
<glyph unicode="o" horiz-adv-x="819" d="M55 328v18v86q0 68 15 88v-2q63 135 196 191q53 23 82 30q61 10 96 11q74 0 95 -5h-4q23 -8 75 -32q53 -23 80 -60l27 -35v3q74 -86 74 -218q0 -111 -64 -237q-31 -68 -109 -117h3q-47 -35 -74 -47l-2 -2q-49 -14 -92 -14q-111 0 -213 65q-72 49 -84 64 q-100 100 -101 213zM231 414q0 -68 2 -88q0 -23 27 -88q0 -4 2 -6.5t4 -8.5l-2 2l6 -18t6 -17l-2 7q14 -23 31 -31l45 -25q53 -32 58 -32q39 0 96 28q49 27 71 105q25 72 25 137q0 25 -4 33l-27 65v4v-4q-8 25 -34 82q-49 72 -158 72q-37 0 -51 -10h2q-49 -39 -78 -95v2 q-18 -45 -19 -114z" />
<glyph unicode="p" horiz-adv-x="776" d="M57 -494q0 18 25 37q27 23 37 37l16 49l-2 -6q0 53 2 90q0 8 1 21.5t1 19.5l6 82v2q-2 2 -2 4q0 35 -2 64q0 8 -1 31.5t-1 35.5v23l2 78l-2 35q0 14 2 28q4 20 4 23v6l-4 51l-2 51q0 27 -2 39v-2q-2 12 -2 25l2 49l2 98l6 51q-4 16 -18 31l4 -2q-10 6 -35 16 q-25 8 -24 43q0 25 28 50q20 16 76 45l-4 -2q12 8 37 43q43 53 94 53q49 0 49 -51q0 -12 -2 -19q43 35 101 35q88 0 159 -37q68 -35 88 -74l-2 3q12 -16 23 -46v-4v4q20 -47 35 -102h-2q10 -39 10 -43v-131l2 -51v-6q0 -61 -66 -158q-51 -66 -104 -100l-4 -2q-4 -2 -4 -5 q-43 -25 -49 -24q-14 -6 -62 -12l-43 -5l-108 25v-6q0 -8 -1.5 -25.5t-1.5 -36.5l-2 -24l7 -68l-2 -194q0 -49 40 -78q8 -4 13 -8q6 -2 45 -19h-2q25 -6 24 -39q0 -43 -49 -43q-4 0 -15 1t-18 1h-24q-14 0 -76 -6l4 2q-12 -4 -16 -4q-27 0 -43 2q-29 4 -39 4q-2 0 -9 -1 t-14 -1h-22q-63 0 -64 47zM315 260l4 -39v-43l-2 6q2 -12 11 -22l12 -37l-2 4q18 -27 86 -29h37h-2q2 0 6 -1t8 -1h4q29 0 55 35q61 74 62 170q0 299 -188 299q-66 0 -78 -37l-11 -90q0 -4 -1 -12t-1 -10l2 -52l-2 -32v-109z" />
<glyph unicode="q" horiz-adv-x="790" d="M59 440q0 92 58 172q98 144 221 160l45 -6h4q20 -4 57 -16q25 -14 27 -17l-6 51v7q0 16 24.5 32.5t40.5 16.5q31 0 58 -25q23 -23 47 -51l45 -33h-2q6 -6 10 -8q43 -31 56.5 -46t13.5 -35.5t-10 -41.5q-8 -10 -52 -35q-2 -4 -2 -102q0 -8 2 -21q0 -6 1 -15t1 -13 q2 -23 2 -54q0 -18 -8 -59v-2l-2 2q2 -8 6 -33q0 -6 4 -22v-29h-38l2 -4q4 -6 8 -16.5t9 -23.5t8 -28.5t3 -29.5l-2 -80q-6 -35 -6 -43q0 -20 2 -37v2q2 -12 2 -156q0 -25 -2 -39t-2 -28l12 -88q0 -4 2 -12.5t3 -15.5t1 -15v-2v2q2 -8 33 -41q23 -20 23 -45q0 -53 -60 -54 h-98q-27 0 -59 -2h-62q-76 0 -76 50q0 18 13 30l20 15l17 22l32 23h-2l11 37v-3l2 3v4q8 35 8 49l-2 8q-2 16 -2 49v16l2 19q0 25 8 49q0 2 2 8v4v2l-6 52l-2 39v-3q-8 41 -10 70q-4 0 -41 -14q-23 -8 -35 -8q-27 0 -101 8q-78 8 -157 110q-90 113 -90 209q2 10 4 23v12 q-4 4 -4 23l-7 28v4q-4 25 -4 41zM227 401l4 -43l2 -45v2l3 -16v-72l2 -2q2 -4 6 -9t8 -9l20 -31v2q27 -41 76 -67q16 -8 47 -9q78 0 99 41q16 29 22 111q2 29 2 57q0 25 -2 51l4 48l-4 39q0 14 -4 63v8v2q-8 49 -57 64q-5 2 -21 8q-25 -6 -51 -10q-43 -12 -49 -15 q-27 -16 -58 -65q-49 -80 -49 -103z" />
<glyph unicode="r" horiz-adv-x="497" d="M55 621q0 27 27 45q20 12 29 16h-2q2 2 11 6t13 8q43 25 64 43q27 20 63 31l21 -51q8 4 36 24q4 2 35 15q55 12 62 12q55 0 91 -40t36 -97.5t-35 -87.5q-18 -20 -47 -21q-35 0 -62 27q-14 12 -47 61l-4 4q-16 -6 -35 -63q-14 -54 -14 -111v-92q-2 -20 -2 -49q0 -6 -1 -12 t-1 -8q0 -10 4 -51.5t4 -55.5q0 -43 37 -65q63 -39 63 -72q0 -45 -61 -45q-25 0 -104 8h-9l-30 -2q-18 -2 -37 -2h-2q-84 2 -84 49q0 16 10 31l39 39q10 10 10 20q2 47 10 150v8l-2 65v-2q-2 45 -6 129q-6 57 -22 74l4 -2l-17 8h2l-16 8q-31 12 -31 48z" />
<glyph unicode="s" horiz-adv-x="579" d="M63 201v32q0 54 35 54q18 0 35 -33q20 -43 80 -90q27 -20 47 -27q16 -4 21 -4h45q33 6 57 33q18 23 18 59q0 57 -67 92l-53 27q-4 8 -74 55v-2q-39 25 -70 49q-51 61 -51 121q0 72 40 124t112 73q20 4 77 4l43 2q14 0 31 -4q2 0 11.5 -3t11.5 -5l65 14h8q35 0 35 -98 q0 -18 -2 -47l-2 -23q0 -72 -37 -72q-33 0 -80 95q-33 61 -71 61q-41 0 -56 -33q-14 -25 -14 -43q0 -23 29 -57q8 -12 18 -16q4 -2 13.5 -5.5t24.5 -8.5t26 -9l32 -18h-2q41 -18 52 -29q43 -35 73 -80q27 -45 27 -117q0 -68 -37 -135q-29 -55 -63 -80q-41 -29 -91 -43 q-43 -14 -71 -14q-23 0 -66 16l-35 19q-2 0 -4 -2l-16 -25q-14 -14 -43 -14q-57 0 -57 49v66q0 10 -2 24v-2q-2 10 -3 70z" />
<glyph unicode="t" horiz-adv-x="460" d="M23 698q0 52 51 54l8 -2h12q2 0 9.5 -1t11.5 -1h14q8 0 14 18q0 33 2 82q0 33 68 74l12 6h-2q41 23 53 22q49 0 50 -51q0 -6 -4 -16q-10 -31 -11 -35q6 -48 6 -70q0 -18 -4 -20l43 4l15 -2q35 -4 45 -12l-2 2q30 -16 30 -55q0 -46 -32 -64q-6 0 -17 -2q-4 0 -23.5 -3 t-31.5 -5q-25 -2 -25 -25v-23q0 -6 1 -16t1 -14q0 -14 -6 -60q0 -31 -2 -53q0 -6 -1 -15t-1 -14q-2 -39 -2 -82q0 -152 23 -151l78 10q8 0 21 -23.5t13 -33.5q0 -33 -24 -64q-6 -8 -39 -28q-23 -23 -35 -27q-23 -16 -61 -16q-78 0 -121 57v-2q-20 27 -21 49l2 96v4 q-6 49 -6 70q0 18 8 66q4 12 4 24q0 10 -2 21q0 4 -1 14t-1 16q0 23 -2 58q0 2 -1 9t-1 11q0 14 -2 21v4v-2v2v2q-2 8 -2 18l2 27q6 37 6 53q0 23 -24 25q-72 10 -86 35l2 -2q-12 20 -12 36z" />
<glyph unicode="u" horiz-adv-x="739" d="M41 702q0 39 49 39q10 0 23 -4l-2 2l51 -10h-4q8 0 12 2l53 8q92 0 92 -73v-4q-2 -4 -3 -13.5t-1 -15.5q-2 -14 -6 -51l2 -336q0 -2 -1 -8.5t-1 -10.5q0 -2 -1 -11t-1 -15q-2 -10 -2 -17q0 -37 25 -63q12 -12 22 -12q14 0 47 14t45 24q12 14 26.5 45t14.5 48l-4 86 q6 63 6 67v6q-2 6 -3 19.5t-1 27.5v-2q-2 10 -2 33q0 12 6 105q2 6 2 18q0 10 -4 27l-57 90q35 27 51 26q6 0 14 -4h7q2 0 6 -1t6 -1q6 -2 10 -2l88 2q45 0 45 -78v-118l-4 -70l2 -106q0 -29 2 -46q0 -8 2 -12l-6 -104v-2q0 -4 17 -27q41 -49 41 -61q0 -16 -25 -35v2 l-47 -35h2q-84 -76 -143 -76q-33 0 -39 31l-4 29l-15 -11q-16 -10 -31 -20q-18 -12 -57 -12q-111 0 -190 135h2q-23 39 -23 143q0 41 2 70q0 4 1 15t1 17.5t1 16.5t1 14q2 29 2 70q0 8 -6 72q-4 45 -12 57q-10 29 -29 41q-55 41 -55 65zM446 39v6v-6zM487 741l2 -2z" />
<glyph unicode="v" horiz-adv-x="632" d="M6 700q0 10 13.5 30t23.5 20l82 -7q2 0 4 1t4 1h-2l39 7q109 0 109 -56q0 -20 -5 -28q-2 -4 -6 -14.5t-4 -12.5q-6 -14 -6 -18l29 -78l28 -94l-2 2q25 -57 49 -99l11 -18q10 29 18 41q39 94 47 149h2q0 8 4 17q8 37 9 45q0 35 -7 45q-2 4 -2 12q-2 8 -5 17.5t-5 13.5 t-3 7t-1 5q0 33 39 43l33 6l43 8l57 3q61 0 62 -52q0 -14 -15 -43q-10 -14 -55 -61l2 4l-10 -18q-12 -14 -39 -82l2 4l-6 -27l-11 -31h3l-11 -34q-10 -25 -43 -127q-4 -14 -12 -38t-21.5 -57.5t-21.5 -58.5q-14 -31 -18 -53q-18 -63 -29 -74q-12 -16 -33 -16q-33 0 -53 28 q-10 14 -41 117q-25 76 -49 123l-4 12q-4 8 -27 74q-18 57 -57 125q-4 4 -9 18q-4 8 -4 17q-29 84 -36 100v-2q-21 37 -39 57l-2 2q-18 29 -19 45z" />
<glyph unicode="w" horiz-adv-x="952" d="M8 690q0 57 76 58q14 0 31 -3q10 -2 32 -2q6 0 17.5 -1t15.5 -1h123q6 -2 15.5 -5t11.5 -3q16 -12 20 -20q12 30 53 30h3t10 -1t14 -1q8 -2 21 -2q14 0 18 2q6 0 14.5 1t10.5 1q4 0 10 1t8 1q18 0 41 -26q8 12 25 14l22 4q43 6 55 6q88 0 88 -45q0 -14 -34 -57l2 2 q-2 -4 -14.5 -26.5t-20.5 -38.5q-20 -47 -21 -58l4 -86l-2 -28q0 -12 25 -58q4 -6 9 -15t7 -14q0 4 4 13l-2 -2q8 23 39 69h-2q8 12 15 23q45 74 45 174q0 27 -27 61q-14 23 -14 39q0 53 80 54q84 0 108 -5q41 -12 41 -57q0 -25 -10 -39v4q-4 -8 -39 -63q-4 -4 -25 -55 l-57 -164l-35 -76l-20 -55q-27 -66 -43 -127v2q-16 -66 -56 -111v2q-18 -27 -47 -26q-33 0 -45 32q-2 4 -16 45q-8 31 -19 58q-4 10 -11 31.5t-13 40t-14 32.5l-3 6q-2 2 -6 21v-2l-4 12q0 -2 -4 -9t-6 -13.5t-12.5 -25t-14.5 -26.5q-6 -8 -18 -32q-4 -12 -8 -21 q-16 -29 -27 -45q-6 -6 -8 -25q-12 -69 -54 -69h-1q-39 0 -58 61l-2 6q-2 4 -7 16.5l-9 22.5q-31 76 -35 88q-12 31 -37 88l-53 129l-29 78l-8 17q-4 6 -9 18t-7 18l4 -6l-15 21q-2 2 -5 4t-5 5t-4 5l-4 4q-8 8 -12 21v-2q-12 20 -17 32l-34 33q-14 14 -15 41zM297 618 q2 0 2 -6q0 -16 2 -18v2l27 -74q2 -6 14 -61q4 -18 31 -84q10 -27 22 -43l13 -25q0 -2 1 -2t1 -2l4 -16q2 0 16 26q43 78 43 103q0 16 -39 121q-25 68 -37 75l-22 17q-20 14 -27 39l-2 -2l2 4l-2 2q-6 -12 -18 -25zM395 334h2l-2 4v-4zM561 664l8 -17q8 -18 15 -31v19 q-1 6 -9 18q-12 8 -14 11z" />
<glyph unicode="x" horiz-adv-x="653" d="M8 53q0 18 19 41q6 6 12 10q37 27 45 33l39 41h-2q49 55 90 107q41 53 41 71q0 14 -2 17l-43 55l-39 74q-4 4 -6 8q-14 16 -33 47q-4 6 -9 14.5t-12.5 18.5t-11.5 16l-12 17q-2 0 -6 3t-12.5 8t-16.5 11q-33 20 -33 47q0 37 47 43l21 -2l29 2l30 -4l45 2l31 -2l53 2 q53 0 54 -49q0 -25 -21 -57q-2 -2 -2 -4q0 -8 19 -27q23 -25 30 -43q4 -16 4 -20.5t-2 -6.5v-2l35 35l25 21l14 24q4 4 23 33q-2 4 -9 31q-4 10 -6 12q0 53 49 53h4l50 -4l61 2q66 0 66 -45q0 -33 -27 -39l2 2l-39 -12h2q-6 -2 -31 -27l-4 -4h2q-6 -6 -31.5 -37.5 t-43.5 -54.5q-29 -33 -60 -72l2 2q-8 -16 -10 -16l27 -59v2l14 -27l10 -31q39 -47 45 -61q0 -2 43 -57l33 -41q16 -14 34.5 -29.5t27 -23t10.5 -9.5q12 -14 12 -37q0 -35 -33 -53q-20 0 -37 -2h-61q-10 0 -21.5 1t-13.5 1q-4 0 -8 1t-6 1h-4q-6 0 -11 -2h-32q-94 0 -95 45 q0 8 37 68q2 2 2 12q0 23 -41 84q-33 57 -41 57q-6 -8 -20 -22l-27 -27q-51 -41 -51 -90q0 -10 27 -59q6 -10 6 -31q0 -39 -51 -39q-27 0 -56 6h3l-54 6q-2 0 -4 -2h-35q-49 0 -49 43z" />
<glyph unicode="y" horiz-adv-x="663" d="M0 -473q0 31 22.5 53.5t77.5 36.5q37 10 95 168l43 109l-2 -3l14 43q16 43 16 119q0 12 -6 45l-8 39v-2l-12 39h2q0 2 -1 6t-3 10.5t-2 8.5q-6 37 -13 59q-8 8 -51 117v2q-2 6 -8 23.5t-16.5 49t-20.5 60.5q-29 92 -70 123q-51 39 -51 65q0 43 49 47q43 7 68 7l33 -4 q8 0 82 -7q12 -2 36.5 -4t32.5 -2q25 -16 25 -45q0 -20 -33 -67v-5q0 -2 12 -57q2 -6 5 -20.5t6 -22.5q0 -18 8 -67q4 -27 18 -50q16 -45 29 -71l16 -37q6 0 17 35v-2q4 14 20 51v-2l27 80q8 14 22 59q8 20 13 33h-3q12 39 13 59q0 8 -37 82v2q-4 8 -4 21q0 43 51 43 q23 0 31 -2h-2q20 -2 34 -2l54 2h8q63 0 63 -52q0 -16 -45 -71l-8 -27q-31 -59 -41 -115q-12 -37 -49 -122q-10 -18 -22 -64l-23 -53v2l-16 -53h2l-13 -50l-24 -51q-2 -10 -7 -30.5t-8 -28.5l3 4q0 -8 -9 -23q-2 -12 -12 -30q-4 -6 -13 -26.5t-18.5 -40t-19.5 -36.5l-31 -59 q-25 -51 -37 -90q-45 -104 -55 -119h2q-84 -143 -147 -152q-8 -2 -41 -2q-68 0 -68 64z" />
<glyph unicode="z" horiz-adv-x="610" d="M41 53q0 47 37 99l-2 -2q2 2 12 18t18 29l-2 -2q4 12 60 67q4 4 6 8q10 8 14 21v-2q10 20 23 49l4 8q8 16 18 31l7 4q0 2 12 30.5l20 47.5q41 49 68 116q2 6 6 12.5t7 10.5t3 6h-10q-47 19 -59 19q-55 0 -68 -2q-16 -2 -53 -23q-8 -6 -33 -39q-12 -14 -29 -14 q-41 0 -41 125q0 61 45 61l99 -2l49 2h10q16 0 45 -4q12 -4 25 -4q4 0 11 -1t11 -1h25l168 2h4q47 0 47 -51q0 -23 -29 -62q-31 -37 -34 -45l-41 -90l-27 -39l2 2l-29 -49l-28 -57l-21 -35q-2 -2 -5 -7t-9 -15.5t-12 -20.5q-10 -16 -17 -29q-16 -23 -39 -71q-20 -37 -20 -39 t35 -2q4 0 45 6h65q41 0 80 49q35 47 55 47q39 0 39 -61q0 -27 -2 -43q-2 -4 -2 -11v-26q0 -37 -12 -54q-18 -18 -55 -18q-20 0 -31 2h2q-27 2 -45 2l-6 -2h-11q-20 0 -36.5 -2t-44.5 -2q-8 0 -99 6q-2 0 -9 -1t-11 -1q-2 0 -11.5 -1t-15.5 -1t-10 -2q-8 0 -55 6 q-76 0 -82 4q-31 10 -31 43z" />
<glyph unicode="{" horiz-adv-x="559" d="M66 612q0 31 20 45l-2 -2q10 10 25 21q47 45 53 143l2 92q-8 70 -10 105q-6 92 -11 137q0 127 82 199q66 53 144 55q16 0 47 8h45q10 0 16 2q9 2 23 2q61 0 61 -63q0 -49 -35 -49l-53 2q0 -2 -2 -2q-14 0 -27 -2q-2 0 -10 -1t-12 -1q-35 -4 -55 -89q-18 -80 -19 -122 q0 -14 6 -93l-6 -106q0 -59 -2 -88q-8 -53 -57 -131q-23 -35 -51 -47q-10 -4 -20.5 -8.5t-14.5 -6.5t-6 -2q2 0 6 -1t13 -3t22 -4q55 -14 77 -80v2q31 -78 31 -106l-2 -29l2 -45l-4 -57q0 -6 2 -11q0 -2 1 -9t1 -11q2 -14 2 -33q0 -47 8 -86q2 -8 2 -26v-25q8 -86 39 -109 q16 -12 23 -12h39q84 -2 84 -61q0 -43 -39 -43h-8l-41 4l-37 -8h-17q-70 6 -100 18q-57 18 -98 68q-55 61 -56 112v4l9 115q0 31 2 57v-2q0 6 1 20.5t1 22.5q2 20 2 54q0 129 -39 200q-8 14 -37 43l2 -4q-23 14 -22 47z" />
<glyph unicode="|" horiz-adv-x="739" d="M332 -332v1706h106v-1706h-106z" />
<glyph unicode="}" horiz-adv-x="559" d="M37 -94q0 53 49 61h39q12 0 20 2q14 2 29 2q25 4 37 33q35 57 35 74v2q-2 2 -2 4l2 45q0 4 1 13.5t1 13.5q2 14 2 28v27l-4 65l4 111q2 12 2 35q0 6 1 20.5t1 22.5q10 68 55 135q29 39 49 47l45 17q-14 0 -43 6q-53 14 -77 78q-29 70 -29 102v80l2 53q0 6 -2 12 q0 4 -1 10.5t-1 10.5q-2 14 -2 37q0 49 -8 82q-6 16 -6 53q-2 86 -33 108q-14 12 -25 13l-61 2l-17 -4q-45 0 -45 49t49 53l39 4l43 6l13 -2h-2q49 -4 90 -12h-2q2 -2 8 -2q72 -31 104 -70q53 -61 54 -112v-9l-9 -112l2 -39q0 -4 -6 -57q-4 -37 -4 -54q0 -43 10 -121 q12 -51 31 -81q2 -2 13.5 -14.5t23.5 -24.5q20 -16 20 -47q0 -23 -14 -41q-8 -8 -14 -13q-6 -6 -15 -10q-43 -29 -53 -145q-2 -31 -2 -117q0 -59 21 -176q2 -8 2 -37q0 -129 -82 -197q-66 -53 -146 -55q-16 0 -47 -8l-45 -2q-12 0 -16 -2q-10 -2 -23 -2q-61 0 -61 49z" />
<glyph unicode="~" horiz-adv-x="1304" d="M236 1104q129 193 292 192q61 0 185 -39q100 -31 149 -30q99 0 191 100l57 -31q-47 -76 -109 -122h3q-92 -70 -187 -70q-47 0 -129 26q-164 47 -221 48q-63 0 -107 -41q-8 -6 -67 -66z" />
<glyph unicode="&#xa1;" horiz-adv-x="372" d="M88 -399q0 35 6 100q8 115 19 174v70l14 116v-2q4 57 14 105q0 16 2 39l7 147q0 6 2 17.5t3 20.5t1 13v-4q0 8 2 13q0 2 -1 6t-1 8q-2 8 -2 27q0 43 45 43q39 0 55 -48v-110q0 -29 4 -62v2q4 -20 8 -88v-12q2 -25 10 -158v2q0 -2 2.5 -10t4.5 -20.5t6 -24.5l10 -31 q2 -4 4 -71q0 -23 3 -55.5t6 -83t5 -89.5q2 -8 2 -22t3 -21l-3 5q4 -12 5 -25q0 -47 -21 -102v2q-16 -53 -65 -64q-39 -8 -56 -8q-94 0 -94 201zM100 715q0 55 23 80q26 34 92 34q18 0 45 -22q33 -35 41 -51q8 -10 8 -51q0 -113 -82 -113q-12 0 -57 22.5t-53 30.5 q-16 23 -17 70z" />
<glyph unicode="&#xa2;" horiz-adv-x="649" d="M53 709q0 133 84 233q78 90 133 107l82 20q8 2 8 43q0 8 -6 70l2 -4l-4 16q0 43 57.5 43t57.5 -41v-2l-2 -25l-2 -39l-4 -34q2 -8 10 -19q4 -4 20 -6q156 -39 156 -153q0 -31 -22.5 -56.5t-49.5 -25.5q-78 0 -108 57q-6 8 -4 10q-4 0 -4 -6l2 -145q0 -8 -4 -54l2 -131 q-6 -18 -11 -28q-12 -27 -12 -60q0 -41 21 -61q4 -4 6 -4q59 0 96 24q27 18 45 19q29 0 29 -29q0 -20 -29 -45v2q-4 -4 -16 -12q-14 -14 -23 -21q-18 -18 -100 -59l-21 -4q14 2 -2 22l2 -22h-2h2l7 -56v-16q-6 -27 -7 -33l4 -63q0 -12 -23.5 -30.5t-37.5 -18.5q-25 0 -41 24 q-4 20 -8 56q-6 27 -6 38q0 14 8 46l-2 22q-2 33 -7 39t-30 12q-109 45 -166 131l-12 19q-6 8 -17.5 27.5t-17.5 27.5q-4 14 -14 82q-18 88 -19 113zM242 729q0 -4 1 -12t1 -10v-37q0 -2 8 -23v2q25 -55 37 -92v2q2 -2 5 -8t10 -19.5t15 -27.5l21 -37q2 10 2 27v36l2 82 l6 187q6 31 6 61v47q0 37 -4 45q-4 6 -10 6q-27 0 -59 -43q-27 -35 -35 -75q-6 -45 -6 -86v-25z" />
<glyph unicode="&#xa3;" horiz-adv-x="960" d="M41 195q0 59 51 127q53 68 131 67h33q25 -4 33 -4q51 -10 100 -59q16 -12 45 -13q39 0 39 78q0 88 -98 205q-29 33 -27 33q-6 0 -18.5 -1t-18.5 -3q-43 -6 -55 -7q-20 0 -37 5q-10 2 -20.5 4t-14.5 3t-6 1v-2l-6 -2h-6h2q-23 -6 -41 -6q-45 0 -45 55q0 69 78 69 q16 0 71 -6q18 2 19 9q0 14 -43 69l-53 107l-21 39q-12 25 -12 57q0 88 24 143q16 33 31 54q12 16 43 47q2 4 12 14q37 45 64 59q4 4 33 15h-4l24 14q37 18 101 18q59 0 81 -8h-2l109 -41l-2 2q127 -33 147 -47q10 -14 23 -69l6 -113v2l12 -53l-2 -56q0 -6 2 -14q0 -2 1 -7 t1 -7v4q2 -8 2 -25q0 -53 -47 -53q-33 0 -47 33q-8 12 -8 39q-6 18 -20 53q-6 16 -11.5 34.5t-7.5 22.5q-6 4 -12 15q-12 10 -19 26q-8 8 -30 35v-2q-6 6 -14.5 17.5t-12.5 15.5q-18 18 -63 41q-12 6 -31 12l-33 16q-20 10 -31 11q-80 0 -118 -51q-37 -43 -37 -82 q0 -29 14 -66l-4 4q0 -2 3 -5t5 -7q14 -23 19 -27q66 -104 133 -160l-2 3q14 -8 36 -60l21 -22q2 -2 12 -16.5t21 -24.5q20 -14 67 -15q4 0 15 2q2 0 8 1t10 1l45 -2l29 2h6q47 0 47 -59q0 -63 -49 -63l-23 2l-49 -2h-41q-6 -6 -6 -22.5t6 -45.5l-2 2q4 -12 4 -23l-10 -47v4 l-2 -73l-6 -35v2l-2 -29l-6 -18q-18 -63 -19 -105q0 -12 8 -18q8 0 25 -4q6 0 10 -1t10.5 -3t12.5 -4q41 -14 61 -15q37 0 58 21q18 25 55 80q-2 0 -1 5t5 16t8 26l17 55q2 0 2 17q0 4 1 12t1 14q4 90 55 90q35 0 47 -35v2q10 -14 10 -53t-26 -151l-4 -21l-7 -26 q-37 -145 -127 -203l5 4q-59 -45 -68 -49h2q-29 -20 -92 -21q-10 0 -72 19h2q-23 4 -49 14l2 -2q-6 2 -65 37v-2q-25 12 -37 12q-10 0 -13 -2l-28 -27q-43 -37 -129 -36q-14 0 -58 14q-20 4 -34 8h2q-4 2 -13 2q-14 8 -28 19q-39 33 -58 81q-8 12 -14 89zM156 172 q0 -16 6 -25q37 -49 112 -49q61 0 62 37q0 29 -35 72q-14 20 -29 35q-34 18 -61 18q-14 0 -23 -8q-6 -10 -16 -39z" />
<glyph unicode="&#xa4;" horiz-adv-x="888" d="M123 901.5q0 20.5 14 34.5l17 18q31 43 55 43q29 0 55 -34q23 -27 29 -27q8 0 20 6q92 43 189 43q29 0 96 -22h-6q2 0 2 -1t2 -1q6 -2 14 -3q2 0 19 9l-2 -2l55 45l-2 -2q8 8 22 8q23 0 41 -21v2q29 -20 29 -63q0 -29 -31 -72l-4 -8q0 -6 17 -33q25 -41 24 -119 q0 -104 -39 -184v-12q0 -2 6 -8q35 -29 35 -62q0 -25 -31.5 -54.5t-56.5 -29.5q-14 0 -51 37q-13 12 -25 12q-14 -8 -45 -26q-43 -25 -79 -25q-102 0 -181 43h2q-12 6 -16 6q-8 0 -27 -24q-51 -53 -77 -53q-33 0 -33 36v21q0 8 4 4l-14 14q-8 4 -9 54q0 12 21 32 q23 20 22 35q0 10 -6 19q-43 59 -43 153q0 39 27 94q8 29 8 31q0 6 -20 33q-27 33 -27 53.5zM301 659q0 -25 27 -84q20 -33 37 -45h-3q31 -29 99 -28q12 0 80 37q25 12 39 26l-2 -4l26 39q14 14 19 27q4 16 4 24q-6 25 -11 94q-2 0 -4 7q-37 51 -59 63q-27 21 -80 21 q-29 0 -78 -23q-20 -8 -26 -18q-18 -27 -25 -39l-33 -43q-10 -35 -10 -54z" />
<glyph unicode="&#xa5;" horiz-adv-x="995" d="M12 1321q0 10 15 29q10 10 90 12q59 6 65 6q18 0 60 -8q12 2 53 6h18q6 0 31 -4q10 -2 27 -2h18q78 0 78 -51q0 -20 -16 -37l-33 -37l2 2q-12 -12 -12 -31q0 -29 57 -112q14 -20 37 -68l-4 6q4 -8 8 -14v2q4 -6 18.5 -31.5t22.5 -42.5q6 -10 10 -19t7 -17.5t5 -10.5 q4 4 17.5 21.5t23.5 29.5l-2 -2l51 99l29 30l-4 -4l29 55q23 41 22 43q0 25 -24 56q-4 8 -17 20h2q-6 6 -32 25q-18 12 -19 37q0 51 80 51h16q8 0 19.5 -1t15.5 -1q6 0 15.5 -1t11.5 -1q4 0 35 6q10 2 30 2q23 0 80 -8q76 -12 76 -56v-2q0 -23 -11.5 -34t-74.5 -47 q-31 -14 -68 -62l2 2q-8 -10 -43 -49q-14 -14 -43 -74l-32 -51l2 2l-19 -39q-8 -12 -16 -26.5t-13.5 -23.5t-9.5 -15l31 2q8 0 16 -6q23 -8 41 -9h9q8 4 10 2l35 11q47 0 47 -58q0 -76 -80 -75q-2 0 -6 1t-8 1q-2 0 -9.5 1t-11.5 1l-18 2q-23 0 -56 4q-14 2 -22 2 q-33 0 -37 -15l2 3q-8 -35 -8 -66q0 -12 47 -12q29 0 61 4l50 -2l30 2h6q45 0 45 -53q0 -18 -10 -37v2q-14 -33 -26 -33h-5l-51 4l-24 -4h-21q-20 0 -30 2q-4 0 -9.5 1t-7.5 1q-18 2 -45 2q-10 0 -10 -35q0 -16 2 -30q4 -29 4 -43l-4 -58v2l-2 -159v-13q0 -43 12 -67 q16 -33 55 -64t39 -61q0 -35 -28 -35h-4l-48 2h-8q-10 -2 -71 -2q-2 0 -7.5 1t-9.5 1q-23 0 -31 2q-33 -6 -61 -6q-16 0 -27 2h2q-18 2 -32 2l-25 -2h-55q-55 0 -55 39q0 29 18 41l47 22h-2q18 8 55 70q29 31 29 51q0 -2 -2 0l-2 43l6 92q0 31 2 56q0 94 6 129q2 8 2 20 q0 2 -6 2q-4 -2 -39 -6q-2 0 -9 -1t-11 -1h-13q-23 0 -38 2l-43 -4l-19 10l-33 -8q-47 0 -47 55q0 72 80 72q18 0 31 -2q57 -6 104 -8h6q29 0 29 20q0 29 -10 51q-6 6 -6 13q-25 6 -37 6h-45q-8 0 -19 -2q-2 0 -8 -1t-8 -1l-49 2l-31 -2h-4q-49 0 -49 57q0 23 15.5 45.5 t33.5 22.5l25 -2l51 2l41 -2l4 4q0 27 -70 141q-47 78 -117 160l-36 39v-2l-31 26h4q-51 33 -57 39q-14 18 -15 35z" />
<glyph unicode="&#xa6;" horiz-adv-x="739" d="M332 -332v678h106v-678h-106zM332 666v708h106v-708h-106z" />
<glyph unicode="&#xa7;" horiz-adv-x="976" d="M88 96q0 47 37 105q43 61 92 61q61 0 109 -82h-2q25 -41 24 -69q0 -25 -24 -66h2q-16 -31 -17 -51q0 -25 23 -33q49 -12 153 -24l54 -7q23 2 67 29h-2q14 10 31 27q4 6 6 10t7 13t11 20q29 29 29 39v55l2 45q-2 45 -90 65q-27 6 -84 37l-135 43l-25 11l-34 14l-27 14 q-16 6 -51 19l-6 2q-4 4 -8.5 8t-28.5 25h2q-29 18 -60 59q-20 45 -22 137q-2 23 -2 45q0 43 24 86l4 4q2 4 9.5 12.5t17.5 20.5q80 86 80 96q0 6 -25 29l2 -2q-96 82 -96 156q0 55 45 151q25 57 66 100q6 2 18 13q33 27 47 35l-2 -2l56 40q20 12 51 23q37 10 55 10h8l60 -6 q88 -18 98 -20h-2q80 -16 100 -31q33 -16 94 -107q25 -39 25 -79q0 -74 -10 -86q-33 -49 -39 -56q-35 -31 -76 -30q-23 0 -57 28q-61 45 -62 139q0 16 35 74v-2v6q-6 6 -20 17q-27 18 -33 18h-25l-55 2q-86 -8 -121 -33q-18 -12 -26 -24q-37 -68 -37 -123q0 -45 24 -66 q33 -27 70 -34q61 -12 78 -19q55 -37 125 -63q2 -2 30 -11q4 -4 35 -12l-2 2q57 -10 74 -18q2 0 21.5 -13.5t37 -25.5t23.5 -21q78 -106 78 -176q0 -78 -27 -143v2q-12 -33 -27 -53l-75 -76v-6v-2l45 -56q14 -20 30.5 -71t16.5 -76q0 -90 -47 -180q-25 -41 -45 -64l-21 -20 l-14 -15v2q-37 -37 -70 -53h2q-16 -12 -86 -35v2q-27 -10 -72 -10h5q-33 -12 -48 -12q-39 0 -151 31q-20 6 -31 10q-4 2 -9 3t-9 1q-6 2 -27 14q-14 6 -51 33v-2q-39 20 -61 43q-33 47 -37 55q-25 57 -25 125zM303 653q0 -72 47 -106q27 -23 76 -33h-2h2h2q10 -2 51 -18 q63 -27 74 -27q8 -2 57 -18q12 -4 23 -5q41 0 57 23q2 4 6 13.5t11.5 24.5t13.5 30q20 47 20 59q0 47 -49 88q-6 8 -59 18l-29 15q-2 2 -12 6t-17 8q-10 6 -47 14q-18 2 -90 37q-12 2 -28 6l-17 5q-12 -4 -51 -43q-6 -6 -23 -48q-16 -45 -16 -49z" />
<glyph unicode="&#xa8;" horiz-adv-x="931" d="M266 778q0 41 19 60q29 26 80 26q23 0 57 -20q10 -14 18 -37q2 -6 4 -16.5t2 -12.5l3 -10q0 -35 -27 -61q-23 -16 -43 -17q-90 0 -105 60q-6 14 -8 28zM479 782q0 4 13.5 31t17.5 31q22 18 63 18q29 0 60 -16q47 -18 47 -72q0 -35 -47 -69q-27 -23 -47 -23q-43 0 -82 33 q-18 18 -19 45z" />
<glyph unicode="&#xa9;" horiz-adv-x="1501" d="M66 662q0 12 6 73l-4 88q0 80 38 152l44 80v-2l6 12q0 2 2 6t5 8t7 8.5t6 8.5l23 24l-2 -2l20 27l31 33q31 35 59 63q27 27 70 53q178 111 403 111q176 0 281 -49q143 -61 237 -191q74 -121 78 -131q39 -66 70 -168q16 -55 20 -92q0 -2 1 -17.5t1 -25.5q0 -8 1 -27.5 t1 -31.5q0 -6 1.5 -18.5t1.5 -16.5v-6q0 -74 -31 -174q-10 -35 -35 -78l-2 -6q-4 -4 -8 -10.5t-8 -10.5q-10 -14 -27 -45q-6 -10 -80 -117q-104 -104 -238 -157q-84 -35 -131 -47q-8 0 -92 -6q-86 -6 -114 -7q-98 0 -172 27v-2q-43 12 -119 68l-35 24l-4 4q-4 2 -10.5 5 t-12.5 7q-4 0 -55 48q-29 25 -55 51l-31 39l-35 57h2q-8 12 -27.5 40t-29.5 44q-10 10 -12 27q-6 31 -9 39l2 -5q-29 70 -28 86q0 20 -2 48q0 8 -1 21t-3 20q-4 35 -4 41zM221 713q0 -20 4 -51q0 -12 5.5 -50.5t7.5 -64.5q6 -49 43 -146l3 -6t1 -4l-2 2q2 -6 10 -27.5 t12 -33.5q18 -16 74 -64q12 -16 27.5 -33.5t17.5 -19.5q4 -2 13 -7t24.5 -13.5t30.5 -16.5q8 -4 18 -8q8 -4 28.5 -16.5t32.5 -18.5h-2q43 -18 78 -22l70 -4q27 -2 57 -3h17q80 0 112 9q33 10 64 30q29 16 100 48l23 12q23 16 53 53l4 4l14 12l-6 -4l6 9q43 43 99 122 q33 45 40 68q0 2 1.5 8t2.5 19.5t1 25.5l4 13v-7q0 33 8 72v-2q0 2 2 6v4q2 8 2 19q0 8 -8 49q-10 51 -10 65q0 20 -1.5 46t-1.5 32q-8 43 -14 62q-20 59 -72 137q-10 14 -30 41q-16 20 -72 71l2 -2q-2 2 -82 72q-8 6 -12 12q-8 6 -16 15q-2 2 -105 26h2l-106 11l-82 10 q-25 0 -49 -8h2q-29 -12 -45 -17q-31 -12 -97 -41q-14 -6 -123 -100v2q-33 -39 -77 -98q-47 -70 -47.5 -72t-9.5 -20.5t-13 -32.5h2l-10 -37v4l-4 -88q-20 -41 -21 -53zM301 338q0 -2 2 -4zM326 688v29l2 20q2 115 63 183q8 8 29 32l-2 -2l33 51q18 33 182 101q63 22 129 22 q131 0 239 -61q27 -14 41 -21q39 -12 39 -108v-31q0 -6 -1 -17.5t-1 -15.5v-8q0 -47 -39 -47q-33 0 -53 59v-2q-10 16 -29 46q-2 2 -9 7t-19 14t-27 19q-6 4 -26.5 16.5t-36.5 22.5h2q-12 4 -51 11l-46 6q-8 0 -32 -10q-20 -4 -72 -39l-12 -7q-18 -10 -23 -14 q-39 -39 -63 -88q-16 -39 -17 -45l2 -57q0 -8 -4 -17l2 8l-2 -2v-2q-2 -6 -12 -47l6 -51l-4 -35l4 -24l-2 -43q0 -10 33 -70q25 -43 84 -80q45 -25 86 -24h74q25 0 45 2q2 0 10 1t12 1q10 2 35 6q47 31 61 72q4 10 27 34q0 2 2 6q14 47 47 48q45 0 45 -56v-61q-2 -6 -2 -33 q-4 -59 -18 -68q-2 0 -8.5 -4t-17.5 -10t-19 -10q-6 -2 -24.5 -12.5t-26.5 -14.5l-31 -10q-57 -14 -78 -14h-84l-20 2l-37 -2h-4q-59 0 -172 78q-55 37 -84 67q-66 63 -107 162q-18 49 -18 137z" />
<glyph unicode="&#xaa;" horiz-adv-x="555" d="M111 621q0 45 10 65q31 47 100 82q20 6 82 41q10 6 10 12q0 2 -16 31v-2q-7 8 -21 8q-6 0 -4 2l-18 -20q-47 -31 -55 -31q-47 0 -47 51q0 57 77 86l-2 -2l15 6q23 10 57 11q49 0 92 -31q47 -35 47 -90q0 -39 -2 -82v-117q0 -14 66 -49q-10 -25 -31 -55q-37 -45 -74 -45 q-23 0 -41 14q-4 2 -10 6q-8 4 -10 6q-2 0 -4 -2q-8 -4 -13 -6l5 2q-35 -20 -82 -20q-55 0 -93 32.5t-38 96.5zM244 633q0 -14 18 -23q29 -8 33 -8q14 0 18 35q4 51 4 78v16l-4 4q8 -10 -10 -26l-22 -19q-2 -4 -7 -6l-6 -4q-25 -25 -24 -47z" />
<glyph unicode="&#xab;" horiz-adv-x="634" d="M55.5 381q-0.5 25 12.5 41l38 39q41 47 54 55q45 39 106 113l25 20v-2q12 14 55 53l4 7q19 14 29 14q41 0 41 -41q0 -2 -5 -13.5t-9 -17.5l-7 -35q-4 -23 -32 -51v2l-17 -16q-4 -6 -13 -21.5t-13 -23.5l-13 -19l-20 -30l-29 -31q-23 -23 -22 -35q0 -2 26 -31 q20 -20 35 -63v2l14 -27l13 -26l26 -29h-2q55 -55 56 -109q0 -49 -48 -49q-16 0 -51 27l-30 22q-12 8 -46 64q-2 2 -5 6t-5 6q-8 6 -28 35l-33 39q-20 16 -60 57l4 -2q-37 18 -40 33q-10 12 -10.5 37zM287 385q0 18 28 61q25 35 27 39q20 20 51 47q45 61 53.5 69.5t10.5 8.5 l32 21l-4 -2l29 28h-2q20 27 59 27h4q41 0 41 -37q0 -10 -18 -43h2q-16 -33 -20 -37q-2 -6 -50 -71l-6 -7l-26 -36q-49 -49 -49 -72q0 -12 18 -39q12 -35 51 -80q25 -29 43 -67q0 -2 2 -5q0 -2 5 -7t7 -9v2q27 -45 27 -70q0 -47 -47 -47q-31 0 -57 47q-2 4 -31 33l-31 31 q-43 43 -63 74q-33 39 -49 51q-37 37 -37 90z" />
<glyph unicode="&#xac;" horiz-adv-x="978" d="M70 432v115h876v-547h-219v432h-657z" />
<glyph unicode="&#xad;" horiz-adv-x="368" d="M0 287l10 84q10 22 33 26l41 -2h33l33 -4h-3q8 0 27 6q12 2 21 2q6 0 21 -1t24 -1q16 -2 36 -2q2 0 12.5 1t18.5 1q25 4 35 4q35 0 59 -26l-2 2q12 -12 13 -25q0 -6 -9 -20q-2 -2 -2 -6q0 -43 -8 -54l2 2q-16 -20 -35 -20q-23 0 -34 2h2q-4 0 -13 2l-20 4q-16 0 -41 -4 q-6 -4 -14 -4h-7l-51 6l-30 -6q-6 0 -14.5 1t-10.5 1h-8l-37 -2l-21 -2q-8 -2 -18 -2q-25 0 -39 20q-4 6 -4 17z" />
<glyph unicode="&#xae;" horiz-adv-x="1525" d="M66 760v6q0 66 49 180q78 182 278 344q135 111 352 111q94 0 244 -49q88 -25 172 -80v2q47 -31 64 -43q49 -49 67 -66l-2 2q78 -70 113 -137v2q35 -68 70 -203v2q2 -10 10 -41.5t12 -50.5q4 -20 4 -51q0 -127 -49 -260q-29 -72 -64 -137q-10 -10 -25 -30.5t-36 -43.5v2 q-152 -178 -262 -211v2q-20 -6 -90 -16q-4 0 -74 -14q-23 -6 -70 -7l-55 -6l-65 8l-66 17q-18 4 -56 10t-50 8q-4 4 -45 25h2q-2 2 -5.5 4t-5.5 2l-80 41l-8 8q-2 4 -11 11.5t-13 11.5q-45 35 -62 53q-16 12 -53 55q-59 53 -80 80q-37 47 -45 72q-20 55 -31 90l-22 67l-2 54 v-2l-4 32l-2 50zM225 698q0 -29 15 -100q12 -80 14 -86q8 -12 14 -27q4 -8 11 -18l18 -41l57 -64q18 -43 27 -51q33 -33 125 -104q29 -20 119 -66q80 -39 90 -39h-2l94 7l57 -5q6 2 27 7q6 2 14 4t21.5 5t21.5 5q10 2 29.5 8t28.5 8q16 4 28 9q23 8 72 40l-2 -2q14 18 39 37 q49 41 67 60q63 59 76 90q10 14 23 63q18 61 43 129q6 14 6 35l-6 41v25q-4 55 -19 159v-2q-10 63 -14 70q-12 23 -35 49l-8 12q-12 8 -39 52q-16 27 -57 47q-35 18 -62 51q-49 45 -67 55h2q-2 0 -9.5 5t-11.5 8q-2 0 -8 3l-10 5q-82 37 -150 49q-12 0 -18 2q-4 2 -11.5 3 t-11.5 1q-12 4 -26 4q-76 0 -138 -6q-41 -4 -45 -4h-6q-31 0 -43 -4q-8 -2 -90 -49q-4 -4 -80 -70q-25 -20 -78 -70l2 4q-16 -16 -36 -69q-31 -68 -37 -96q-8 -27 -15 -99q-6 -61 -6 -80zM483 311q0 25 19 37l28 21q18 27 25 39q0 2 1 16t2 46t1 67q2 14 2 47q2 14 2 20 q0 8 -2 25q-2 23 -2 69l2 50q0 25 37 61h-39q0 25 -2 43v20q0 37 -10 95q-2 4 -2 8q-2 16 -6 22q0 6 -9 9q-37 18 -36 45v4q0 18 3 26.5t23.5 14.5t65.5 6q20 0 30 2h23q8 0 37 -4q10 -2 31 -2q8 0 14 2q6 0 10 2h-2q8 2 23 2q35 0 139 -17q20 -6 90 -61q14 -14 47 -76 l6 -12l-2 2q23 -41 23 -82q0 -59 -39 -121v2q-31 -45 -72 -73q18 -18 35 -70q2 -23 10 -43q2 0 2 -2t2 -2l-2 2q0 -6 4 -6q0 -2 6 -21q8 -29 13 -47q2 -35 14 -61q4 -4 6 -4l25 -4h-2q51 -2 51 -54q0 -31 -41 -53q-2 0 -6 -1l-4 -1q-8 -8 -17 -10q-63 -35 -92 -35 q-27 0 -47 29l2 -2q-6 14 -12 30q-2 2 -2 3v3q-23 51 -31 103l-12 41l-10 63l-7 29v-2q-6 37 -18 49q-35 39 -76 39q-10 0 -12 -12q-4 -8 -4 -43l-4 -41l-2 -35l-4 -37q2 -12 6 -53q2 -33 12 -45h-2q2 0 8 -3t16.5 -7.5t22.5 -10.5q25 -16 25 -43q0 -37 -39 -43h-4 q-4 -2 -9 -2q-14 0 -26 -2l-43 2h-31q-37 6 -39 6h-4q-2 -2 -6 -3t-8 -1q-25 -4 -41 -4q-63 0 -64 49zM711 938l4 -39l-2 -27v-18q0 -6 2 -18l-2 2q4 -12 4 -19l-2 -53q2 -8 2 -25v-6h71q27 0 66 35q33 33 33 86q0 10 -2 21q-2 6 -2 8q-8 16 -9 30q-4 14 -6 17q-6 2 -32 31 q-31 39 -50 41q-4 0 -9 -1.5t-15 -3.5t-21 -4q-10 -4 -12 -8q-18 -31 -18 -47v-2z" />
<glyph unicode="&#xaf;" horiz-adv-x="985" d="M0 1047v86h1024v-86h-1024z" />
<glyph unicode="&#xb0;" horiz-adv-x="876" d="M184 1036q0 70 15 105q16 39 41 69q45 63 108 95q45 29 117 28q39 0 78 -22l-2 2q51 -18 73 -39q57 -68 82 -146q14 -76 15 -96q0 -49 -31 -106q-4 -8 -10 -20.5t-6 -14.5q-1 -6 -9 -14q-51 -51 -112 -68q-37 -12 -60 -12q-158 0 -223 77q-41 70 -61 107l2 -2 q-16 29 -17 57zM315 1061q0 -6 31 -64q10 -20 21 -30l-2 2l34 -23l17 -16h2q4 -2 10 -2q29 4 47 6q39 4 39 6q68 49 68 113q0 18 -19 63q-6 12 -12 19q-6 2 -14 10q-4 2 -7.5 4t-6.5 4t-5 4q-47 35 -78 35q-16 0 -65 -25q-25 -10 -37 -26q-23 -29 -23 -80zM659 883v2v-2z " />
<glyph unicode="&#xb1;" horiz-adv-x="899" d="M66 649q0 76 38 90q35 8 97 11q16 0 30 2h23q12 0 25 -2h-3q2 -2 11 -2q14 -2 32 -3q70 0 70 27v4q0 2 -4 39v21q0 20 2 30q0 2 1 8.5t1 8.5t-1 10t-3 18.5t-2 14.5q0 8 -1 22.5t-1 18.5q0 12 4 45q10 49 64 49q43 0 65 -19q-10 -29 -10 -124h39q0 -4 -1 -19.5t-1 -24.5 v-34q0 -74 16 -90q4 -6 25 -7q6 0 55 13q10 2 29 2q8 0 32 -4q8 -2 25 -2q6 0 70 6h28q49 0 49 -51l-2 -7v-8q0 -2 -1 -9t-1 -11v-27q0 -39 -55 -43l4 2q-12 -4 -27 -4q-2 0 -6 -1t-6 -1q-12 -2 -30.5 -2t-32.5 2h-8l-7 2q-8 2 -16 2h-14q-16 -2 -41 -2h-11q-6 0 -16 1 t-14 1t-9.5 1t-7.5 1q-10 0 -14 -16q-6 -18 -6 -23l4 -61l2 -66v2l6 -41l-6 -53q-10 -49 -47 -49h-4l-27 2l-39 -6q-45 0 -45 69v11l4 71l-6 78l6 25q4 12 4 24q0 18 -16 23l-49 -2q-45 6 -51 6q-20 -2 -37 -2l-27 -2l-71 -6q-84 0 -84 61zM94 117v4l4 37l-2 37q6 33 45 36 v-2q15 5 78 9h6q4 0 11.5 -1t13.5 -1q12 -2 22 -3q20 0 50 3h-3q10 2 29 2t82 -9q16 2 51 2q29 0 111 -4h39q45 -6 53 -6h25q4 0 12 1t12 1h51q61 0 62 -41v-6l-4 -29q0 -47 -17 -63q-12 -14 -51 -14h-14q-2 0 -12.5 -1t-20.5 -1q-6 0 -23.5 -1t-27.5 -1h-21q-2 0 -8 1 t-12 1q-27 0 -43 2q-61 0 -178 6q-18 2 -37 2q-8 0 -66 -4h-8l-90 2q-2 0 -6 -2h-4h-43q-66 0 -66 43zM514 1042q6 25 14 -10q2 -4 2 -10q-6 14 -16 20zM530 1022l2 -2q0 -4 3 -4q0 -10 2 -31q2 -15 2 -33q-2 16 -5.5 40t-3.5 30z" />
<glyph unicode="&#xb2;" horiz-adv-x="565" d="M55 569q0 57 80 146q14 18 66 84l16 22q2 2 21 25q2 4 53 65q20 20 31 43q53 88 53 168q0 16 -13 56l3 -2q0 2 -3 6v4q-45 29 -61 35l-37 -11q-55 -4 -90 -32q-8 -8 -22 -9q-39 0 -39 39q0 20 43 84q53 70 135 70q45 0 82 -4q4 -2 21.5 -10.5t29.5 -12.5q0 -2 -2 -2 q2 -2 6 -2q4 -2 6 -2q80 -43 94 -112v2q6 -18 7 -86v-11q0 -57 -27 -123q-25 -37 -64 -86l-65 -65l-68 -76l2 2l-30 -37q-6 -10 -27 -35v-2q0 -12 12 -12q8 0 19 2h45l49 -4q23 0 37 14q43 39 51 39q12 0 26.5 -20.5t14.5 -32.5q0 -18 -6 -45l-2 -8q-2 -8 -2 -10 q-2 -10 -6 -35q-8 -70 -60 -70q-23 0 -37 2q-6 0 -16 1t-12 1q-14 0 -27 -2h-20q-39 0 -64 -2h2q-8 -2 -35 -2q-20 0 -55 6l-61 -6h-5q-49 0 -49 53z" />
<glyph unicode="&#xb3;" horiz-adv-x="567" d="M49 696q0 88 66 88q35 0 69 -41q23 -23 23 -57l-2 -53q4 -4 18 -12q23 -16 39 -17q8 4 29 10v-2q2 0 7 1t7 3l12 15l13 10l12 16l14 21l11 22q4 4 10 14.5t10 16.5q4 33 4 41q0 12 -10 47h2q-4 8 -29 31l-53 53l-41 10q-41 14 -41 50q0 33 37 53q6 0 10 2t14.5 5t16.5 3 q6 2 12 12q12 12 27 35l-2 -2q25 51 24 76q0 45 -32 72q-31 25 -66 24q-49 0 -65 -14q-25 -14 -37 -15q-39 0 -39 43q0 53 69 86q43 25 80 25t100.5 -32.5t90.5 -55.5q57 -57 57 -104v-7l-2 -30v-2q0 -88 -92 -158q-6 -6 -8 -6q4 -4 8 -6q111 -92 110 -197q0 -82 -6 -104 q-18 -74 -69 -105q-25 -12 -54 -22l-14 -9l-35 -14l-20 -10q-92 -10 -98 -10q-43 2 -121 75q-66 61 -66 125z" />
<glyph unicode="&#xb4;" horiz-adv-x="899" d="M387 731q0 23 49 51l-2 -2q59 37 90 80q39 47 86 47q72 0 72 -65q0 -45 -41 -72q-33 -20 -59 -22l-29 -3q-2 0 -17.5 -4t-27.5 -8h-2q-2 -2 -4 -2l6 2q-10 -8 -23 -8h4q-4 0 -11 -3t-19.5 -8l-22.5 -9q-4 -6 -14 -7q-35 0 -35 33z" />
<glyph unicode="&#xb6;" horiz-adv-x="1021" d="M53 930v43q0 53 19 96l12 33l-10 110q0 31 174 105q16 8 53 29q4 0 21.5 6t35 11t29.5 7q33 8 96 8h27q6 0 96 -4h-2l96 6q16 0 109 -6h-2h2h2h-2q66 8 94 8q106 0 107 -69q0 -25 -27 -45q-33 -25 -39 -45v2q-18 -55 -18 -275v-2q0 -18 2 -43q4 -74 4 -123v-55 q0 -102 -6 -170q-2 -6 -2 -22.5t2 -32.5q2 -51 2 -172q0 -76 -2 -183v-18q0 -14 8 -61l2 -105v2l4 -33l-2 5q4 -6 8 -16.5t10 -24.5q8 -16 39 -60v4q27 -27 27 -53q0 -53 -37 -53h-2l-49 2q-2 -2 -10 -2q-27 -6 -54 -6q-12 0 -20 2q0 2 -8 2q-20 0 -31 2q-55 8 -74 30 q-29 45 -28 121q0 23 2 52q2 14 2 51q0 39 4 82q2 20 6 73q2 8 2 21q0 39 -2 63q-4 57 -4 74q0 61 8 207q2 14 2 31q0 8 -6 75v-2q-2 6 -3 21.5t-1 21.5l6 66v4l-4 33v205q0 8 -2 18q-6 63 -8 82q0 4 -1 13t-1 14q0 25 -4 102v10q-4 18 0 19q-31 0 -33 -107q0 -27 -2 -45 q-4 -41 -4 -49q0 -4 1 -24.5t1 -30.5v-47q0 -18 -2 -48q-4 -57 -4 -86l-3 -88l-2 -73l5 -35l2 -23v-16q-4 -70 -5 -143v-74q0 -20 -6 -191q0 -14 -3 -67.5t-5 -83.5l-2 -17l2 -116q0 -51 -31 -88l2 2q-25 -37 -73 -37h-76q-2 0 -8 -1t-13 -1q-4 0 -13 -1t-15 -1q-4 0 -6 -2 h2q-8 -2 -27 -2q-49 0 -49 38q0 23 35 48q82 57 82 188v6q0 8 -1 34t-2 76t-1 99v66q0 43 4 79l6 37l-4 58l-4 59v-2q-2 8 -3 15.5t-3.5 15.5t-2.5 10q-2 6 -2 16q-4 6 -8 6h-6l-51 -2l-64 7h-12q-10 0 -51 18q-25 12 -80 45q-6 6 -13 12.5t-11.5 9.5t-6.5 7l-4 2l-18 35 l2 -2q-59 72 -66 223z" />
<glyph unicode="&#xb7;" horiz-adv-x="342" d="M82 362q0 31 22.5 54.5t53.5 23.5v-34q82 0 82 6q2 6 -37 16q25 -4 35 -6h-2q4 -2 10 -2q41 -23 41 -88q0 -45 -23 -62l2 2q-4 -8 -53 -30q-14 -6 -31 -6q-29 0 -73 38q-27 25 -27 88zM178 434q15 -4 25 -6h-4l4 -2q-20 8 -25 8z" />
<glyph unicode="&#xb8;" horiz-adv-x="880" d="M352 -137q0 18 20 36.5t36 18.5q20 0 32 -29q4 -6 23 -22l-6 2q25 -8 35 -8t10 14v16l-49 27h4q-20 6 -21 31l2 35v20q0 20 6 29q12 23 43 22q51 0 52 -37v-26l18 -8q20 -8 41 -45q8 -10 8 -27l-6 -37v-27q0 -20 -22 -43q-55 -45 -89 -45q-51 0 -75 13q-20 12 -41 43 q-20 20 -21 47z" />
<glyph unicode="&#xb9;" horiz-adv-x="524" d="M150 1276q0 20 12 33q6 8 47 26v-2l18 6q12 4 19 9q47 23 71 22q47 0 48 -57q0 -33 -3 -56v-137l-12 -219v-125q0 -2 1 -8t1 -20.5v-34.5l2 -27q0 -23 4 -43l-2 4q0 -4 17 -26q16 -27 16 -43q0 -18 -17.5 -37t-31.5 -19l-61 2q-2 0 -7.5 -1t-9.5 -1q-8 -2 -26 -2 q-61 0 -62 51q0 20 35 84q0 43 2 107l4 39v6q2 23 2 55v19q0 16 -2 30v15q0 23 2 45q2 20 2 108l2 25q-8 57 -8 78q-4 20 -4 26q-8 4 -12 8.5t-16.5 11.5t-18.5 13l6 -2q-18 8 -18 37z" />
<glyph unicode="&#xba;" horiz-adv-x="565" d="M59 700v27q0 80 11 94q35 57 61 76q84 61 180 61q53 0 84 -14q59 -23 82 -51v2q6 -8 21.5 -27.5t21.5 -27.5q16 -25 17 -95q0 -68 -39 -145q-23 -39 -76 -72q-29 -16 -37 -22l-8 -4q-45 -8 -60 -8q-109 0 -192 77q-66 66 -66 129zM195 707q2 -18 12 -43q10 -27 16 -33 q10 -12 39 -21q12 -6 33 -18l10 2h-2q37 10 51 24q39 45 39 115q0 6 -14 49v-2q-12 35 -41 68h2q-21 14 -70 14q-18 0 -20 -4q-33 -23 -49 -55q-6 -8 -6 -39v-57z" />
<glyph unicode="&#xbb;" horiz-adv-x="634" d="M53 135q0 14 17 41q4 8 8 15.5t7 11.5t3 6q14 27 57 82l27 35q49 49 49 71q0 2 -2 7.5t-7 16.5t-9 21v-2q-23 43 -51 78l2 -2q-23 25 -41 59q-6 2 -9 13q-6 14 -8 18v-2q-27 45 -26 68q0 47 45 47q33 0 57 -47l61 -62q35 -31 64 -73q18 -25 47 -54q39 -33 39 -90 q0 -18 -29 -59q-4 -10 -26 -41q-4 -4 -54 -47q-43 -59 -49 -66q-8 -8 -14 -12q-4 -4 -29 -18h2q-31 -35 -49 -44h2q-20 -12 -45 -12q-39 0 -39 41zM250 100l14 29l6 35q2 25 33 51q2 0 8 6t11 8l20 37l18 27v-2l23 37l25 26q23 27 22 33l-2 2q-2 4 -9 13.5t-13 19.5 q-27 35 -37 59l-15 27l-14 29l2 -5l-27 31h2q-55 59 -55 111q0 47 47 47q16 0 51 -27l31 -20q14 -10 47 -68l8 -8q2 -4 12.5 -16.5t16.5 -20.5l29 -39q16 -8 63 -55l-4 2q37 -27 41 -37v4q10 -14 10 -41q0 -20 -12 -41l-6 -6q-6 -4 -16.5 -13t-20.5 -20q-12 -23 -49 -53 q-45 -37 -100 -104l-29 -27q-18 -16 -59 -57q-16 -16 -31 -17q-41 0 -41 43z" />
<glyph unicode="&#xbc;" horiz-adv-x="1333" d="M168 1300q0 20 14 33q10 10 56 27l-2 -2q4 0 20 8q18 6 23 8q51 23 79 23q53 0 54 -60q0 -33 -2 -55v-141l-15 -223v-127q0 -2 1 -8.5t1 -20.5v-35l4 -29q0 -23 5 -43l-3 4q0 -4 17 -26q18 -27 18 -43q0 -20 -18.5 -39t-36.5 -19l-70 3q-2 0 -7 -1.5t-9 -1.5 q-10 -2 -31 -2q-72 0 -71 52q0 20 41 86q0 4 4 108l4 41v6q2 20 2 56v18q0 16 -2 31v16q0 23 2 45q2 20 2 111v24q-6 72 -6 82q-4 14 -6 25q-2 2 -7.5 6t-7.5 4q-6 4 -18.5 11.5t-18.5 11.5l6 -2q-23 8 -22 38zM223 18q0 10 17 31l-2 -4q0 2 3 8t9 18.5t10 22.5v-2 q18 35 45 82v-2q6 8 57 80l31 61l53 90v-2l19 37l14 27q18 29 51 70q25 25 66 124q12 25 41 68l20 41l54 82l-2 -2l30 59q16 27 31.5 52.5t26 43t10.5 19.5v-2q10 20 24 51q39 84 43 94q4 4 11 15q10 12 14 18l-2 -2q16 33 51 98q33 59 56 86q18 21 57 21q63 0 63 -49 q0 -25 -8 -35l-129 -221v2q-6 -12 -12 -27.5t-10 -25t-7 -13.5q-27 -47 -47 -76l2 2q-2 -2 -10 -17t-21.5 -39.5t-29.5 -51.5q-8 -20 -41 -72v2l-9 -18t-7 -14.5t-4 -6.5l-31 -34l-2 -5q-2 -4 -6 -14t-9 -18q-6 -20 -16 -41q-76 -143 -86 -170v2q-12 -41 -33 -62l-57 -63 l-12 -27q4 4 0 -4l-7 -14q-8 -14 -10 -21l-10 -18q-16 -16 -45 -74q-4 -12 -43 -63l-16 -23q-2 -4 -8.5 -13t-8.5 -13q-47 -78 -57 -89q-12 -12 -35 -12q-76 0 -76 53zM770 395q0 29 53 86q18 18 43 49q57 70 68 76q23 14 37 35l16 14l29 37q8 8 39 43l26 27l-4 -6 q4 4 17 20q2 2 6 7l8 10l16 22l13 14v-2q23 35 53 35q49 0 49 -53v-16q-2 -18 -2 -52q0 -8 2 -26v-49l-2 -117v-23q2 -10 2 -20q0 -25 -2 -39q-2 -4 -2 -12v-2l20 -19q10 -14 11 -35v-20q-10 -23 -33 -49v-242q0 -86 -62 -86q-47 0 -63 4q-14 2 -28.5 17.5t-14.5 25.5v6 q2 14 8 92q-6 45 -6 60q0 45 2 74v-2q0 4 1 10t1 8v14q0 10 2 17l-2 -4q2 2 2 4q-4 12 -31 12h-2q-18 0 -39 -2h-94l-55 2q-82 0 -82 55zM961 463h6q10 0 26 8q12 -2 34 -5t26 -3q12 -2 18 -2h4q0 18 6 57q0 4 2 12.5t2 12.5v69q-8 -6 -26.5 -23.5t-24.5 -23.5 q-12 -16 -18 -22q-2 -2 -6 -8.5t-6 -8.5l2 2q-18 -31 -45 -65z" />
<glyph unicode="&#xbd;" horiz-adv-x="1333" d="M168 1300q0 20 14 33q10 10 56 27l-2 -2q8 0 20 8q18 6 23 8q51 23 81 23q51 0 52 -60q0 -33 -2 -55v-141l-15 -223v-127q0 -2 1 -8.5t1 -20.5v-35l4 -29q0 -23 5 -43l-3 4q0 -6 19 -26q16 -29 16 -43q0 -20 -18.5 -39t-36.5 -19l-70 3l-6 -3h-10q-10 -2 -31 -2 q-70 0 -69 52q0 23 39 86q0 4 4 108l4 41v6q2 20 2 56v18q0 16 -2 31v16q0 23 2 45q2 20 2 111l2 24q-8 63 -8 82q-4 14 -6 25q-2 2 -7.5 6t-7.5 4q-16 10 -37 23l6 -2q-23 8 -22 38zM223 18q0 10 17 31l-2 -4q0 2 3 8t9 18.5t10 22.5v-2q20 41 47 82v-2q6 16 58 80l28 61 l53 90v-2l19 37l16 27q14 31 51 70q25 27 64 124q14 31 43 68l18 41l54 82l-2 -2l30 59q16 25 70 115v-2q10 20 22 51q6 12 21.5 45t24.5 49q0 2 2 4q2 4 6 11q10 12 14 18l-2 -2q18 33 51 98q33 53 56 86q20 21 57 21q66 0 65 -49q0 -23 -10 -35l-127 -221v2 q-23 -53 -31 -66q-31 -53 -45 -76l2 2q-2 -4 -9 -17t-22.5 -40t-29.5 -51q-6 -10 -19.5 -33.5t-21.5 -38.5v2q-20 -37 -22 -39l-29 -34l-2 -5q-2 -4 -6 -14t-9 -18q-8 -20 -18 -41q-66 -125 -84 -170v2q-12 -39 -35 -62l-57 -63l-12 -27q4 4 0 -6q-4 -12 -17 -33l-10 -18 q-18 -18 -43 -74q-31 -47 -43 -63l-18 -23q-2 -4 -8.5 -13t-8.5 -13q-39 -72 -57 -89q-12 -12 -35 -12q-76 0 -76 53zM799 47q0 59 86 152l-2 -2q14 23 45 55l22 31l19 22q53 63 78 90q23 25 28 39q59 102 60 178q0 4 -17 58q-2 8 -49 37l10 -2h-2l-4 2q-16 4 -18 6l-39 -8 q-55 -10 -92 -35q-8 -6 -25 -6q-39 0 -39 38q0 23 43 82q55 72 144 72q47 0 83 -4q4 -2 56 -25q0 -2 -2 -2q6 0 12 -2q84 -43 98 -112v2q6 -20 6 -88v-15q0 -61 -24 -118q-10 -20 -47 -66q-47 -47 -90 -94l-72 -78l2 2q-6 -6 -20.5 -23.5t-18.5 -21.5q-12 -16 -22 -27h2 l-13 -12h13l80 2l51 -6q18 0 37 14q8 8 17 15.5t14 11.5t8 6l6 8q16 0 34.5 -21.5t18.5 -33.5q0 -14 -6 -45q2 -2 0 -8l-4 -9q-4 -16 -6 -36q-12 -72 -64 -72h-35q-8 0 -19.5 1t-15.5 1h-49q-41 0 -67 -2h-33q-33 0 -57 2l-68 -2h-6q-47 0 -47 49z" />
<glyph unicode="&#xbe;" horiz-adv-x="1337" d="M51 709q0 90 70 90q37 0 74 -43q23 -20 22 -58l-4 -53q0 -2 20 -14q25 -16 41 -17q8 4 31 11v-2q2 0 8 1t9 3l12 14l12 12l12 17l17 20l10 23l21 32q4 29 4 41.5t-11 47.5h2q-4 8 -28 32q-37 33 -58 54l-41 10q-45 14 -45 49q0 33 41 55q4 0 9 2q25 4 32 8q8 2 15 13 q14 14 26 37l-2 -2q27 53 27 75q0 45 -37 74q-29 23 -66 23q-51 0 -69 -13q-29 -14 -41 -14q-39 0 -39 43q0 51 74 88q43 25 81.5 25t106.5 -33q74 -39 94 -57q59 -59 60 -107v-6l-2 -31v-2q0 -90 -97 -162q-6 -6 -8 -6q4 -4 8 -6q117 -92 117 -199q0 -84 -6 -106 q-23 -78 -74 -107q-25 -12 -55 -24l-16 -8l-35 -13l-23 -10q-86 -12 -102 -12q-43 2 -127 78q-70 63 -70 127zM223 18q0 10 17 31l-2 -4l2 4q2 6 5 12.5t8 15.5t9 17v-2q27 53 45 82v-2q6 8 58 80l30 61l54 90v-2l16 37l16 27q18 29 51 70q25 25 66 124q12 25 41 68l20 41 l54 82l-2 -2l30 59q16 25 70 115v-2q10 20 23 51q6 12 21 45t24 49q4 4 8 15q10 12 14 18l-2 -2q18 33 51 98q33 53 56 86q20 21 59 21q63 0 63 -49q0 -20 -8 -35l-129 -221v2q-18 -45 -30 -68v2q-37 -63 -46 -76q-2 -4 -14 -25.5t-36.5 -64.5t-49.5 -88v2q-20 -37 -22 -39 l-31 -34q0 -6 -14 -37q-8 -20 -19 -41q-76 -143 -86 -170v2q-8 -31 -33 -62l-57 -63l-12 -27v-4l-2 -2q-20 -43 -25 -51q-14 -20 -27 -37q-10 -14 -14 -33q-33 -49 -47 -67l-18 -23q-12 -23 -15 -26q-43 -72 -57 -89q-12 -12 -37 -12q-76 0 -76 53zM772 395q0 35 35 64 q2 2 7 8t9 10q2 4 49 55l-2 -2l15 19q33 29 92 92l14 14l29 37q8 8 39 43q14 18 20 23q12 8 33 35l16 22l13 14v-2q23 35 53 35q51 0 51 -53q0 -18 -2 -45v-23q0 -8 2 -26v-49l-2 -117v-23q2 -10 2 -20q0 -25 -2 -39q-2 -4 -2 -12q0 -2 -2 -2l21 -19q10 -14 10 -35v-20 q-10 -23 -33 -49v-242q0 -86 -61 -86q-47 0 -64 4q-14 2 -29.5 17.5t-15.5 25.5v6q6 35 10 92q-8 41 -8 60h39q-4 0 -11 9t-15.5 31.5t-8.5 49.5v27l2 6q-4 10 -28 10h-3q-18 0 -38 -2h-95l-55 2q-84 0 -84 55zM965 463h6q10 0 26 8q12 -2 34 -5t26 -3q10 -2 16 -2h6 q0 18 6 57q0 4 2.5 12.5t2.5 12.5v69q-10 -6 -28 -24.5t-24 -22.5q-12 -16 -18 -22q-10 -10 -14 -17l2 2q-14 -29 -43 -65z" />
<glyph unicode="&#xbf;" horiz-adv-x="704" d="M90 -197q0 29 25 93l20 49l43 67l-2 -2q4 8 17.5 28.5t19.5 31.5l18 30q23 23 43 54q16 29 50 90l20 35v-3q18 49 41 117l-2 -2q2 6 2 35q0 59 47 59q45 0 45 -51q0 -8 -12 -129q0 -25 -21 -78q-6 -18 -10 -39l-2 -6q-2 -6 -4 -16t-4 -16q-14 -43 -39 -109l-10 -29 l-31 -84l-14 -30v2l-15 -41q-29 -86 -28 -92q0 -61 14 -113l6 -31q12 -61 51 -100q25 -25 74 -25t84 29q23 16 23 61q0 6 -4 19q-4 4 -6.5 8t-26.5 37q-10 14 -10 51q0 106 81 107q25 0 43 -11q16 -8 39 -43l-2 2q12 -12 17 -20l-2 2q23 -35 22 -64q0 -35 -14 -86 q-4 -20 -37 -77l-2 -2q-2 -2 -4 -6.5t-6 -8.5q-2 -2 -8.5 -8t-8.5 -10q-49 -51 -137 -78q-41 -10 -67 -10q-31 0 -50 6q-14 0 -30 4q-6 2 -11.5 2h-9.5q-41 14 -80 53q-82 88 -96 113q-39 63 -39 235zM284.5 709q0.5 55 28.5 75q12 10 62 33q15 8 31 8q25 0 71 -41 q39 -31 39 -100q0 -100 -88 -100q-14 0 -55 18l2 -2q-59 14 -68 31v-2q-23 25 -22.5 80z" />
<glyph unicode="&#xc0;" horiz-adv-x="1056" d="M0 47q0 29 18 41l37 31q10 6 33 65v-2q4 14 37 54q2 2 20 77q2 6 8.5 18.5t14.5 35t16 39.5v-3q4 14 15 39l32 88q96 264 101 279l-2 -4q0 2 3 9t8 19.5l9 22.5q6 23 43 113q51 131 58 151q31 106 45 203q16 92 67 92q27 0 45 -47q2 -4 9.5 -24.5t23.5 -69.5t33 -96 q6 -14 14 -33q2 -4 9.5 -19.5t11.5 -23.5q2 -12 12 -53q4 -12 12 -43h-2q10 -33 12 -45q10 -35 33 -74l55 -150l19 -65v2l33 -111q6 -18 21.5 -71.5t25.5 -83.5l-2 2q16 -37 47 -144q27 -90 59 -129q12 -6 47 -35q20 -16 21 -45q0 -43 -53 -53v2q-12 -4 -62 -4 q-8 0 -25.5 -1t-27.5 -1l-51 -4q-10 0 -74 12q-49 -16 -76 -16q-51 0 -51 41q0 25 35 51q51 45 51 94q0 27 -18 84q-4 8 -7 17q-4 14 -28 71v-2q-12 20 -33 127l2 -2q-20 61 -80 62l-6 2h-6q-25 4 -57 14q-35 10 -68 10q-59 0 -86 -10q-25 -8 -43 -76v2q-14 -55 -31 -80h2 q-23 -39 -33 -73q-4 -14 -6 -25q-2 -2 -4 -10t-2 -10l2 2q0 -6 -1 -17.5t-3 -17.5q-6 -39 -6 -43q0 -31 6 -47h2l2 -2q31 -31 62 -66q29 -29 28 -45q0 -45 -67 -45q-29 0 -66 2h-69l-86 -2q-68 0 -68 49zM330 1593.5q0 40.5 29.5 76.5t66.5 36q14 0 53 -25l13 -10 q6 -6 27.5 -31.5t37.5 -44.5q10 -10 21 -18q14 -14 24 -23q43 -35 43 -71q0 -41 -41 -41q-8 0 -47 18q-20 8 -29 13l2 -3l-65 21l-43 14l-8 4v-2q-2 0 -8.5 3t-17.5 7.5t-23 10.5q-35 25 -35 65.5zM453 741q0 -10 4 -26q10 -20 65 -31h-2q27 -6 31 -8v2q27 -8 39 -8q6 0 6 8 q0 100 -25 186q-25 78 -36 90l-15 -26q-33 -55 -41 -70v4q-27 -90 -26 -121zM811 8q2 0 6 2q-4 0 -6 -2z" />
<glyph unicode="&#xc1;" horiz-adv-x="1056" d="M0 47q0 29 18 41l37 31q10 6 33 65v-2q4 14 37 54q2 2 20 77q2 6 8.5 18.5t14.5 35t16 39.5v-3q4 14 15 39l32 88q47 125 99 273q8 23 20 53q6 23 43 113q51 131 58 151q31 106 45 203q14 90 67 90q27 0 45 -45q2 -4 9.5 -24.5t23.5 -69.5t33 -96q6 -14 14 -33 q2 -4 9.5 -19.5t11.5 -23.5q2 -12 12 -53q4 -12 12 -43h-2q10 -33 12 -45q10 -35 33 -74l55 -150l19 -65v2l33 -111q6 -18 21.5 -71.5t25.5 -83.5l-2 2q16 -37 47 -144q27 -90 59 -129q12 -6 47 -35q20 -16 21 -45q0 -43 -53 -53v2q-12 -4 -62 -4q-8 0 -25.5 -1t-27.5 -1 l-51 -4q-10 0 -74 12q-49 -16 -76 -16q-51 0 -51 41q0 25 35 51q51 45 51 94q0 27 -18 84q-4 8 -7 17q-4 14 -28 71v-2q-12 20 -33 127l2 -2q-20 61 -80 62l-6 2h-6q-25 4 -57 14q-35 10 -68 10q-59 0 -86 -10q-25 -8 -43 -76v2q-14 -55 -31 -80h2q-23 -39 -33 -73 q-4 -14 -6 -25q-2 -2 -4 -10t-2 -10l2 2q0 -6 -1 -17.5t-3 -17.5q-6 -39 -6 -43q0 -31 6 -47h2l2 -2q31 -31 62 -66q29 -29 28 -45q0 -45 -67 -45q-29 0 -66 2h-69l-86 -2q-68 0 -68 49zM453 741q0 -10 4 -26q10 -20 65 -31h-2q27 -6 31 -8v2q27 -8 39 -8q6 0 6 8 q0 100 -25 186q-25 78 -36 90l-15 -26q-33 -55 -41 -70v4q-27 -90 -26 -121zM473 1483q0 25 51 61.5t101 97.5q39 58 92 58q80 0 80 -80q0 -53 -47 -86q-29 -25 -62 -29l-35 -4q-2 0 -6 -2q-18 -4 -37 -10q-4 -2 -20 -8q-6 -2 -10 -4q-2 0 -5.5 -1t-5.5 -3q-57 -27 -61 -27 q-35 0 -35 37zM811 8q2 0 6 2q-4 0 -6 -2z" />
<glyph unicode="&#xc2;" horiz-adv-x="1056" d="M0 47q0 29 18 41l37 31q10 6 33 65v-2q4 14 37 54q2 2 20 77q2 6 8.5 18.5t14.5 35t16 39.5v-3q4 14 15 39l32 88q33 90 99 275q0 2 3 9t8 19.5l9 22.5q6 23 43 113q51 131 58 151q31 102 45 203q16 92 67 92q27 0 45 -47q2 -4 9.5 -24.5t23.5 -69.5t33 -96q6 -12 14 -33 q2 -4 9.5 -19.5t11.5 -23.5l12 -53q4 -12 12 -43h-2q10 -25 12 -45q10 -35 33 -74l55 -150l19 -65v2l33 -111q6 -16 12 -38.5t16.5 -57.5t18.5 -59l-2 2q16 -37 47 -144q27 -90 59 -129q12 -6 47 -35q20 -16 21 -45q0 -43 -53 -53v2q-12 -4 -62 -4q-8 0 -25.5 -1t-27.5 -1 l-51 -4q-10 0 -74 12q-49 -16 -76 -16q-51 0 -51 41q0 25 35 51q51 45 51 94q0 27 -18 84q-4 8 -7 17q-4 14 -28 71v-2q-12 20 -33 129l2 -2q-23 59 -80 60l-6 2h-6q-25 4 -57 14q-31 12 -68 12q-61 0 -86 -12q-23 -8 -43 -74q-14 -55 -31 -80h2q-23 -39 -33 -73 q-4 -14 -6 -23v2l-6 -24l2 2q0 -6 -1 -17.5t-3 -17.5q-6 -39 -6 -43q0 -31 6 -47h2l2 -2q31 -31 62 -66q29 -29 28 -45q0 -45 -67 -45q-29 0 -66 2h-69l-86 -2q-68 0 -68 49zM371 1462q0 6 32 56h-2l19 36l33 48l-2 -3l14 23l33 43l4 8q10 27 18 35q12 16 53 16q12 0 37 -10 l4 -6q4 -4 7 -6q4 -4 20 -29l35 -51l18 -27q2 -4 8.5 -16t10.5 -18q2 -4 7 -14.5t9 -16.5q4 -8 8 -16.5t6 -13.5t2 -7l-2 4q12 -14 13 -33q0 -35 -37 -34q-25 0 -111 71l-43 68q-14 0 -30 -35q-20 -41 -48 -57q-23 -18 -38 -33q-20 -20 -43 -21q-35 0 -35 39zM453 741 q0 -10 4 -26q10 -20 65 -31h-2q27 -6 31 -8v2q27 -8 39 -8q6 0 6 8q0 100 -25 186q-25 78 -36 90l-15 -26q-18 -27 -41 -70v4q-27 -90 -26 -121zM811 8q2 0 6 2q-4 0 -6 -2z" />
<glyph unicode="&#xc3;" horiz-adv-x="1056" d="M0 47q0 29 18 41l37 31q10 6 33 65v-2q4 14 37 54q2 2 20 77q2 6 8.5 18.5t14.5 35t16 39.5v-3q4 14 15 39l32 88q47 125 99 273q8 23 20 53q6 23 43 113q51 131 58 151q31 106 45 201q14 92 67 92q27 0 45 -45q2 -4 9.5 -24.5t23.5 -69.5t33 -96q6 -14 14 -35l21 -41 q2 -12 12 -53q4 -12 12 -43h-2q10 -31 12 -45q10 -35 33 -74l55 -150l19 -65v2l33 -111q6 -18 21.5 -71.5t25.5 -83.5l-2 2q20 -45 47 -144q27 -90 59 -129q12 -6 47 -35q20 -16 21 -45q0 -43 -53 -53v2q-12 -4 -62 -4q-8 0 -25.5 -1t-27.5 -1l-51 -4q-10 0 -74 12 q-49 -16 -76 -16q-51 0 -51 41q0 25 35 51q51 45 51 94q0 27 -18 84q-4 8 -7 17q-4 14 -28 71v-2q-12 20 -33 127l2 -2q-20 61 -80 62l-6 2h-6q-18 2 -57 12q-31 12 -68 12q-61 0 -86 -12q-25 -6 -43 -74v2q-14 -55 -31 -80h2q-23 -39 -33 -73q-4 -14 -6 -25v2q0 -2 -1 -6 t-3 -9t-2 -7l2 2q0 -6 -1 -17.5t-3 -17.5q-6 -39 -6 -43q0 -31 8 -47l2 -2q31 -31 62 -66q29 -29 28 -45q0 -45 -67 -45q-29 0 -66 2h-69l-86 -2q-68 0 -68 49zM319 1520q0 6 37 63l21 25l-2 -2q14 23 49 55q32 20 63 20q18 0 27 -2q18 -6 37 -16l14 -8l41 -13 q61 -35 74 -34q31 0 68 37q8 2 14 8q39 0 39 -35q0 -23 -17 -39q-4 -8 -8 -12q-2 -2 -18 -23q-51 -80 -113 -80q-29 0 -57 11q-37 14 -60 24l2 -2l-30 10q-57 29 -86 29q-6 0 -17 -14l2 2q-25 -41 -41 -41q-39 0 -39 37zM453 741q0 -14 4 -26q10 -20 65 -31h-2q27 -6 31 -8 v2q27 -8 39 -8q6 0 6 8q0 96 -25 186q-25 78 -36 90l-15 -26q-33 -55 -41 -70v4q-27 -92 -26 -121zM811 8q2 0 6 2q-4 0 -6 -2z" />
<glyph unicode="&#xc4;" horiz-adv-x="1056" d="M0 47q0 29 18 41l37 31q10 6 33 65v-2q4 14 37 54q2 2 20 77q2 6 8.5 18.5t14.5 35t16 39.5v-3q4 14 15 39l32 88q47 125 99 273q8 23 20 53q6 23 43 113q51 131 58 151q31 106 45 201q14 92 67 92q27 0 45 -45q2 -4 9.5 -24.5t23.5 -69.5t33 -96q6 -14 14 -35l21 -41 q2 -12 12 -53q4 -12 12 -43h-2q10 -31 12 -45q10 -35 33 -74l55 -150l19 -65v2l33 -111q6 -18 21.5 -71.5t25.5 -83.5l-2 2q20 -45 47 -144q27 -90 59 -129q12 -6 47 -35q20 -16 21 -45q0 -43 -53 -53v2q-12 -4 -62 -4q-8 0 -25.5 -1t-27.5 -1l-51 -4q-10 0 -74 12 q-49 -16 -76 -16q-51 0 -51 41q0 25 35 51q51 45 51 94q0 27 -18 84q-4 8 -7 17q-4 14 -28 71v-2q-12 20 -33 127l2 -2q-20 61 -80 62l-6 2h-6q-18 2 -57 12q-31 12 -68 12q-61 0 -86 -12q-25 -6 -43 -74v2q-14 -55 -31 -80h2q-23 -39 -33 -73q-4 -14 -6 -25v2q0 -2 -1 -6 t-3 -9t-2 -7l2 2q0 -6 -1 -17.5t-3 -17.5q-6 -39 -6 -43q0 -31 6 -47l4 -2q31 -31 62 -66q29 -29 28 -45q0 -45 -67 -45q-29 0 -66 2h-69l-86 -2q-68 0 -68 49zM268 1554q0 35 33 74q49 53 80 53q23 0 74 -34q25 -16 30 -39q0 -16 2 -33v2q6 -25 7 -35q0 -18 -15 -41v2 q-16 -41 -34.5 -52t-61.5 -11q-23 0 -61 24v-2q-53 31 -54 92zM453 741q0 -14 4 -26q10 -20 65 -31h-2q27 -6 31 -8v2q27 -8 39 -8q6 0 6 8q0 96 -25 186q-25 78 -36 90l-15 -26q-33 -55 -41 -70v4q-27 -92 -26 -121zM649 1567q0 37 24.5 67.5t57.5 30.5h12q41 0 66 -18 q45 -27 45 -97q0 -27 -10 -55l2 2q-2 -23 -43 -39q-35 -20 -60 -20q-94 0 -94 129zM811 8q2 0 6 2q-4 0 -6 -2z" />
<glyph unicode="&#xc5;" horiz-adv-x="1056" d="M0 47q0 29 18 41l37 31q10 6 33 65v-2q4 14 37 54q2 2 20 77q2 6 8.5 18.5t14.5 35t16 39.5v-3q4 14 15 39l32 88q33 90 99 275q0 2 3 9t8 19.5l9 22.5q6 23 43 113q51 131 58 151q31 102 45 203q16 92 67 92q27 0 45 -47q2 -4 9.5 -24.5t23.5 -69.5t33 -96q6 -12 14 -33 q2 -4 9.5 -19.5t11.5 -23.5l12 -53q4 -12 12 -43h-2q10 -25 12 -45q10 -35 33 -74l55 -148l19 -67v2l33 -109q6 -20 22.5 -73.5t24.5 -83.5l-2 2q16 -37 47 -144q27 -90 59 -129q12 -6 47 -35q20 -16 21 -45q0 -43 -53 -53v2q-12 -4 -62 -4q-8 0 -25.5 -1t-27.5 -1l-51 -4 q-10 0 -74 12q-49 -16 -76 -16q-51 0 -51 41q0 25 35 51q51 45 51 94q0 27 -18 84q-4 8 -7 17q-4 14 -28 71v-2q-12 20 -33 129l2 -2q-23 59 -80 60l-6 2h-6q-25 4 -57 14q-31 12 -68 12q-61 0 -86 -12q-23 -8 -43 -74v2q-14 -57 -31 -82h2q-23 -39 -33 -73q-4 -14 -6 -23v2 l-6 -24l2 2q0 -6 -1 -17.5t-3 -17.5q-6 -39 -6 -43q0 -31 6 -47h2l2 -2q31 -31 62 -66q29 -29 28 -45q0 -45 -67 -45q-29 0 -66 2h-69l-86 -2q-68 0 -68 49zM420 1604q0 57 82 106h-2q28 21 53 25h4q18 0 55 -19q43 -20 54 -33q20 -25 28 -57l6 -24q0 -49 -18 -82 q-47 -80 -133 -80q-129 0 -129 164zM453 741q0 -10 4 -26q10 -20 65 -31h-2q27 -6 31 -8v2q27 -8 39 -8q6 0 6 8q0 100 -25 186q-25 78 -36 90l-15 -26q-18 -27 -41 -70v4q-27 -90 -26 -121zM524 1591q0 -25 21 -41h22q14 2 23 21q6 16 6 20q0 16 -21 31v-2q-16 8 -24 8 q-27 0 -27 -37zM811 8q2 0 6 2q-4 0 -6 -2z" />
<glyph unicode="&#xc6;" horiz-adv-x="1605" d="M0 37q0 25 16 43l4 2q2 2 9.5 7t12.5 9t13 11q8 4 15 10q18 8 49 55q33 37 43 53l-2 -2q0 2 10 18.5t16 30.5q10 27 37 76v-2q8 16 51 72v-2q39 55 48 67h-3l29 50l21 32l-2 -2q10 18 88 144q10 12 26.5 34.5t26.5 34.5v-2l51 103q4 14 49 73q23 33 51 86l52 78l-2 -2 l26 47q27 57 27 76q0 8 -21 25q-39 27 -39 49q0 61 68 61q18 0 37 -2h16q29 0 56 2q6 0 21 1t24 1q20 0 47 2h20q6 0 17.5 1t15.5 1q51 0 90 -10q16 -6 21 -6q14 2 41 6l-2 -2q8 4 32.5 4t48.5 2q20 2 52 2q49 0 100 -12h-2l4 -2h4q4 0 25 4q25 4 39 4q57 0 63 -49l4 -66 q2 -10 2 -16q0 -4 1 -10t1 -10q0 -6 -17.5 -19.5t-23.5 -15.5h39q0 -23 10 -80q4 -29 5 -41q0 -55 -41 -55l-19 10q-18 10 -32.5 20.5t-45.5 81.5l-18 31q-14 23 -19 27l-8 8q-16 16 -47 28l4 -2l-30 4l-31 3q-12 0 -35 8h2q-55 18 -92 18q-72 0 -78 -33q-2 -4 -2 -18 q0 -2 -1 -11.5t-1 -13.5l-4 -28v-19q-10 -55 -10 -100v-88v-64v-18q0 -76 49 -76q23 0 43 14q63 41 96 80q25 29 47 29q29 0 45 -37q2 -14 4 -51l2 -39v-27q0 -23 -4 -84l-4 -36q0 -12 2 -19q0 -4 1 -11t1 -9l-2 -13q6 -18 6 -24q0 -20 -18 -58v3q-6 -25 -33 -25q-8 0 -14 2 l-10 2l-25 33l-22 26l-15 45l-35 33q-12 18 -20 21q-8 8 -47 8q-25 0 -29 -10l2 -90q-4 -31 -14 -68q-10 -45 -10 -70q0 -12 2 -22q0 -2 1 -12.5t1 -14.5l-2 -49q0 -43 -2 -68q0 -4 -1 -14t-1 -12l-5 -25v-6q0 -47 103 -49q66 -8 84 -8q12 0 67 16q31 8 37 15l35 32 q14 8 25.5 16.5t16.5 12.5t7 4q4 12 13 29q4 8 14 35.5t18 46.5v-2q12 43 55.5 43t43.5 -62q0 -141 -9 -188v2l-6 -82q-14 -53 -65 -53q-11 0 -95 18q-4 0 -10 1t-10 3q-49 -8 -61 -8h-13q-4 0 -86 4l-147 -6q-23 0 -37 2q-8 0 -18.5 1t-14.5 1h-14q-68 0 -141 -2l-89 -4 q-51 0 -51 41q0 31 25 49q0 12 16 12l13 6q12 4 20 7q33 39 39 51l-2 -4q4 18 10 65q4 41 4 58v34q0 39 -2 64q0 2 -1 6t-1 8l-2 17q0 18 -2 24q-4 84 -31 84h-90q-18 0 -55 19q-45 23 -74 22q-49 0 -55 -16l-10 -15l-13 -16l-18 -37q-25 -35 -107 -205q-31 -61 -36 -75 v-14.5v-22v-23.5q0 -25 26 -31q57 -25 58 -67q0 -41 -46 -41q-12 0 -28 4l-10 4l-29 -2h-17h-2q-6 -4 -16 -4q-23 0 -35 2q-6 2 -14 2h-141q-68 4 -68 37zM610 715q0 -2 4 -6q16 -2 48 -9h-3q2 -2 9 -2q59 0 71 -4v2q23 -8 31 -8l31 -8q23 0 22 31v82q0 55 4 170q4 33 4 36 q0 8 5 37q2 13 2 29l2 2v4q-6 -2 -49 -51q-29 -31 -50 -74v2l-4 -6q-2 -2 -8 -16.5t-22.5 -47t-30.5 -63.5q-2 -2 -7 -9t-15.5 -21.5t-22.5 -30.5q-20 -23 -21 -39z" />
<glyph unicode="&#xc7;" horiz-adv-x="1255" d="M86 702q0 125 12 187q20 104 84 182q10 12 39 47q2 2 4 6l4 4l52 86q29 47 182 119q133 57 141 60q78 23 150 22q190 0 366 -106q18 -12 72 -33q37 -14 39 -51q6 -49 6 -135q0 -2 -1 -10.5t-1 -14.5q-2 -10 -2 -27v-61q0 -41 -41 -41q-27 0 -45 37l-2 2q-2 4 -3 8t-3 8 q-8 12 -15 29q-4 12 -16 33q-6 12 -16 28q-6 10 -7 13q-16 25 -28 32l-66 45q-51 41 -104 76l2 -2q-41 8 -92 17q-55 10 -70 10q-25 0 -53 -17q-53 -12 -125 -73q-55 -31 -60 -35q-57 -66 -88 -127q-43 -98 -43 -117v-92q0 -6 -2 -14v-9l-2 -6q-20 -63 -20 -75q0 -4 4 -17 q4 -33 4 -74v-12q0 -6 -1 -16t-1 -15q-2 -12 -2 -20v-8l4 -29v-76q0 -18 41 -104q33 -61 59 -90q82 -88 158 -113v2q53 -14 100 -14l99 2q68 0 88 2q6 2 14 2q2 0 6 1t6 1q33 0 54 10v-2q39 27 82 78h-2q2 4 12 20.5t22.5 37t26.5 40.5q12 16 14 31v-4v4q2 4 2 6 q10 63 56 64q49 0 49 -66q0 -41 -2 -67q0 -6 -1 -19.5t-1 -21.5v-58q-4 -61 -8 -78v2q-6 -18 -31 -34l-31 -17l2 2l-8 -6q-53 -33 -84 -43h2l-57 -18l2 2q-78 -31 -119 -31h-6l-92 2q-27 0 -27 -6l39 -18l-4 2q8 -2 31.5 -36t19.5 -42l-8 -41l2 -12v-15q0 -31 -27 -51 q-55 -49 -98 -49q-55 0 -84 12q-23 10 -47 47q-23 23 -23 53q0 18 19.5 40t40.5 22q23 0 53 -57q2 -6 43 -7q14 0 14 15v20l-59 31q-18 10 -18 37q0 2 1 12t1 14q2 10 2 23q0 6 -2 12q0 -2 -23 -2q-39 0 -104 37q-37 20 -113 72l-18 12q-90 66 -134 113q-41 43 -125 188 q-35 70 -53 135q-8 31 -8 178z" />
<glyph unicode="&#xc8;" horiz-adv-x="968" d="M76 35q0 31 24 49q0 12 15 12q8 2 32 15q33 35 39 49l-2 -4q6 23 9 65q2 23 6 64q-2 10 -2 34v109q-2 23 -2 45l2 19v14q0 37 11 78t21.5 65.5t14.5 28.5l-37 -2q-2 18 -4 59v-2q-2 12 -2 45t2 47v56l4 86q4 74 10 106l-12 57q-14 63 -21 76q-23 35 -86 76q-16 10 -16 37 q0 61 76 61l43 -2q2 0 16 1t25 1q8 0 26.5 1t32.5 1q16 0 43 2h23q6 0 17 1t15 1q49 0 88 -10q16 -6 21 -6q14 2 39 6l-2 -2q8 4 30 4q25 0 50 2q20 2 49 2q47 0 98 -12l4 -2h6l-6 -2q23 4 39 8l4 2h8h13q59 0 65 -49q2 -8 6 -78v-30v-33v-21q2 -6 4.5 -23.5l4.5 -31.5 q0 -16 2 -23q2 -10 2 -24q0 -53 -41 -53l-49 32q-12 10 -46 82l-16 31q-4 10 -18 27l-9 8q-16 16 -45 29v-2q-12 2 -63 6q-2 2 -14 6h-7l-4 2q-55 18 -90 18q-76 0 -78 -32v-19q0 -2 -1 -11t-1 -13l-4 -29v-19q-12 -70 -12 -100v-6q0 -4 1 -35t1 -49q0 -39 -2 -82 q0 -76 47 -76q25 0 45 15q63 43 94 79q20 31 45 31q27 0 43 -39v-22q0 -4 1 -13.5t1 -13.5l5 -39v-28q0 -20 -5 -86l-2 -29q0 -20 2 -47q0 -10 5 -27v-8q0 -20 -17 -59v2q-6 -23 -33 -23q-20 0 -47 33l-22 31l-17 43l-32 34q-8 12 -16.5 20.5t-49.5 8.5q-25 0 -29 -10l2 -39 q0 -6 -1 -21.5t-1 -25.5q0 -39 -8 -72q-12 -57 -12 -75.5t2 -41.5l-2 -55q0 -41 -2 -68q0 -4 -1 -13t-1 -11l-4 -25v-6q0 -49 98 -49h6q6 0 29 -2l51 -6q4 0 66 14q33 8 34 15l41 38q43 29 45 35l-2 -4q12 27 43 109v-2q12 43 52 43q45 0 45 -64q0 -143 -9 -186v2l-4 -82 q-12 -55 -65 -55q-12 0 -92 18q-4 0 -9.5 1t-9.5 3q-49 -8 -61 -8h-12q-4 0 -87 4l-143 -6q-2 0 -14 1t-19 1q-14 2 -34 2h-13q-66 0 -139 -2l-84 -4q-53 0 -53 41zM301 1593.5q0 40.5 29.5 76.5t66.5 36q12 0 52 -25l12 -10v2q4 -4 14 -17.5t22.5 -28.5t28.5 -32q2 0 4 -3 t7.5 -7t9.5 -8q14 -14 24 -23q43 -37 43 -71q0 -41 -43 -41q-6 0 -45 18q-20 8 -28 13l2 -3l-66 21l-41 16q-6 0 -10 2l2 -2q-16 6 -49 21q-35 25 -35 65.5z" />
<glyph unicode="&#xc9;" horiz-adv-x="968" d="M76 35q0 31 24 49q0 12 15 12q8 2 32 15q33 35 39 49l-2 -4q6 23 9 65q2 23 6 64q-2 10 -2 34v109q-2 23 -2 43l2 21v14q0 37 11 78t21.5 65.5t14.5 28.5l-37 -2q-2 18 -4 59v-2q-2 12 -2 45t2 47v56l4 86q4 74 10 106l-12 57q-14 63 -21 76q-23 35 -86 76q-16 10 -16 37 q0 61 76 61l43 -2q2 0 16 1t25 1q8 0 26.5 1t32.5 1q16 0 43 2h23q6 0 17 1t15 1q49 0 88 -10q16 -6 21 -6q14 2 39 6l-2 -2q8 4 30 4q25 0 50 2q20 2 49 2q47 0 98 -12l4 -2h6l-6 -2q23 4 39 8l4 2h8h13q59 0 65 -49q2 -8 6 -78v-30v-33v-21q2 -6 4.5 -23.5l4.5 -31.5 q0 -16 2 -23q2 -10 2 -24q0 -53 -41 -53l-49 32q-14 14 -46 82l-16 31q-14 23 -18 27l-9 8q-16 16 -45 29v-2q-12 2 -63 6q-2 2 -14 6h-7l-4 2q-55 18 -90 18q-76 0 -78 -32v-19q0 -2 -1 -11t-1 -13l-4 -29v-19q-12 -70 -12 -100v-6q0 -4 1 -35t1 -49q0 -39 -2 -82 q0 -76 47 -76q25 0 45 15q63 43 94 79q18 29 45 29t43 -37v-22q0 -4 1 -13.5t1 -13.5l5 -39v-28q0 -20 -5 -86l-2 -29q0 -20 2 -47q0 -10 5 -27v-8q0 -20 -17 -59v2q-6 -23 -33 -23q-20 0 -47 33l-22 31l-17 43l-32 34q-8 12 -16.5 20.5t-49.5 8.5q-25 0 -29 -10l2 -39 q0 -6 -1 -21.5t-1 -25.5q0 -39 -8 -74q-12 -53 -12 -74q0 -18 2 -41l-2 -55q0 -41 -2 -68q0 -4 -1 -13t-1 -11l-4 -25v-6q0 -49 98 -49h6q74 -8 84 -8q8 0 62 14q33 8 34 15l41 38q43 29 45 35l-2 -4q12 27 43 109v-2q12 43 52 43q45 0 45 -64q0 -143 -9 -186v2l-4 -82 q-12 -55 -65 -55q-12 0 -92 18q-4 0 -9.5 1t-9.5 3q-49 -8 -61 -8h-12q-4 0 -87 4l-143 -6q-2 0 -14 1t-19 1q-14 2 -34 2h-13q-66 0 -139 -2l-84 -4q-53 0 -53 41zM444 1483q0 27 50 61q53 39 98 98q39 58 92 58q78 0 78 -80q0 -53 -45 -86q-29 -25 -62 -29l-34 -4h-7h2 q-6 -2 -38 -12q-4 -2 -14.5 -6t-14.5 -6l-12 -4q-53 -27 -60 -27q-33 0 -33 37z" />
<glyph unicode="&#xca;" horiz-adv-x="968" d="M76 35q0 31 24 49q0 12 15 12q8 2 32 15q33 37 37 45q6 23 9 65q2 23 6 64q-2 10 -2 34v109q-2 23 -2 45l2 19v14q0 37 11 78t21.5 65.5t14.5 28.5l-37 -2q-2 18 -4 61v-2q-2 10 -2 43t2 49v54l4 86q4 74 10 106l-12 57q-12 61 -21 76q-27 41 -86 76q-16 10 -16 37 q0 61 76 61l43 -2q2 0 16 1t25 1q8 0 26.5 1t32.5 1q16 0 43 2h23q6 0 17 1t15 1q49 0 88 -10q16 -6 21 -6q14 2 39 6l-2 -2q8 4 30 4q25 0 50 2q20 2 49 2q47 0 98 -12l4 -2h6l-6 -2q23 4 39 8l4 2h8h13q59 0 65 -49q2 -8 6 -76v-32v-33v-19q0 -4 2 -14t3.5 -20.5 t3.5 -22.5q0 -16 2 -23q2 -8 2 -24q0 -53 -41 -53l-49 32q-12 10 -46 82l-16 31q-8 16 -18 27l-9 8q-16 16 -45 29v-2q-12 2 -63 6q-2 2 -14 6h-7l-4 2q-61 20 -90 20q-76 0 -78 -34v-19q0 -2 -1 -10t-1 -12l-4 -31v-19q-12 -68 -12 -100v-6q0 -4 1 -35t1 -49q0 -39 -2 -82 q0 -76 47 -76q25 0 45 15q70 49 94 79q20 31 45 31q27 0 43 -39v-22q0 -4 1 -12.5t1 -14.5l5 -39v-28q0 -20 -5 -86l-2 -29q0 -20 2 -47q0 -12 5 -25v-10q0 -20 -17 -59v2q-6 -23 -33 -23q-20 0 -47 33l-22 31l-17 43l-32 34q-8 12 -16.5 20.5t-49.5 8.5q-25 0 -29 -10 l2 -39q0 -6 -1 -21.5t-1 -25.5q0 -39 -8 -72q-12 -57 -12 -75.5t2 -41.5l-2 -53q0 -43 -2 -70q0 -4 -1 -13t-1 -11l-4 -25v-6q0 -47 98 -49h6q6 0 29 -2l51 -6q4 0 66 14q33 8 34 15l41 38q43 29 45 35l-2 -4q12 27 43 109v-2q12 43 52 43q45 0 45 -64q0 -143 -9 -186v2 l-4 -82q-12 -55 -65 -55q-12 0 -92 18q-4 0 -9.5 1t-9.5 3q-49 -8 -61 -8h-12q-4 0 -87 4l-143 -6q-2 0 -14 1t-19 1q-14 2 -34 2h-13q-66 0 -139 -2l-84 -4q-53 0 -53 41zM340 1462q0 2 31 58h-2l20 34l31 48l-2 -3l14 23l33 43l4 8q8 25 18 35q13 16 52 16q16 0 36 -10 l5 -6l6 -6q6 -6 22 -29l33 -51l18 -27q2 -4 8.5 -16t10.5 -18q2 -4 7 -14.5t9 -16.5q8 -20 17 -37l-2 4q12 -14 12 -33q0 -35 -37 -34q-25 0 -111 71q-41 68 -43 68q-12 0 -28 -35q-20 -41 -47 -57q-23 -18 -39 -33q-20 -20 -43 -21q-33 0 -33 39z" />
<glyph unicode="&#xcb;" horiz-adv-x="968" d="M76 35q0 31 24 49q0 12 15 12q8 2 32 15q29 29 37 45q6 23 9 65q2 23 6 64q-2 10 -2 34v109q-2 23 -2 43l2 21v14q0 37 11 78t21.5 65.5t14.5 28.5l-37 -2q-2 18 -4 59v-2q-2 12 -2 45q0 31 2 47v56l4 86q4 74 10 104l-12 59q-14 63 -21 76q-23 35 -86 76q-16 10 -16 35 q0 63 76 63l43 -2q2 0 16 1t25 1q8 0 26.5 1t32.5 1q16 0 43 2h23q6 0 17 1t15 1q49 0 88 -10q16 -6 21 -6q14 2 39 6l-2 -2q8 4 30 4q25 0 50 2q20 2 49 2q47 0 98 -12l4 -2h6l-6 -2q23 4 39 8l4 2h8h13q59 0 65 -51q4 -10 6 -76v-30v-33v-21q4 -29 9 -55q0 -16 2 -23 q2 -10 2 -26q0 -51 -41 -51l-49 32q-14 14 -46 82l-16 29q-8 14 -18 29l-9 8q-16 16 -45 29v-2q-12 2 -63 6q-2 2 -14 6h-7l-4 2q-63 18 -90 18q-76 0 -78 -32v-19q0 -2 -1 -11t-1 -13l-4 -29v-19q-12 -70 -12 -100v-6q0 -4 1 -35t1 -49q0 -41 -2 -82q0 -76 47 -76 q25 0 45 15q63 43 94 79q18 29 45 29t43 -37v-22q0 -4 1 -13.5t1 -15.5l5 -37v-28q0 -20 -5 -86l-2 -29q0 -20 2 -47q0 -10 5 -27v-8q0 -20 -17 -59v2q-6 -25 -33 -25q-18 0 -47 35l-22 31l-17 43l-32 34q-8 12 -17 21q-10 6 -49 6q-27 0 -29 -8l2 -39q0 -6 -1 -21.5 t-1 -25.5q0 -39 -8 -74q-12 -53 -12 -74q0 -18 2 -41l-2 -55q0 -41 -2 -68q0 -4 -1 -13t-1 -11l-4 -25v-6q0 -47 98 -51h6l84 -6q8 0 62 14q33 8 34 15l41 38q43 29 45 35l-2 -4q12 27 43 109v-2q12 43 52 43q45 0 45 -64q0 -143 -9 -186v2l-4 -82q-12 -55 -65 -55 q-12 0 -92 18q-4 0 -9.5 1t-9.5 3q-49 -8 -61 -8h-12q-4 0 -87 4l-143 -6q-2 0 -14 1t-19 1q-14 2 -34 2h-13q-66 0 -139 -2l-84 -4q-53 0 -53 41zM240 1554q0 35 32 74q49 53 80 53q23 0 72 -32q25 -16 31 -41q0 -16 2 -33v2q6 -25 6 -35q0 -18 -14 -41v2q-16 -41 -34 -52 t-61 -11q-25 0 -61 24v-2q-53 35 -53 92zM616 1569q0 37 24.5 66.5t57.5 29.5h13q39 0 65 -16q43 -31 43 -99q0 -27 -10 -55l2 2q-2 -23 -41 -39q-39 -20 -59 -20q-94 0 -95 131z" />
<glyph unicode="&#xcc;" horiz-adv-x="518" d="M59 1593q0 41 28 77t65 36q10 0 49 -25l12 -12v2q2 -4 11 -16.5t22.5 -27.5t27.5 -32q4 -6 21 -18q4 -6 20 -23q41 -35 41 -71q0 -41 -39 -41q-6 0 -43 18q-20 8 -26 13l2 -3l-64 21l-39 14q-2 2 -5 2t-5 2l2 -2q-10 4 -47 21q-33 27 -33 65zM94 1325q1 53 60 57l112 -6 q66 8 90 8q102 0 103 -69q0 -23 -29 -47q-33 -29 -35 -41q-18 -59 -18 -277v-2q0 -18 2 -43q4 -70 4 -123v-55q0 -102 -6 -170v-25v-30q2 -31 2 -60v-2q0 -14 -2 -28v-19q0 -10 8 -57l2 -109v2l2 -28q10 -20 17 -35q2 -8 8 -21q0 -4 6 -16l29 -31q18 -33 18 -47 q0 -51 -37 -51h-57q-6 0 -8 -2q-14 -2 -39 -2q-2 0 -6.5 1t-8.5 1t-12 1t-14 1l-82 -2h-8q-25 0 -68 16q-23 12 -23 45q0 18 13 35l47 41q8 14 12 53q0 8 4 25q0 6 1 23.5t3 31.5q4 12 4 21q0 4 -4 33q-2 14 -2 38q0 37 2 64v-2q0 4 1 14t1 15q6 59 7 88q0 8 -7 75v-2 q-2 6 -3 21.5t-1 21.5l6 68v-2v4q-2 4 -2 8q0 2 -1 11.5t-1 15.5v205q0 8 -2 18q-6 68 -8 82v25l-2 108q-2 29 -39 68q-39 35 -39 59z" />
<glyph unicode="&#xcd;" horiz-adv-x="516" d="M94 1325q1 53 60 57l112 -6q63 8 90 8q100 0 101 -69q0 -25 -27 -47q-33 -29 -37 -41q-16 -61 -16 -277v-2q0 -18 2 -43q4 -70 4 -123v-55q0 -102 -6 -170q-2 -4 -2 -25q0 -16 2 -30q2 -31 2 -62q0 -14 -2 -28v-19q0 -10 8 -57l2 -109v2l2 -28q10 -20 17 -35q2 -8 8 -21 q0 -10 6 -18l29 -29q18 -33 18 -47q0 -51 -37 -51h-57q-6 0 -8 -2q-14 -2 -39 -2q-2 0 -6.5 1t-8.5 1t-12 1t-14 1l-82 -2h-10q-23 0 -66 16q-23 10 -23 45q0 18 13 35l47 41q8 14 12 53q0 8 4 25q0 6 1 23.5t3 31.5q4 12 4 21q0 4 -4 33q-2 14 -2 38q0 37 2 64q0 4 1 13 t1 14q6 59 7 88q0 8 -7 75v-2q-2 6 -3 21.5t-1 21.5l6 68v2q-2 4 -2 8q0 2 -1 11.5t-1 15.5v205q0 8 -2 16l-8 84q0 2 -1 11t-1 14v108q-2 29 -41 68h2q-39 35 -39 59zM195 1483q0 25 49 61q53 43 92 98q39 58 88 58q74 0 74 -80q0 -55 -43 -86q-29 -27 -60 -29l-30 -4 l-3 -2h-4h2q-6 0 -18 -4l-18 -6q-4 -2 -14.5 -6t-14.5 -6q-2 0 -5 -1t-5 -3q-53 -27 -58 -27q-33 0 -32 37z" />
<glyph unicode="&#xce;" horiz-adv-x="512" d="M94 1327q1 51 60 55l110 -6q63 8 90 8q98 0 99 -69q0 -25 -27 -47q-29 -23 -35 -41q-16 -51 -16 -277v-2q0 -18 2 -41q0 -18 1 -59t1 -66v-53q0 -84 -4 -170q-2 -6 -2 -27q0 -16 2 -30q2 -29 2 -62q0 -14 -2 -28v-19q0 -4 6 -57l2 -109v2l2 -28q10 -20 16 -35q2 -8 9 -21 q0 -4 6 -16l28 -31q18 -33 19 -47q0 -51 -37 -51h-57q-6 0 -9 -2q-14 -2 -38 -2h-7q-4 2 -8 2q-2 0 -10 1t-14 1l-82 -2h-8q-23 0 -68 16q-23 12 -23 45q0 20 15 35l45 41q12 20 12 53q0 6 4 27q0 4 1 21.5t3 31.5q4 12 4 21q0 4 -4 33q-2 14 -2 38q0 37 2 64q0 4 1 13t1 14 q6 59 6 88q0 8 -6 75v-2q0 6 -2 21.5t-2 21.5l6 68l-2 4v8q0 2 -1 10.5t-1 14.5v205q0 8 -2 18q-2 14 -6 82q0 4 -1 12t-1 13l-2 108q-4 35 -39 68h2q-39 33 -39 61zM98 1462q0 8 29 56h-2l18 36l31 45h-2l12 23l31 43l4 8q10 27 17 35q16 16 49 16q12 0 37 -10q0 -4 8 -12 q4 -4 20 -29l31 -51l18 -27q14 -29 17 -34q2 -4 7 -14.5t9 -16.5q8 -20 17 -37l-3 4q10 -14 11 -33q0 -37 -35 -37q-20 0 -103 74l-40 68q-12 0 -29 -35q-20 -43 -43 -57q-20 -16 -37 -33q-20 -20 -41 -21q-31 0 -31 39z" />
<glyph unicode="&#xcf;" horiz-adv-x="522" d="M53 1554q0 37 29 74q49 53 78 53q23 0 69 -34q25 -16 31 -39v-31q0 -8 1 -16.5t2 -12.5t1 -6q0 -18 -10 -39q-16 -41 -32.5 -52t-59.5 -11q-23 0 -60 24v-2q-49 31 -49 92zM96 1325q1 53 60 57l112 -6q66 8 92 8q102 0 103 -71q0 -20 -29 -45q-33 -29 -35 -43 q-18 -55 -18 -277q0 -18 2 -43q4 -70 4 -123v-55q0 -102 -6 -170q-2 -6 -2 -25q0 -16 2 -30q2 -31 2 -62q0 -14 -2 -28v-19q0 -10 8 -57l2 -109v2l2 -28q10 -20 17 -35q2 -8 8 -21q0 -2 1 -5t3 -7t2 -6l29 -29q18 -29 18 -47q0 -51 -37 -51h-57q-6 0 -8 -2q-14 -2 -39 -2 q-2 0 -7.5 1t-9.5 1q-2 0 -11 1t-15 1l-82 -2h-10q-23 0 -68 16q-23 12 -23 45q0 20 15 35l47 41q8 14 12 53q0 8 4 25q0 6 1 23.5t3 31.5q4 12 4 21q0 4 -4 33q-2 14 -2 38q0 37 2 64q0 4 1 13t1 14q6 59 7 88q0 8 -7 75v-2q-2 6 -3 21.5t-1 21.5l6 66l-2 4v8q0 2 -1 11.5 t-1 15.5v205q0 6 -2 16q-6 63 -8 82q0 4 -1 13t-1 14l-2 108q0 29 -39 68h2q-39 33 -39 59zM313 1567q0 33 24.5 65.5t55.5 32.5h10q39 0 66 -18q41 -27 41 -97q0 -27 -10 -55l2 2q-4 -23 -41 -39q-35 -20 -55 -20q-92 0 -93 129z" />
<glyph unicode="&#xd0;" horiz-adv-x="1239" d="M76 57q0 33 20 47h-2l8 5q10 6 19 10q6 2 24 16q43 33 43 107v16q0 25 9 70q4 49 4 55q0 23 -4 84v4v18q0 12 2 25l-2 -4q2 24 2 94q0 2 -2 2l-19 -2q-6 0 -16 -1t-12 -1q-4 0 -8.5 -1t-6.5 -1q-51 0 -51 92q0 20 19.5 49t35.5 29h21l28 -2l9 -2v14q-6 98 -7 113 q0 61 5 90q6 43 6 51q0 2 -1 8.5t-2 16.5t-1 18q-4 43 -7 56q-14 57 -18 67q-2 6 -27 35l5 -2q-23 16 -41 27q-25 18 -25 49q0 55 102 55q49 0 90 -10h-4h7q6 -2 12 -2q10 0 82 16l112 6q6 -2 50 -2q6 0 21 -1t26 -1q66 -2 163 -6q33 -2 148 -70l14 -8l29 -26l-4 4 q82 -47 127 -111q25 -18 90 -109q37 -106 41 -135q12 -84 12 -127v-207q0 -55 -35 -165q-14 -51 -20 -60q-4 -10 -39 -67q-29 -55 -66 -101q-47 -43 -79 -65l2 2q-4 -2 -11.5 -6t-9.5 -7l-29 -16q-12 -8 -124 -47h2q-4 -2 -10.5 -4t-14.5 -4t-12 -4q-80 -31 -119 -35 q-29 0 -74 -2q-6 0 -16 -1t-12 -1l-21 2q-16 -6 -27 -6q-4 0 -7 -1t-5 -1q-12 0 -20 2q-2 0 -10.5 2t-15.5 3t-15 3q-12 2 -70 2q-35 0 -61 2l-56 -2l-67 2l-19 -2h-18q-47 2 -47 59zM422 387q0 -6 1 -16.5t3 -16.5l4 -49v-12q0 -10 -4 -60v-4q0 -57 43 -90q27 -25 51 -24 l6 2q6 2 22.5 7t35.5 9l63 10l45 11q4 2 56 20q6 4 34 37l45 53q8 10 31 33l-2 -2l21 33q4 10 16 26q4 6 16 23q4 4 17 20q8 14 14 43q0 2 1 7.5t1 9.5q0 2 3 27.5t5 41.5l15 80v-4q0 8 1 19.5t3 27t2 23.5q4 45 4 55l-6 53l-2 56q0 14 -4 75v11q-2 2 -7.5 11t-13.5 24.5 t-16 31.5q-18 39 -70 115q-23 23 -82 55l-12 6l4 -2q-8 6 -37 27h2q-43 27 -65 39h2q-29 8 -68 8q-154 0 -160 -104q-4 -47 -16 -113q0 -4 14 -66v-28q0 -8 -1 -22.5t-3 -41t-4 -47.5q0 -4 -1 -11t-1 -9v-17q0 -18 8 -18q23 0 47 10q8 2 18.5 4t16.5 4t8 2q23 0 54 -30l-2 2 q12 -8 16 -33l8 -29l-20 -47v2q-14 -41 -43 -41q-12 0 -37 4q-2 0 -8 2l-23 4q-16 0 -31 -6l-14 -4l6 -59l-4 -35l-2 -25v2l-2 -49z" />
<glyph unicode="&#xd1;" horiz-adv-x="1331" d="M43 59q0 20 16 35q0 12 21 12q2 0 31 19q43 20 55 68q14 45 18 180q0 43 2 65q2 20 2 27q0 20 -2 63v21q0 31 9 90q2 10 2 18l-2 37v41q0 6 -1 14.5t-1 10.5q0 4 -1.5 10t-1.5 8q0 20 7 64q4 12 4 53q0 2 1 16.5t1 24.5q2 16 2 39v51q0 59 -8 92q-14 63 -29 82 q-10 10 -78 47h2q-45 20 -45 62q0 57 47 57l53 -2q16 4 50 6h14q2 0 88 4l127 6q76 0 76 -61q0 -10 -4 -21l2 2q-6 -39 -6 -51q0 -45 116 -221l21 -33q16 -29 24 -39q55 -94 150 -217q70 -80 108 -123q4 -4 9.5 -10t7.5 -8t4 -6l12 -14v2q16 -29 33 -37l47 -25q6 12 12 29 q4 16 15 117l8 104l-2 104q0 10 4 52v10l2 4l-6 53l-2 29v-2q-12 59 -19 147q-8 47 -96 103q-31 18 -31 49q0 10 15.5 32.5t27.5 22.5l115 -12l14 4q37 12 50 12h59q43 0 74 -6q37 -14 37 -49q0 -27 -23 -41l-39 -23q-47 -29 -49 -69q-4 -25 -6 -129q0 -45 -4 -66v-6 q0 -4 1 -10t2 -18.5t1 -24.5q0 -47 2 -103v-55q-8 -66 -8 -94v-152q-8 -63 -9 -77q0 -16 9 -88v-115q2 -45 2 -86q0 -25 2 -33q0 -6 1 -18.5t1 -16.5q0 -6 1 -12t1 -8q0 -84 -66 -84q-29 0 -37 18l-55 88q-2 2 -6 8q-8 8 -12 15q-68 66 -76 80h2q-8 10 -18.5 26.5 t-16.5 25.5l-10 15q-23 23 -70 82h2l-20 21l-33 45l-41 49l-37 51l-41 51q-2 4 -12 17.5t-16 19.5q-18 25 -29 35q-2 2 -6 8t-9.5 12.5t-9.5 12.5q-6 8 -13 19t-18.5 26.5t-19.5 25.5q-37 51 -49 74l2 -2q-8 12 -82 113l-59 84q0 -2 -1 -6.5t-1 -6.5v-112l-2 -92 q-2 -137 -9 -258q-6 -78 -6 -93q0 -18 6 -59q0 -25 3 -43q0 -4 1 -14.5t1 -16.5l2 -26q2 -59 6 -82v2q12 -82 104 -101q47 -8 47 -61q0 -45 -106 -45q-23 0 -43 2h2q-41 2 -115 2q-31 0 -49 -2h-14q-29 0 -70 10q-45 14 -45 49zM76 104h4h-4zM442 1520q0 4 35 63l23 25 l-2 -2q14 23 49 55q32 20 63 20q18 0 27 -2h-4q14 0 41 -16l14 -8l41 -13q63 -35 74 -34q25 0 69 37q8 2 15 8q39 0 39 -35q0 -18 -17 -39q-4 -8 -8 -12q-2 -2 -18 -23q-51 -80 -113 -80q-33 0 -57 11q-47 18 -60 24l2 -2l-32 10q-57 29 -86 29q-6 0 -17 -14l2 2 q-25 -41 -43 -41q-37 0 -37 37z" />
<glyph unicode="&#xd2;" horiz-adv-x="1472" d="M86 739v11q0 76 33 176h-2q8 27 76 149q43 66 47 72h-2q2 6 13 19.5t17 23.5q92 98 228 160q100 45 125 49l-3 -2h9q10 2 27.5 4t33.5 4q2 0 8 1t9 1q87 6 112 6q94 0 162 -27q49 -20 117 -69q20 -16 49 -37q0 -2 2 -2q4 0 12 -8l17 -15l28 -28v2q23 -18 51 -51 q10 -10 27 -37l37 -62q2 -4 7 -11t7 -11l-2 2l43 -66l-2 2q6 -6 12 -41l2 -8q2 -10 5 -16l-2 4q8 -16 14 -34.5t10 -32t6 -15.5v-4q0 -29 2 -47l6 -82q0 -12 -6 -74l4 -88v-12q0 -16 -8 -66q-6 -27 -49 -114l-35 -68l-28 -37l-23 -27l-29 -32q-27 -35 -114 -113 q-180 -115 -389 -115q-133 0 -197 21q-233 72 -350 301q-59 115 -84 192h2q-18 66 -27 113v8q0 6 -1 19.5t-2 37t-1 46.5q0 16 -4 28zM354 547q0 -4 29 -131q4 -16 25 -82h-2q4 -8 59 -70q20 -39 33 -47q2 -2 53 -39q49 -39 86 -55q14 -6 82 -12q16 -2 37 -2q4 0 8 -1.5 t6 -1.5h4q55 0 84 9h-2q35 16 49 28q6 4 37 24.5t55 37.5h-2q18 14 43 53q4 12 13 21q33 41 96 163q12 43 14 76q2 18 2 29v137q0 29 -2 70v-2q-2 14 -2 49q0 6 -1 21.5t-1 23.5q-6 12 -12 39q-20 86 -66 159q-18 37 -102 127q-45 57 -49 62q-12 12 -58 20q-6 0 -10 2 q-14 0 -20 7q-37 6 -76 8l-62 10q-33 -6 -63 -25q-61 -39 -72 -49q-57 -57 -90 -104q-16 -23 -47 -84l-29 -49v2l-16 -43q-12 -25 -16 -41v2q0 -2 -2 -5t-3.5 -6.5t-1.5 -7.5q-6 -25 -6 -82q0 -29 2 -51v-63zM524 1595q0 39 30 75t69 36q8 0 53 -23l12 -12v2q61 -72 66 -76 l20 -20q14 -14 25 -23q43 -35 43 -71q0 -41 -41 -41q-6 0 -47 18q-20 8 -29 13l2 -3l-68 21l-41 16q-2 0 -5 2t-5 2l2 -2q-33 10 -49 19q-37 25 -37 67zM1157 844l2 -2z" />
<glyph unicode="&#xd3;" horiz-adv-x="1472" d="M86 739v11q0 76 33 176h-2q8 27 76 149q43 66 47 72h-2q2 6 13 19.5t17 23.5q92 98 228 160q100 45 125 49l-3 -2h9q10 2 27.5 4t33.5 4q2 0 8 1t9 1q87 6 112 6q94 0 162 -27q49 -20 117 -69q20 -16 49 -37q0 -2 2 -2q4 0 12 -8l17 -15l28 -28v2q23 -18 51 -51 q10 -10 27 -37l37 -62q2 -4 7 -11t7 -11l-2 2l43 -66l-2 2q6 -6 12 -41l2 -8q2 -10 5 -16l-2 4q8 -16 14 -34.5t10 -32t6 -15.5v-4q0 -29 2 -47l6 -82q0 -12 -6 -74l4 -88v-12q0 -16 -8 -66q-6 -27 -49 -114l-35 -68l-28 -37l-23 -27l-29 -32q-27 -35 -114 -113 q-180 -115 -389 -115q-133 0 -197 21q-233 72 -350 301q-59 115 -84 192h2q-18 66 -27 113v8q0 6 -1 19.5t-2 37t-1 46.5q0 16 -4 28zM354 547q0 -4 29 -131q4 -16 25 -82h-2q4 -8 59 -70q18 -35 33 -49q6 -2 53 -37q49 -39 86 -55q14 -6 82 -12q16 -2 37 -2q4 0 8 -1.5 t6 -1.5h4q55 0 84 9h-2q35 16 49 28q6 4 37 24.5t55 37.5h-2q20 16 43 51v2q4 12 13 21q37 47 98 167l-2 -2q12 45 14 74q2 18 2 29v137q0 29 -2 70v-2q-2 14 -2 49q0 6 -1 21.5t-1 23.5q-6 12 -12 39q-20 86 -66 159q-18 37 -102 127q-45 57 -49 62q-12 12 -58 18 q-6 0 -10 2q-12 0 -20 9q-37 6 -76 8l-62 10q-33 -6 -63 -25q-61 -39 -72 -49q-57 -57 -90 -104q-16 -23 -47 -84l-29 -49v2l-16 -43q-12 -25 -16 -41v2q0 -2 -2 -5t-3.5 -6.5t-1.5 -7.5q-6 -25 -6 -82q0 -29 2 -53v-61zM670 1483q0 25 51 61.5t100 97.5q37 58 92 58 q80 0 80 -80q0 -53 -45 -86q-29 -23 -63 -27l-35 -4h-2l-4 -2q-12 -2 -37 -12l-31 -12q-2 0 -5 -1t-5 -3q-57 -27 -61 -27q-35 0 -35 37zM1157 844l2 -2z" />
<glyph unicode="&#xd4;" horiz-adv-x="1472" d="M86 741v9q0 76 33 176h-2q10 33 76 149q43 66 47 72h-2q6 10 30 43q86 94 228 162q106 43 125 47l-3 -2h9q10 2 27.5 4t33.5 4q2 0 8 1t9 1q87 6 112 6q94 0 162 -27q57 -23 117 -69q20 -16 49 -37q0 -2 2 -2q4 0 12 -8q6 -4 45 -43v2q14 -12 51 -49q8 -8 27 -39l37 -62 q2 -4 7 -11t7 -11l-2 2l43 -66l-2 4q6 -10 12 -43l2 -8q2 -10 5 -16l-2 4q8 -16 14 -34.5t10 -32t6 -15.5v-4q0 -29 2 -47l6 -82q0 -12 -6 -74l4 -88v-12q0 -18 -8 -64q-6 -27 -49 -116l-35 -68l-28 -37l-23 -27l-29 -32q-27 -35 -114 -113q-180 -115 -389 -115 q-133 0 -197 21q-233 72 -350 301q-59 115 -84 192h2q-18 66 -27 113v8q0 6 -1 19.5t-2 38t-1 45.5q0 14 -4 30zM354 547q0 -4 29 -131q6 -27 25 -82h-2l59 -70q20 -39 33 -47q2 -2 53 -39q49 -39 86 -55q14 -6 82 -12q16 -2 37 -2q4 0 8 -1.5t6 -1.5h4q55 0 84 9h-2 q25 12 49 28q6 4 37 24.5t55 37.5h-2q20 16 43 51v2q4 12 13 21q49 68 96 165q12 45 14 74q2 18 2 29v137q0 29 -2 70v-2q-2 14 -2 49q0 6 -1 22.5t-1 22.5q-6 12 -12 39q-20 86 -66 159q-18 35 -102 130q-10 12 -22.5 26t-20.5 25l-6 8q-12 12 -58 20q-6 0 -10 2 q-12 0 -20 9q-37 6 -76 6l-62 10q-39 -8 -63 -23q-63 -43 -72 -51q-49 -45 -90 -104q-14 -12 -47 -84l-29 -49v2l-16 -43q-10 -18 -16 -41v2q0 -2 -2 -5t-3.5 -6.5t-1.5 -7.5q-6 -25 -6 -82q0 -29 2 -51v-63zM565 1462q0 8 31 58h-2l20 34l31 48l-2 -3l14 23l35 43l4 8 q10 31 17 35q16 16 55 16q12 0 37 -10l10 -10q6 -6 23 -31l32 -51l21 -27q14 -29 16 -34q4 -8 17 -29q10 -23 18 -39l-2 4q12 -14 12 -33q0 -35 -39 -34q-25 0 -110 71l-43 68q-14 0 -31 -35q-25 -43 -47 -57q-2 -2 -9 -7.5t-15.5 -11.5t-16.5 -14q-20 -20 -43 -21 q-33 0 -33 39zM1157 844l2 -2z" />
<glyph unicode="&#xd5;" horiz-adv-x="1472" d="M86 739v11q0 76 33 176h-2q8 29 76 147q4 8 20 32.5t27 41.5h-2q18 25 30 43q92 98 228 160q100 45 125 49l-3 -2h9q10 2 27.5 4t33.5 4q4 0 10.5 1t8.5 1h-2q23 0 50 1t41.5 2t20.5 1q98 0 162 -25q49 -20 117 -69q20 -16 49 -37q0 -2 2 -2q4 0 12 -8q20 -20 45 -43v2 q23 -18 51 -51q6 -6 27 -37l37 -64q2 -4 7 -10t7 -10l-2 2l43 -68l-2 4q6 -10 12 -41l2 -8q2 -10 5 -16l-2 4q8 -16 14 -34.5t10 -32t6 -15.5v-4q0 -31 2 -47l6 -82q0 -10 -6 -76l4 -88v-10q0 -16 -8 -66q-6 -27 -49 -114l-35 -68l-28 -37l-23 -27l-29 -32 q-27 -35 -114 -113q-180 -115 -389 -115q-133 0 -197 21q-233 72 -350 301q-59 115 -84 192h2q-20 68 -27 113v8q0 6 -1 19.5t-2 37t-1 46.5q0 12 -4 28zM354 547q0 -4 29 -131q4 -16 25 -82h-2q4 -8 59 -70q23 -39 35 -51l-2 2q6 -2 53 -37q49 -39 86 -55q14 -6 82 -12 q16 -2 37 -2q4 0 8 -1.5t6 -1.5h4q55 0 84 9h-2q35 16 49 28q6 4 37 24.5t55 37.5h-2q20 16 43 51v2q4 12 13 21q41 55 96 165q12 45 14 74q2 18 2 29v137q0 29 -2 70v-2q-2 14 -2 49q0 6 -1 21.5t-1 23.5q-6 12 -12 39q-20 80 -66 159q-23 41 -102 127q-45 57 -49 62 q-14 10 -58 18q-6 0 -10 2q-12 0 -20 9q-37 6 -76 8l-62 10q-33 -6 -63 -25q-61 -39 -72 -49q-57 -57 -90 -104q-16 -23 -47 -84l-29 -49v2l-16 -43q-10 -23 -16 -41v2q0 -2 -2 -5t-3.5 -6.5t-1.5 -7.5q-6 -25 -6 -82q0 -29 2 -53v-61zM512 1520q0 6 37 63l20 25v-2 q10 18 49 57q31 18 64 18q18 0 25 -2q27 -8 38 -14l15 -8l41 -15q61 -35 73 -34q25 0 70 37q8 4 14 10q39 0 39 -37q0 -20 -18 -39q-2 -2 -6 -10q-6 -8 -19 -25q-55 -80 -114 -80q-29 0 -58 11q-4 2 -12 5t-20.5 8t-26.5 11l2 -2l-31 10q-59 29 -86 29q-8 0 -18 -14l2 2 q-25 -39 -41 -39q-39 0 -39 35zM1157 844l2 -2z" />
<glyph unicode="&#xd6;" horiz-adv-x="1472" d="M86 739v11q0 76 33 176h-2q8 29 76 147q4 8 20 32.5t27 41.5h-2q18 25 30 43q92 98 228 160q100 45 125 49l-3 -2h9q10 2 27.5 4t33.5 4q2 0 8 1t9 1q23 0 50 1t41.5 2t20.5 1q98 0 162 -25q49 -20 117 -69q20 -16 49 -37q0 -2 2 -2q4 0 12 -8q20 -20 45 -43v2 q23 -18 51 -51q6 -6 27 -37l37 -64q2 -4 7 -10t7 -10l-2 2l43 -68l-2 4q6 -10 12 -41l2 -8q2 -10 5 -16l-2 4q8 -16 14 -34.5t10 -32t6 -15.5v-4q0 -31 2 -47l6 -82q0 -10 -6 -76l4 -88v-10q0 -16 -8 -66q-6 -27 -49 -114l-35 -68l-28 -37l-23 -27l-29 -32 q-27 -35 -114 -113q-180 -115 -389 -115q-133 0 -197 21q-233 72 -350 301q-59 115 -84 192h2q-20 68 -27 113v8q0 6 -1 19.5t-2 37t-1 46.5q0 12 -4 28zM354 547q0 -4 29 -131q4 -16 25 -82h-2q4 -8 59 -70q18 -35 33 -49q6 -2 53 -37q49 -39 86 -55q14 -6 82 -12 q16 -2 37 -2q4 0 8 -1.5t6 -1.5h4q55 0 84 9h-2q35 16 49 28q6 4 37 24.5t55 37.5h-2q20 16 43 51q4 12 13 23q33 41 96 163q12 43 14 76q2 18 2 29v137q0 29 -2 70v-2q-2 14 -2 49q0 6 -1 21.5t-1 23.5q-6 12 -12 39q-20 80 -66 159q-23 41 -102 127q-45 57 -49 62 q-14 10 -58 18q-6 0 -10 2q-12 0 -20 9q-37 6 -76 8l-62 10q-33 -6 -63 -25q-61 -39 -72 -49q-57 -57 -90 -104q-16 -23 -47 -84l-29 -49v2l-16 -43q-10 -23 -16 -41v2q0 -2 -2 -5t-3.5 -6.5t-1.5 -7.5q-6 -25 -6 -82q0 -29 2 -53v-61zM463 1554q0 35 33 74q46 53 79 53 q25 0 74 -32q27 -18 33 -41q0 -16 2 -31v2q6 -29 6 -37q0 -18 -14 -41v2q-18 -41 -35.5 -52t-62.5 -11q-20 0 -62 24v-2q-53 35 -53 92zM846 1569q0 37 24.5 66.5t57.5 29.5h14q43 0 66 -16q43 -27 43 -99q0 -27 -11 -55l2 2q-2 -23 -41 -39q-39 -20 -59 -20q-96 0 -96 131z M1157 844l2 -2z" />
<glyph unicode="&#xd7;" horiz-adv-x="890" d="M121 913q0 23 16 41q31 31 68 31q31 0 71 -35q6 -6 54 -47l20 -22q16 -12 33 -35q51 -68 86 -68q14 14 35 39q8 8 20.5 19.5t14.5 13.5q72 68 86 90q35 53 77 53q20 0 50 -32.5t30 -57.5q0 -18 -12 -31l-43 -43q-2 -2 -13.5 -15t-19.5 -19h2q-12 -14 -43 -45 q-76 -70 -75 -93q0 -14 22 -30q8 -6 18.5 -16.5t30 -28t35.5 -31.5q2 -2 76 -70q55 -49 55 -73q0 -35 -37 -35h-22h-4l-11 -13q-8 -8 -55 -8q-14 0 -35 21v-2l-78 78q-4 10 -18 22q-33 27 -41 39q-31 37 -37 37q-12 0 -33 -19q-2 0 -4 -4l-2 -4q-2 -4 -32 -35l-44 -45l3 2 l-54 -63q-61 -43 -78 -43q-23 0 -34 14l-15 17q-47 31 -47 53q0 29 64 86l59 53q37 47 43 49q2 2 7 5t7 3h-2q39 27 39 39v4l-41 39q-25 25 -18 23q-8 12 -14 18q-14 10 -27 25l-21 16l3 -2l-50 41q-66 78 -65 94z" />
<glyph unicode="&#xd8;" horiz-adv-x="1472" d="M86 739v11q0 76 33 176q18 53 31 75q6 8 10 15l33 57q61 102 77 119q86 92 226 158q106 43 125 47l-3 -2l9 2q10 0 27.5 2t33.5 4q4 0 10.5 1t8.5 1h-2q87 6 112 6q141 0 225 -51q10 -10 19 -10q4 6 10 20v-2q4 10 10 23q25 37 41 69q14 29 27 41q20 20 55 21 q66 0 66 -49q0 -31 -76 -144l-8 -20l-10 -25q0 -29 65 -84q6 -10 18.5 -27.5t16.5 -23.5q2 -4 8 -10l35 -62q2 -4 7 -11t7 -11l-2 2l43 -66l-2 4q6 -8 12 -41l2 -8q2 -10 5 -16l-2 2l22 -66l8 -18q0 -31 2 -49l6 -82q0 -8 -6 -74l4 -90v-12l-6 -56q-12 -35 -51 -120l-35 -70 l-30 -39l-23 -25l2 2l-29 -32q-10 -10 -26 -31q-70 -74 -94 -88v2q-174 -111 -383 -111q-133 0 -197 21q-39 10 -84 31h-2l-4 2q-6 0 -12 -13q-2 -2 -6.5 -11t-8.5 -15q-2 -4 -33 -58q-39 -70 -86 -69q-78 0 -77 45q0 14 47 80l-2 -2l22 47q39 53 39 67q0 8 -8 17l-35 30 q-98 121 -139 230q-47 106 -64 178q0 14 -2 24.5t-6 38.5l-2 93q0 14 -4 30zM354 541l29 -125v2l18 -60q0 -4 2 -8v-10q6 -16 27 -37q14 -16 20.5 -16t32.5 41h-2l29 49l31 45l24 51l47 72l-2 -2q76 145 95 170q16 25 26 37l53 110l39 53l19 41q16 27 73 133q10 20 23 37 q0 8 10 19q14 23 15 35q0 10 -17 32l-20 21q-4 2 -78 26q-25 9 -84 13l-62 10q-33 -6 -63 -25q-63 -43 -72 -51q-47 -43 -90 -102q-14 -16 -47 -84l-29 -51v2l-16 -41q-12 -23 -16 -43v2q0 -4 -2 -8.5t-5 -8.5q-6 -25 -6 -84q0 -27 2 -51v-61zM559 186q0 -31 59 -57 q25 -10 46 -14q16 0 57 -4q45 -4 53 -5q55 0 84 9h-2q39 18 49 26q12 14 92 66l-2 -2q16 10 43 51q4 12 13 23q37 47 98 167l-2 -2q12 39 14 74q2 18 2 27v49q-2 8 -2 29q0 18 2 26v35q0 27 -2 70v-2q-2 14 -2 47q0 8 -1 23.5t-1 23.5q-6 12 -12 37q-20 80 -60 147l-14 27 v-2l-10 18q-4 0 -27 -37h2l-12 -22l-88 -158q-39 -70 -80 -131l2 2l-45 -88q-20 -27 -47 -82l-37 -59v2q-10 -25 -27 -70q-2 -2 -6 -9t-12 -19.5t-16 -26.5l-11 -19l-36 -51q-6 -6 -25 -47q-12 -23 -27 -51q-10 -16 -10 -21zM1157 844l2 -2z" />
<glyph unicode="&#xd9;" horiz-adv-x="1386" d="M78 1319q0 47 67 47l48 2h26q8 -2 12 -2q27 0 58 2h61q39 0 56 2h-3q12 2 68 2l76 2q76 0 76 -57q0 -25 -15 -45q-18 -14 -61 -27v2q-66 -25 -90 -71q-14 -39 -15 -86q-2 -18 -2 -53.5t2 -53.5l4 -45q0 -6 1.5 -16.5t1.5 -14.5q0 -16 2 -26v-11q-2 -10 -2 -16 q0 -4 -1.5 -17.5t-1.5 -21.5v-27q-2 -8 -3 -23t-1 -24q-4 -25 -4 -28.5t1 -12t2 -26t1 -31.5q2 -27 7 -76v-63l-3 -35q-2 -23 -2 -61q0 -76 19 -111q45 -86 57 -107v3q8 -12 51 -35h-2q6 -2 60 -37q12 -10 22 -10q14 0 76 12l-4 -2q8 4 18 4l97 -4h-2q33 4 94 26h-2 q68 41 76 56q6 6 28 45v-2q2 2 4 8t5 11t6 9q37 61 38 74q0 20 7 92l8 111v-2l8 182l-4 49l-2 111v12l2 43q-2 2 -2 4l-6 54q0 10 -13 36q-12 31 -20 113q-4 16 2 18h-2l-49 35q-6 5 -41 56l2 -5q-8 6 -21.5 15.5t-17.5 11.5q-41 25 -41 51q0 39 72 39q31 0 88 -8 q25 -4 55 -4q2 0 8 1t10 1h-2q14 2 43 2h86l56 2h6q49 0 49 -45q0 -35 -57 -86l-21 -12q-27 -10 -28 -13l4 2q-12 -12 -33 -59q-10 -25 -10 -57q0 -10 2 -31q2 -23 2 -66l4 -190l-4 -45v-39l-4 -53v2l-2 -133q0 -10 6 -76q2 -14 2 -29q0 -37 -13 -94q-8 -31 -8 -37l-2 -4v-4 l-8 -41q-2 -2 -6 -18v2q0 -2 -2 -7.5t-3 -9.5t-3 -8q-27 -72 -56 -102q-98 -111 -178 -129q-6 0 -10 -2q-25 -6 -41 -9l2 2q-29 -6 -92 -8q-51 -8 -84 -8q-78 0 -139 19q-162 49 -185 63h2q-45 18 -98 88q-10 8 -20 25v-2q-39 45 -54 84q-25 76 -24 157v15l2 55l-4 67v-2 l-8 43q0 49 -2 78q0 14 -1.5 40t-1.5 32q0 117 17 178v-6q0 2 2 6v10l-14 109q0 2 1 9t1 11q0 2 1 10.5t1 14.5v27q0 139 -62 170q-41 14 -49 30q-10 8 -10 27zM520 1595q0 39 29.5 75t66.5 36q16 0 56 -23l10 -12v2q59 -70 66 -76q10 -10 22 -20q14 -14 25 -23 q43 -37 43 -71q0 -41 -41 -41q-6 0 -49 18q-18 8 -27 13l2 -3l-68 21l-43 16l-8 4l2 -2q-2 0 -8 3.5t-18.5 7.5t-24.5 8q-35 25 -35 67z" />
<glyph unicode="&#xda;" horiz-adv-x="1386" d="M78 1319q0 47 67 47l48 2h26q8 -2 12 -2q27 0 58 2h61q39 0 56 2h-3q12 2 68 2l76 2q76 0 76 -57q0 -25 -15 -45q-18 -14 -61 -27v2q-68 -25 -90 -73q-14 -35 -15 -87q-2 -16 -2 -51q0 -37 2 -53l4 -45q0 -6 1.5 -16.5t1.5 -14.5q0 -16 2 -26v-11q-2 -10 -2 -16 q0 -4 -1.5 -17.5t-1.5 -21.5v-27q-2 -8 -3 -23t-1 -24q-4 -25 -4 -28.5t1 -12t2 -26t1 -31.5q2 -27 7 -76v-63l-3 -35q-2 -23 -2 -61q0 -76 19 -111q45 -86 57 -107v3q8 -12 51 -35h-2q6 -2 60 -37q12 -10 22 -10q14 0 76 12l-4 -2q8 4 18 4l97 -4q31 2 92 26h-2 q68 41 76 56q6 6 28 45v-2q2 2 4 8t5 11t6 9q37 61 38 74q0 20 7 92l8 111v-2l8 182l-4 49l-2 111v12l2 43q-2 2 -2 4q-2 14 -6 51q0 12 -13 39q-12 31 -20 113q-4 16 2 18h-2l-49 35q-6 5 -41 56l2 -5q-8 6 -21.5 15.5t-17.5 11.5q-41 25 -41 51q0 39 72 39q31 0 88 -8 q25 -4 55 -4q2 0 8 1t10 1h-2q14 2 43 2h86l56 2h6q49 0 49 -45q0 -35 -57 -86l-21 -12q-27 -10 -28 -13l4 2q-12 -12 -33 -59q-10 -25 -10 -57q0 -10 2 -31q2 -23 2 -68l4 -188l-4 -45v-39l-4 -53v2l-2 -133q0 -10 6 -76q2 -14 2 -29q0 -37 -13 -94q-8 -31 -8 -37l-2 -4v-4 l-8 -41q-2 -2 -6 -18v2q0 -2 -2 -7.5t-3 -9.5t-3 -8q-27 -72 -56 -102q-98 -111 -178 -129l-6 -2h-6q-25 -6 -39 -9l2 2q-29 -6 -92 -8q-51 -8 -84 -8q-78 0 -139 19q-162 49 -185 63h2q-45 18 -98 88q-10 8 -20 25v-2q-39 45 -54 84q-25 76 -24 157v15l2 55l-4 67v-2l-8 43 q0 49 -2 78q0 14 -1.5 40t-1.5 32q0 117 17 178v-6q0 2 2 6v10l-14 109q0 2 1 9t1 11q0 2 1 10.5t1 14.5v27q0 139 -62 170q-41 14 -49 30q-10 8 -10 27zM666 1483q0 31 51 61q53 41 98 98q41 58 94 58q80 0 80 -80q0 -53 -47 -86q-31 -25 -63 -27l-33 -4h-2l-4 -2 q-18 -2 -37 -12l-31 -12l-12 -4q-53 -27 -62 -27q-33 0 -32 37z" />
<glyph unicode="&#xdb;" horiz-adv-x="1386" d="M78 1319q0 47 67 47l48 2h26q8 -2 12 -2q27 0 58 2h61q39 0 56 2h-3q12 2 68 2l76 2q76 0 76 -57q0 -27 -15 -43q-16 -16 -61 -29v2q-66 -25 -90 -71q-14 -39 -15 -86q-2 -18 -2 -53.5t2 -53.5l4 -45q0 -4 1.5 -14.5t1.5 -16.5q0 -16 2 -26v-11q-2 -10 -2 -16 q0 -4 -1.5 -17.5t-1.5 -21.5v-27q0 -8 -2 -22t-2 -23q-4 -29 -4 -30q0 -4 1 -12.5t2 -26t1 -31.5q2 -20 7 -74v-65l-3 -35q-2 -23 -2 -61q0 -76 19 -111q45 -86 57 -107v3q8 -12 51 -35h-2q6 -2 60 -37q12 -10 22 -10q14 0 76 12l-4 -2q8 4 18 4l97 -4q31 2 92 26h-2 q68 41 76 56q2 2 28 45v-2q2 2 4 8t5 11t6 9q37 61 38 74v-2v2v2q0 23 7 90l8 111v-2l8 182l-4 49l-2 111v12l2 43q-2 2 -2 4l-6 54q0 8 -13 36q-10 29 -20 113q-4 16 2 18h-2l-49 35q-6 5 -41 56l2 -5q-23 16 -39 27q-41 25 -41 51q0 39 72 39q31 0 88 -8q4 0 23.5 -1 t31.5 -1q2 0 7 1t9 1h43h86l56 2h6q49 0 49 -45q0 -31 -57 -86l-21 -12q-27 -10 -28 -13l4 2q-14 -14 -33 -59q-10 -25 -10 -55q0 -12 2 -33q2 -23 2 -66l4 -190l-4 -45v-39l-4 -53l-2 -131q0 -10 6 -76q2 -14 2 -29q0 -37 -13 -94l-8 -35q0 -2 -1 -6l-1 -4l-8 -41 q-2 -2 -6 -18v2q0 -2 -2 -7.5t-3 -9.5t-3 -8v2q-27 -74 -56 -104q-98 -111 -178 -129q-6 0 -10 -2q-25 -6 -41 -9l2 2q-29 -6 -92 -8q-51 -8 -84 -8q-78 0 -139 19q-162 49 -185 63h2q-45 18 -98 88q-10 8 -20 25v-2q-39 45 -54 84q-25 76 -24 159v13l2 55l-4 67v-2l-8 43 q0 49 -2 78q0 14 -1.5 40t-1.5 32q0 117 17 178v-6q0 2 2 6v10l-14 109q0 2 1 9t1 11q0 2 1 10.5t1 14.5v29q0 137 -62 168q-43 18 -49 30q-10 8 -10 27zM561 1462q0 4 33 58h-2l20 34l31 48l-2 -3l14 25l33 41l4 8q8 27 19 37q18 14 53 14q10 0 39 -8l4 -4q2 -6 4 -8 q6 -6 23 -31l34 -49l19 -29l8 -16t10 -18q4 -8 17 -29q4 -10 8 -18.5t6 -13.5t2 -7l-2 4q12 -14 12 -33q0 -35 -37 -34q-20 0 -110 71q-43 68 -45 68q-12 0 -29 -33q-23 -43 -49 -59q-4 -4 -9 -8.5t-13.5 -10.5t-16.5 -12q-23 -23 -43 -23q-35 0 -35 39z" />
<glyph unicode="&#xdc;" horiz-adv-x="1386" d="M78 1319q0 47 67 47l48 2h26q8 -2 12 -2q27 0 58 2h61q39 0 56 2h-3q12 2 68 2l76 2q76 0 76 -57q0 -25 -15 -45q-18 -18 -61 -27v2q-68 -25 -90 -73q-14 -35 -15 -87q-2 -16 -2 -51q0 -37 2 -53l4 -45q0 -4 1.5 -16.5t1.5 -16.5q0 -14 2 -24v-11q-2 -10 -2 -16 q0 -4 -1.5 -17.5t-1.5 -21.5v-27q-2 -8 -3 -23t-1 -24q-4 -25 -4 -28.5t1 -12t2 -26t1 -31.5q2 -27 7 -76v-63l-3 -35q-2 -23 -2 -61q0 -76 19 -111q45 -86 57 -107v3q8 -12 51 -35h-2q6 -2 60 -37q12 -10 22 -10q14 0 76 12l-4 -2q8 4 18 4l97 -4h-2q41 4 94 26h-2 q68 41 76 56q6 6 28 45v-2q2 2 4 8t5 11t6 9q37 61 38 74v-2q0 20 7 94l8 111v-2l8 182l-4 49l-2 111v12l2 43q-2 2 -2 4q-2 14 -6 51q0 12 -13 39q-12 31 -20 113q-4 14 2 16h-2l-49 37q-4 5 -41 54l2 -5q-35 27 -39 29q-41 25 -41 49q0 41 72 41q31 0 88 -8q25 -4 55 -4 q2 0 8 1t10 1h-2q14 2 43 2h86l56 2h6q49 0 49 -45q0 -35 -57 -86l-21 -12q-27 -10 -28 -13l4 2q-12 -12 -33 -59q-10 -25 -10 -57q0 -12 2 -31q2 -23 2 -68l4 -188l-4 -45v-39l-4 -53l-2 -131q0 -10 6 -76q2 -14 2 -29q0 -37 -13 -94q-8 -31 -8 -37l-2 -4v-4l-8 -41 q-2 -2 -6 -18v2q0 -2 -3 -11.5t-5 -15.5v2q-27 -72 -56 -102q-98 -111 -178 -129q-6 0 -10 -2q-25 -6 -41 -9l2 2q-29 -6 -92 -8q-51 -8 -84 -8q-78 0 -139 19q-162 49 -185 63h2q-43 18 -98 86q-10 10 -20 27v-2q-39 45 -54 84q-25 76 -24 157v15l2 55l-4 67v-2l-8 43 q0 49 -2 76q0 16 -1.5 42t-1.5 32q0 117 17 178v-6q0 2 2 6v8l-14 111q0 2 1 9t1 11q0 2 1 10.5t1 14.5v27q0 141 -62 168q-41 18 -49 32q-10 8 -10 27zM469 1554q0 35 31 74q51 53 82 53q27 0 73 -32q25 -16 31 -41q0 -16 2 -31v2q6 -29 6 -37q0 -18 -14 -39v2 q-16 -43 -34.5 -54t-61.5 -11q-25 0 -62 24v-2q-53 33 -53 92zM852 1569q0 37 24.5 67.5t57.5 30.5h12q41 0 66 -18q45 -29 45 -99q0 -27 -10 -53l2 2q-2 -25 -43 -41q-35 -20 -60 -20q-94 0 -94 131z" />
<glyph unicode="&#xdd;" horiz-adv-x="1120" d="M12 1327q0 16 15 31q6 8 90 12q59 6 67 6q14 0 62 -8q16 0 28 2q29 4 41 4l7 -2h12q4 0 14 -1t17 -1q4 -2 41 -2q78 0 77 -51q0 -20 -20 -41l-31 -35q-10 -10 -10 -27q0 -31 59 -116q35 -57 45 -68l37 -39q20 -20 37 -53h-2l31 -49l18 -41q45 0 127 172q14 41 23 49 l51 68q20 20 20 42.5t-16 49.5q-6 2 -8 8q-8 4 -15 16l-2 2q-12 8 -32 25h2q-16 10 -17 37q0 51 78 51h21q6 0 16 -1t14 -1q14 -2 29 -2h4q4 2 13.5 3t19.5 3t30.5 2t79.5 -8q74 -12 74 -55v-4q0 -25 -12 -36.5t-76 -43.5q-25 -14 -63 -62l-4 -6q-2 0 -15.5 -14.5 t-25.5 -28.5q-8 -10 -45 -84l-29 -45v2l-23 -35l-14 -20l-10 -14l-19 -29l-57 -86q-23 -27 -39 -60v2q-8 -27 -8 -81v-154q-6 -51 -6 -53t4 -23q2 -12 2 -39v-6l-2 -90l-2 -63v-13q0 -39 12 -67q12 -23 55 -64h-2q43 -33 43 -61q0 -35 -32 -35h-5l-38 2q-10 -2 -46 -2l-94 4 q-4 0 -10 -2q-4 0 -12 -1t-11 -1q-16 -2 -36 -2q-16 0 -27 2h2q-20 2 -33 2l-28 -2h-54q-57 0 -57 41q0 29 27 41l43 20h-2q6 4 53 70q29 35 29 51v8q-2 20 -3 37l7 119q0 31 6 90q0 6 2 14l-8 107q-4 45 -7 76l-4 6q-4 6 -16 27.5t-25 41.5q-14 27 -47 84q-12 20 -18 33 q-10 14 -41 53q-35 45 -53 78q-6 14 -37 68l2 -4q-2 0 -5 4t-3 6q-49 80 -56 84l-41 39l-34 41v-2l-29 24h4q-49 31 -59 41q-14 14 -15 33zM532 1483q0 27 52 61q57 45 98 98q43 58 94 58q78 0 78 -80q0 -53 -45 -86q-33 -27 -64 -29l-32 -4l-2 -2h-4q-23 -4 -39 -10 q-4 -2 -14.5 -6t-14.5 -6l-12 -4q-53 -27 -62 -27q-33 0 -33 37z" />
<glyph unicode="&#xde;" horiz-adv-x="972" d="M100 1319q1 53 62 55l117 -6q68 8 96 8q104 0 104 -69q0 -23 -28 -45q-29 -25 -35 -39v2q-20 -61 -21 -105q0 -14 -4 -14l23 2l18 -2l6 2l58 -2q6 0 17 -1t17 -1q29 0 39 -2h-4q8 -4 19 -6l-2 2q6 -2 17 -5t19 -6h-2q160 -12 273 -241q27 -61 33 -80q6 -45 6 -80 q0 -158 -105 -252v2q-76 -86 -131 -98h2l-37 -10q-59 -16 -79 -17h-41l-62 -6l-53 4h-2q-16 0 -17 -47q0 -14 3 -26q0 -4 1 -12.5t1 -12.5q0 -6 1 -12t1 -9l16 -24q12 -43 37 -62q27 -27 26 -53q0 -51 -38 -51h-60q-6 0 -8 -2q-16 -2 -41 -2q-2 0 -7 1t-9 1t-12.5 1t-14.5 1 l-86 -2h-10q-25 0 -70 16q-25 12 -24 45q0 20 14 35l51 43l-4 -2q12 16 16 51q2 29 11 86v13q0 8 -4 32q-2 14 -3 41q0 35 3 62q0 6 1 15t1 14q6 61 6 86q0 10 -6 75v-2q-2 6 -3.5 22.5t-1.5 22.5l7 66v4q-2 4 -2 6t-1 11.5t-1 15.5v202q0 8 -3 19q-2 25 -6 82q0 4 -1 12 t-1 12l-2 109q-2 29 -41 68h2q-41 29 -41 59zM385 580q0 -8 2 -15q0 -2 1 -6t1 -8q0 -10 2 -16q0 -2 1 -6.5t1 -6.5q14 -92 47 -92h2l66 12q49 2 65 7l-2 -3q31 8 66 54l4 8q6 8 10 10h-2l29 41l16 82q16 57 17 59q-4 8 -11 43q-4 12 -6 62q0 2 -1 11t-1 13q0 16 -16 39 q-8 4 -49 45q-8 8 -25.5 23.5t-28.5 26.5q-8 4 -24 8l-47 -2l-37 2h-2q-25 0 -51 -45q-18 -33 -19 -58q0 -14 2 -26q0 -6 1 -19.5t1 -15.5q0 -20 -2 -37q-2 -25 -2 -45v-57l-2 -52q-6 -35 -6 -36z" />
<glyph unicode="&#xdf;" horiz-adv-x="942" d="M39 47q0 23 10 33l64 47q14 8 24 39v6q0 4 1 13.5t2 27.5t1 35q0 23 4 59q2 16 2 24.5t-4 57.5q0 10 -3 35t-3 35q0 45 21 137v-2q0 2 1 6t1 6v2q2 2 2 4l-2 6v10.5t-1 15.5t-1 20v20q0 12 -2 29q-2 14 -2 39v63v55q0 27 16 86q2 10 8 33t8 27q2 10 13 33l18 28 q4 6 13.5 21.5t15.5 25.5q4 6 12 17.5t12 17.5t11.5 17.5t11.5 17.5q74 74 199 74h34q80 -2 146 -49q78 -61 86 -166q8 -27 12 -72l2 -10v-10q0 -47 -57 -119q-25 -33 -35 -43l-53 -41q-29 -23 -29 -41q0 -8 43 -35q4 -2 16.5 -8t20.5 -10q123 -68 170 -144h-2q6 -8 33 -45 h-2l10 -10q20 -35 22 -72q0 -12 2 -22q0 -6 2 -11v2q8 -33 9 -59q0 -20 -31 -127q-31 -86 -111 -133q-2 -2 -45 -25q-2 -2 -10 -8t-10 -6q-31 -12 -74 -14h-29l-43 -4q-53 0 -123 37q-70 33 -81 106v-25q0 -6 1 -18t1 -16q0 -74 -95 -74q-27 0 -41 2q-37 4 -41 4 q-29 0 -49 -2h2q-10 -2 -32 -2q-72 0 -72 49zM315 657q43 -23 43 -49l-2 -51q0 -49 9 -106v-17l-5 -78q0 -6 2 -14q3 -16 3 -127v-37q6 37 28 70q25 41 70 41q57 0 84 -43q10 -25 10 -35q0 -2 -6 -51q-4 -20 -4 -25l-4 -33q0 6 4 2q37 -12 51 -12q33 4 61 49q18 25 23 92 q0 16 1 32t2 22t1 8q0 18 -16 82l2 -2q-4 12 -8 65l2 -4q-18 47 -70 109l-41 43q-12 10 -33 22l-16 13h2q-43 27 -43 94q0 18 27 61q23 35 24 53q4 4 23 35q31 55 30 92q0 86 -41 134q-31 37 -63 36q-35 0 -64 -36l2 6q-2 -2 -7 -9.5t-5 -9.5q-23 -27 -22 -28 q-10 -20 -11 -154q0 -6 7 -45v-37q0 -66 -9 -147l-2 -11h-39z" />
<glyph unicode="&#xe0;" d="M51 168q0 8 4 20v23q0 4 1 14.5t1 16.5q2 37 27 73q45 59 137 109l12 4q6 2 27 12.5t37 16.5q39 10 68 39q23 27 22 47q0 6 -29 59l2 -2q-20 29 -30 31h-21l-24 -4l-6 -6q-2 -2 -6.5 -8.5t-8.5 -10.5q-18 -18 -39 -33q-31 -23 -49 -22q-53 0 -53 65q0 55 45 95l-2 -2 q16 16 70 32l-3 -2l23 13q35 18 59 18q74 0 109 -14q53 -20 102 -97q25 -41 25 -92v-12q0 -4 -1 -12.5t-1 -12.5l-2 -254q0 -31 2 -53q6 -23 31 -53q10 -12 12 -12l39 -17q10 -10 10 -24q0 -20 -35 -64q-47 -66 -102 -65q-23 0 -47 12l-27 20l-6 7q-4 2 -9 6t-7 4 q2 -2 -9 -6h2q-86 -43 -153 -43q-90 0 -162 71q-23 25 -25 56q-2 6 -2 14l-2 2v6q-2 8 -3 16.5t-2 12.5t-1 6zM115 956q0 39 29.5 73t64.5 34q16 0 43 -14q4 -2 84 -88l16 -17l-2 2q12 -6 29 -22q43 -37 43 -70q0 -39 -39 -39q-12 0 -74 27v-2l-78 24l-18 6q-2 2 -9 5.5 t-9 3.5l2 -2q-2 0 -9.5 3t-19.5 8t-25 9q-29 18 -28 59zM233 203q0 -29 21 -45q37 -29 80 -29t51 82q0 16 2 29v-2q0 4 3 27.5t5 37.5t2 25l-2 39q0 4 -1 11t-1 9q0 10 -2 14q-14 -4 -39 -28q-4 -2 -18 -17q-45 -33 -53 -45q-47 -59 -48 -108z" />
<glyph unicode="&#xe1;" d="M51 168q0 8 4 18v25q0 4 1 13t1 16q2 35 27 75q45 59 137 109l12 4q55 25 64 27q39 12 68 41q23 27 22 47q0 6 -29 59l2 -2q-23 29 -30 31h-21l-24 -4l-6 -9q-2 -2 -6.5 -7t-8.5 -9q-18 -18 -39 -33q-31 -23 -49 -22q-53 0 -53 63q0 57 45 97l-2 -2q14 12 70 32l-3 -2 l23 13q35 18 59 18q74 0 109 -14q53 -20 102 -97q25 -39 25 -94v-10q0 -4 -1 -12.5t-1 -12.5l-2 -254q0 -33 2 -53q6 -23 31 -53q10 -12 12 -12l39 -17q10 -10 10 -24q0 -23 -35 -64q-47 -66 -102 -65q-23 0 -47 12l-27 20l-6 7q-4 2 -9 6t-7 4q2 -2 -9 -6h2 q-86 -43 -153 -43q-90 0 -162 71q-23 25 -25 56q-2 6 -2 14l-2 2v6q-2 8 -3 16.5t-2 12.5t-1 6zM233 203q0 -29 21 -45q37 -29 80 -29t51 82q0 16 2 29v-2q0 4 3 27.5t5 37.5t2 25l-2 39q0 4 -1 11t-1 9q0 10 -2 12q-16 -4 -39 -26q-4 -2 -18 -17q-45 -33 -53 -45 q-47 -59 -48 -108zM252 842q0 25 55 59l-2 -2q59 43 94 90q41 55 90 55q78 0 78 -75q0 -49 -45 -82q-31 -23 -61 -25l-33 -4h2q-2 0 -10 -2t-18.5 -5t-20.5 -7h-2q-2 -2 -4 -2l8 2q-12 -6 -25 -10l4 2q-2 0 -20 -9.5t-35 -15.5q-6 -6 -16 -6q-39 0 -39 37z" />
<glyph unicode="&#xe2;" d="M51 168q0 8 4 20v23q0 4 1 14.5t1 16.5q2 37 27 73q41 57 137 109l12 4q6 2 27 12.5t37 16.5q43 14 68 39q23 29 22 47q0 8 -29 59l2 -2q-20 31 -30 31h-21q-23 0 -24 -2l-6 -8q-2 -2 -6.5 -8.5t-8.5 -10.5q-18 -18 -39 -31q-31 -25 -49 -24q-53 0 -53 65q0 57 45 95 l-2 -2q14 14 70 34l-3 -2l23 11q35 18 59 18q74 0 109 -14q49 -16 102 -97q25 -37 25 -92v-12q0 -4 -1 -12.5t-1 -12.5l-2 -254q0 -31 2 -53q6 -23 31 -53q10 -12 12 -12l39 -17q10 -10 10 -24q0 -20 -35 -64q-47 -66 -102 -65q-23 0 -47 12l-27 20l-8 9q-2 2 -5 3t-7 3 l-2 2q2 -2 -9 -6h2q-86 -43 -153 -43q-90 0 -162 71q-23 25 -25 56q-2 6 -2 14l-2 2v6q-2 8 -3 16.5t-2 12.5t-1 6zM156 836q8 23 30 53l-2 -2l19 39l28 39l-2 -2l15 22l30 37q20 43 31.5 51t44.5 8q12 0 39 -10q2 -4 14 -22l13 -19l33 -45l18 -24q2 -4 10 -17 q20 -39 27 -49q4 -10 8 -23q0 -2 4 -6q10 -14 10 -28q0 -37 -37 -37q-14 0 -106 69q-14 18 -24.5 34t-14.5 22t-2 6q-12 0 -31 -33q-14 -29 -19 -34t-32 -21q-10 -6 -33 -29q-18 -18 -39 -18q-33 0 -32 39zM233 203q0 -29 21 -45q37 -29 80 -29t51 80q0 18 2 31v-2 q0 4 3 27.5t5 37.5t2 25l-2 39q0 4 -1 11t-1 9q0 10 -2 14q-14 -4 -39 -28q-4 -2 -18 -17q-45 -33 -53 -45q-47 -59 -48 -108z" />
<glyph unicode="&#xe3;" d="M51 168q0 8 4 18v25q0 4 1 13t1 16q2 35 27 75q43 55 137 109l12 4q6 2 27 11.5t37 15.5q37 12 68 39q23 29 22 49q0 6 -29 57l2 -2q-23 29 -30 33h-21l-24 -4l-6 -9q-2 -2 -6.5 -8t-8.5 -10q-2 0 -14 -11t-25 -20q-31 -25 -49 -24q-53 0 -53 65q0 57 45 95l-2 -3 q14 14 70 35l-3 -2l23 13q37 16 59 16q74 0 109 -14q49 -16 102 -97q25 -37 25 -92v-12q0 -2 -1 -10.5t-1 -12.5l-2 -254q0 -33 2 -53q6 -27 31 -53q10 -12 12 -12l39 -17q10 -16 10 -24q0 -23 -35 -64q-47 -66 -102 -65q-23 0 -47 12l-27 20l-8 9q-2 2 -5 3t-7 3l-2 2 q2 -2 -9 -6h2q-86 -43 -153 -43q-90 0 -162 71q-23 25 -25 56q-2 6 -2 14q0 2 -2 6q-2 8 -3 17.5t-2 13.5t-1 6zM102 868q0 29 29 52v-2l27 28q51 70 106 70h17q25 -8 61 -27l-2 2l33 -10q72 -39 80 -39q29 0 69 33q4 2 10 8q39 0 39 -29v-4q0 -10 -43 -69q-20 -29 -41 -50 q-39 -25 -65 -24q-25 0 -60 10q-14 2 -55 27q-14 4 -57 18q-43 16 -53 17q-8 0 -19 -13q-25 -35 -41 -35q-35 0 -35 37zM233 203q0 -29 21 -45q37 -29 80 -29t51 82q0 16 2 27v-2l2 26q4 25 6 41q2 14 2 25l-2 39q0 4 -1 11t-1 9q0 8 -2 12q-12 -2 -39 -26q-4 -2 -18 -17 q-45 -33 -53 -45q-47 -59 -48 -108z" />
<glyph unicode="&#xe4;" d="M51 168q0 8 4 18v25q0 4 1 13t1 16q2 35 27 75q43 55 137 109l12 4q6 2 27 11.5t37 15.5q37 12 68 39q23 29 22 49q0 6 -29 57l2 -2q-23 29 -30 33h-21l-24 -4l-6 -9q-2 -2 -6.5 -8t-8.5 -10q-2 0 -14 -11t-25 -20q-31 -25 -49 -24q-53 0 -53 65q0 57 45 95l-2 -3 q14 14 70 35l-3 -2l23 13q37 16 59 16q74 0 109 -14q49 -16 102 -97q25 -37 25 -92v-12q0 -2 -1 -10.5t-1 -12.5l-2 -254q0 -33 2 -53q6 -27 31 -53q10 -12 12 -12l39 -17q10 -16 10 -24q0 -23 -35 -64q-47 -66 -102 -65q-23 0 -47 12l-27 20l-6 7q-4 2 -9 6t-7 4 q2 -2 -9 -6h2q-86 -43 -153 -43q-90 0 -162 71q-23 25 -25 56q-2 6 -2 14q0 2 -2 6q-2 8 -3 17.5t-2 13.5t-1 6zM117 918q0 49 18 69q33 31 84 31q18 0 57 -25q8 -12 19 -41q2 -6 3 -14t3 -13t2 -7l2 -13q0 -39 -29 -71q-20 -20 -45 -21q-92 0 -106 70q-6 18 -8 35zM233 203 q0 -29 21 -45q37 -29 80 -29t51 82q0 16 2 27v-2l2 26q4 25 6 41q2 14 2 25l-2 39q0 4 -1 11t-1 9q0 8 -2 12q-12 -2 -39 -26q-4 -2 -18 -17q-45 -33 -53 -45q-47 -59 -48 -108zM336 922q0 6 13 36.5t20 36.5q20 21 63 21q27 0 62 -19q49 -27 49 -86q0 -39 -49 -82 q-27 -27 -50 -26q-43 0 -84 41q-18 18 -20 51z" />
<glyph unicode="&#xe5;" d="M51 168q0 8 4 20v23q0 4 1 14.5t1 16.5q2 37 27 73q41 57 137 109l12 4q6 2 27 12.5t37 16.5q39 10 68 39q23 29 22 47q0 8 -29 59l2 -2q-20 29 -30 31h-21q-14 -2 -24 -2l-6 -8q-2 -2 -6.5 -8.5t-8.5 -10.5q-18 -18 -39 -31q-31 -25 -49 -24q-53 0 -53 65q0 57 45 95 l-2 -2q16 16 70 32h-3l23 11q35 18 59 18q74 0 109 -14q53 -20 102 -97q25 -41 25 -92v-12q0 -4 -1 -12.5t-1 -12.5l-2 -254q0 -31 2 -53q6 -23 31 -53q10 -12 12 -12l39 -17q10 -10 10 -24q0 -20 -35 -64q-47 -66 -102 -65q-23 0 -47 12l-27 20l-8 9q-2 2 -5 3t-7 3l-2 2 q2 -2 -9 -6h2q-86 -43 -153 -43q-90 0 -162 71q-23 25 -25 56q-2 6 -2 14l-2 2v6q-2 8 -3 16.5t-2 12.5t-1 6zM219 952q0 55 76 107q28 16 53 16h2q16 0 53 -16.5t52 -28.5q16 -20 28 -55l4 -25q0 -47 -18 -76q-45 -74 -129 -73q-121 0 -121 151zM233 203q0 -29 21 -45 q37 -29 80 -29t51 82q0 16 2 29v-2q0 4 3 27.5t5 37.5t2 25l-2 39q0 4 -1 11t-1 9q0 10 -2 14q-14 -4 -39 -28q-4 -2 -18 -17q-45 -33 -53 -45q-47 -59 -48 -108zM315 942q0 -12 9 -20q6 -10 14 -19l22 2q12 0 23 19q6 12 6 18q0 8 -22 27q-11 8 -25 8q-8 0 -17.5 -12.5 t-9.5 -22.5z" />
<glyph unicode="&#xe6;" horiz-adv-x="1011" d="M55 141v17q0 88 15 123q16 51 129 120h-2q55 35 112 52q31 8 62 32q27 27 26 50q1 6 -30 59q-18 27 -31 29h-37q-4 0 -27 -27q-20 -20 -41 -35q-31 -23 -51 -22q-55 0 -55 63q0 57 47 94q6 6 70 31l-2 -2l22 12q31 16 62 17q88 0 114 -13q47 -23 78 -63l16 -16q8 0 21 12 q90 78 182 78q102 0 195 -80q78 -72 78 -135q0 -88 -80 -88q-20 0 -31 2h-12l-8 2q-31 0 -52 -2q-4 0 -12 -1t-10 -1q-14 -2 -35 -3h-31q-31 0 -43 3h2q-55 6 -67 6q-33 0 -56 -21q-6 -4 -6 -24l2 -4v-9q0 -2 1 -9t1 -9q6 -74 9 -76q20 -37 71 -78t66 -45v2q33 -10 61 -10 q74 0 135 23l2 2h5l-9 -2l25 12q12 4 20 4q33 0 33 -35q0 -8 -12 -37l2 2v-4q-2 -4 -2 -6q-10 -47 -39 -72v2q-4 -4 -29 -22q-18 -12 -65 -37q-41 -18 -123 -18q-27 0 -82 20q-16 6 -37 14l-18 9q-31 23 -43 45q-18 25 -25 24q-20 0 -104 -63q-72 -49 -158 -49 q-94 0 -168 73q-10 10 -31 84zM240 201q0 -29 22 -45q35 -29 82 -29q23 0 29 6q72 53 71 72l-2 2q0 2 -1 5t-2 8t-3 9q-16 47 -20 133q0 2 -1 8.5t-1 10.5q0 12 -2 16q-8 -2 -47 -30l-15 -15q-49 -33 -63 -47h2q-49 -55 -49 -104zM608 565q0 -6 4 -6q35 -10 174 -10 q33 0 33 10q0 29 -35 59q-26 25 -77 25q-47 0 -78 -33q-20 -20 -21 -45z" />
<glyph unicode="&#xe7;" horiz-adv-x="649" d="M53 399q0 141 99 250q86 100 196 109l-2 -2q12 4 90 4q70 0 88 -6q61 -18 97 -70q25 -41 24 -76q0 -29 -22.5 -54.5t-49.5 -25.5q-66 0 -129 84q-23 29 -38 31q-20 4 -70 4q-29 0 -68 -55q-27 -39 -26 -152v-16q0 -4 1 -9t1 -7v-52h-8q31 -37 55 -102q29 -61 49 -90 q12 -18 43 -37q25 -18 43 -18h29q37 4 80 16l14 4l16 4l-10 -2q19 11 35 19l8 2q33 0 33 -29q0 -20 -31 -45q-2 0 -7 -4t-7 -6q-14 -14 -23 -21q-27 -20 -41 -29q-10 -10 -16 -14q-18 -10 -64 -18l-16 -4q0 -2 -6 0l39 -17q10 -10 28.5 -38.5t18.5 -37.5l-8 -36l2 -27 q0 -29 -25 -53v2q-55 -51 -96 -51q-61 0 -82 14q-18 8 -45 45v-2q-23 25 -23 55q0 18 18.5 39t39.5 21q25 0 53 -54q0 -6 41 -6q14 0 14 14v19l-57 29q-18 12 -19 39q0 12 3 30q2 6 2 33h-2q-68 10 -148 80l-16 20q-2 2 -6 9q-14 14 -21 26q-23 29 -47 78q-4 16 -12 76 q-18 84 -19 110zM457 -33h2h-2z" />
<glyph unicode="&#xe8;" horiz-adv-x="626" d="M51 338q0 6 12 80q18 131 62 184v-4q29 47 63 92q82 74 170 74q117 0 217 -113q47 -53 48 -106q0 -88 -78 -88q-18 0 -29 2h-20h-52q-2 0 -10 -1t-10 -1q-12 -2 -35 -2h-29q-31 0 -41 2h3q-14 0 -31 1t-25 2t-12 1q-35 0 -53 -21q-6 -2 -6 -24q0 -12 2 -31q10 -78 12 -82 q10 -25 67 -74q41 -37 64 -45v2q37 -12 59 -12q27 0 109 16q16 4 45 19q12 6 20 6q33 0 33 -35q0 -16 -10 -35q-4 -8 -4 -12h2q-10 -41 -37 -70q-2 -2 -6 -5t-10 -9t-13 -10q-20 -12 -63 -37q-39 -18 -121 -18q-20 0 -84 22l-20 10q-27 10 -29 11q-31 20 -57 63 q-39 55 -72 113q-31 102 -31 135zM172 956q0 39 28.5 73t65.5 34q20 0 45 -16l-2 2q6 -4 82 -88q2 -2 8.5 -7.5t10.5 -9.5l-2 2q8 -6 28 -22q41 -35 41 -70q0 -39 -37 -39q-10 0 -75 27l2 -2l-78 24l-19 6q-2 2 -9 5.5t-9 3.5l2 -2q-4 0 -10 3t-18.5 8t-24.5 9 q-29 18 -29 59zM211 27h2h-2zM236 573q0 -6 4 -6q31 -10 170 -10q31 0 30 10q0 31 -34 62q-29 24 -76 24q-45 0 -76 -35q-18 -25 -18 -45z" />
<glyph unicode="&#xe9;" horiz-adv-x="626" d="M51 338q0 6 12 80q18 131 62 184v-4q29 47 63 92q82 74 170 74q115 0 217 -113q47 -55 48 -106q0 -90 -78 -90q-18 0 -29 2q-6 0 -12 2h-8q-29 0 -52 -2q-2 0 -10 -1t-10 -1q-12 -2 -35 -2h-29q-31 0 -41 2h3q-55 6 -68 6q-33 0 -53 -21q-6 -2 -6 -24q0 -14 2 -31 q10 -78 12 -82q10 -25 67 -74q45 -43 64 -45v2q37 -12 59 -12q27 0 109 16q16 4 45 19q12 6 20 6q33 0 33 -35q0 -16 -10 -35q-4 -8 -4 -12h2q-12 -45 -37 -70q-2 -2 -6 -5t-10 -9t-13 -10q-20 -12 -63 -37q-39 -18 -121 -18q-20 0 -84 22l-20 10q-27 10 -29 11 q-31 20 -57 63q-39 55 -72 113q-31 102 -31 135zM211 27h2h-2zM236 573q0 -4 4 -8q25 -8 170 -8q31 0 30 8q0 33 -34 64q-29 24 -76 24q-45 0 -76 -37q-18 -23 -18 -43zM297 842q0 25 53 59l-2 -2q59 43 94 90q41 55 90 55q78 0 78 -75q0 -49 -45 -82q-31 -23 -61 -25 l-33 -4h2q-2 0 -10 -2t-18.5 -5t-20.5 -7h-2l-4 -2l8 2q-12 -6 -25 -10l5 2q-2 0 -20.5 -9.5t-35.5 -15.5q-6 -6 -16 -6q-37 0 -37 37z" />
<glyph unicode="&#xea;" horiz-adv-x="626" d="M51 338q0 6 12 80q18 135 62 184v-4q20 37 63 92q80 74 170 74q117 0 217 -113q47 -53 48 -106q0 -88 -78 -88q-18 0 -29 2h-12l-8 2q-29 0 -52 -2q-2 0 -10 -1t-10 -1q-12 -2 -35 -2h-29q-31 0 -41 2h3q-55 6 -68 6q-33 0 -53 -23q-6 -2 -6 -24q0 -12 2 -31 q10 -78 12 -82q10 -25 67 -74q41 -37 64 -45v2q37 -12 59 -12q31 0 109 19q16 2 45 16q12 6 20 6q33 0 33 -35q0 -16 -10 -35q-4 -8 -4 -12h2q-10 -41 -37 -70q-2 -2 -6 -5t-10 -9t-13 -10q-20 -12 -63 -37q-39 -18 -121 -18q-20 0 -84 22l-20 10q-27 10 -29 11 q-31 20 -57 63q-39 55 -72 113q-31 102 -31 135zM160 836q4 12 30 53l-2 -2l21 39l29 39l-2 -2l12 22l31 37q20 43 32 51t45 8q12 0 37 -10q4 -6 17 -22l10 -19l33 -45l18 -24q2 -4 10 -17q10 -20 27 -49q4 -10 8 -23q0 -2 4 -6q10 -14 10 -28q0 -37 -34 -37q-16 0 -109 69 q-14 18 -23.5 34t-13.5 22t-2 6q-16 0 -31 -33q-12 -27 -18 -33t-33 -22q-18 -10 -33 -29q-20 -18 -40 -18q-33 0 -33 39zM211 27h2h-2zM236 575q0 -4 4 -8q31 -10 170 -10q31 0 30 10q0 29 -34 64q-29 22 -76 22q-45 0 -76 -35q-18 -25 -18 -43z" />
<glyph unicode="&#xeb;" horiz-adv-x="626" d="M51 336q0 8 12 82q18 133 62 182v-4q16 31 63 94q80 72 170 72q117 0 217 -113q47 -53 48 -106q0 -88 -78 -88q-18 0 -29 2q-6 0 -12 2h-8q-29 0 -52 -2q-2 0 -10 -1t-10 -1q-12 -2 -35 -2h-29q-31 0 -41 2h3q-55 6 -68 6q-33 0 -53 -21q-6 -2 -6 -24q0 -14 2 -31 q10 -76 12 -82q8 -25 67 -74q43 -41 64 -47v2q41 -10 59 -10q27 0 109 16q16 4 45 19q12 6 20 6q33 0 33 -35q0 -16 -10 -35q-4 -8 -4 -14h2q-12 -43 -37 -68q-2 -2 -6 -5t-10 -9t-13 -10q-20 -12 -63 -37q-39 -18 -121 -18q-20 0 -84 22l-20 10q-27 10 -29 11 q-31 20 -57 63q-39 55 -72 113q-31 102 -31 133zM158 918q0 49 20 69q31 31 82 31q23 0 57 -25q6 -6 19 -41q2 -6 3 -14t3 -13t2 -7l2 -13q0 -39 -29 -71q-20 -20 -45 -21q-88 0 -106 70q-6 18 -8 35zM211 27h2h-2zM236 573q0 -4 4 -8q31 -10 170 -10q31 0 30 10 q0 29 -34 64q-25 22 -76 22q-47 0 -76 -35q-18 -25 -18 -43zM377 922q0 6 13 36.5t20 36.5q20 21 63 21q29 0 62 -19q49 -27 49 -86q0 -39 -49 -82q-27 -27 -50 -26q-43 0 -84 41q-16 16 -18 51z" />
<glyph unicode="&#xec;" horiz-adv-x="399" d="M2 956q0 39 27.5 73t62.5 34q18 0 43 -16q10 -6 78 -86l14 -15q16 -12 29 -22q39 -35 39 -70q0 -39 -35 -39q-12 0 -72 27v-2l-73 24l-19 6q-2 0 -4 2q-10 4 -12 7v-2q-14 6 -51 20q-27 18 -27 59zM80 39q0 25 37 61h-2q16 20 16 37q0 4 -2 13v16q0 16 2 24v-2 q0 4 1 10.5t1 8.5q0 10 1 19.5t2 13.5t1 6q2 14 2 47v41q0 47 -4 104l2 -4q-2 12 -2 19v4q0 18 2 28l2 21l6 47q0 2 -3 5t-6 7t-5 8l-10 11q-25 20 -29 25t-4 18v4q0 27 18 41l33 18h-2l53 31q33 12 41 16l15 8h-2q18 12 35 13q35 0 34 -43q0 -23 -6 -60q-2 -10 -2 -18 q0 -25 2 -41q0 -10 1 -25.5t1 -17.5q0 -41 -6 -113q-2 -6 -2 -18q0 -23 2 -37q4 -33 4 -39v-18q-2 -8 -2 -23q0 -139 25 -194v2q4 -10 12 -27l-2 2q20 -37 20 -49q0 -43 -63 -43q-2 0 -9 1t-14 1q-4 0 -16 1t-18 1h-31q-4 0 -17.5 -1t-21.5 -1q-18 -2 -45 -2q-45 0 -45 43z " />
<glyph unicode="&#xed;" horiz-adv-x="399" d="M80 39q0 25 37 61h-2q16 20 16 37q0 4 -2 13v16q0 16 2 24v-2q0 4 1 10.5t1 8.5q0 10 1 19.5t2 13.5t1 6q2 14 2 45v43q0 47 -4 104l2 -4q-4 12 -4 17v6q0 8 4 28l2 19l6 47l-6 12q-6 6 -8 10l-10 11q-25 18 -29 23t-4 20v4q0 23 18 41l33 18h-2l53 29q10 4 24.5 10 t16.5 8l15 8h-2q18 12 32 13q35 0 35 -45q0 -33 -4 -58q-2 -10 -2 -18q0 -27 2 -41q0 -10 1 -26.5t1 -18.5q0 -39 -6 -111q-2 -6 -2 -18q0 -23 2 -37q4 -33 4 -41v-16q-2 -8 -2 -23q0 -139 25 -194v2q4 -10 12 -27l-2 2q20 -37 20 -49q0 -43 -63 -43q-2 0 -9 1t-14 1 q-4 0 -16 1t-18 1h-31q-4 0 -17.5 -1t-21.5 -1q-18 -2 -45 -2q-45 0 -45 43zM133 842q0 25 53 59l-2 -2q51 35 92 90q37 55 86 55q74 0 74 -75q0 -47 -43 -82q-27 -20 -59 -25l-31 -4h2q-31 -8 -47 -14h-2q-2 -2 -4 -2l6 2q-6 -4 -22 -10l4 2q-4 -2 -21.5 -10.5t-32.5 -14.5 q-6 -6 -16 -6q-37 0 -37 37z" />
<glyph unicode="&#xee;" horiz-adv-x="399" d="M41 836q4 14 29 53l-2 -2l18 39l29 39l-2 -2l12 22l29 37q20 43 30 51t43 8q14 0 37 -12q4 -6 15 -20l12 -19l31 -45l18 -27l4 -4q2 -6 4 -10q20 -39 27 -49q4 -10 8 -23q0 -4 2 -6q12 -14 12 -28q0 -37 -35 -37q-16 0 -104 69q-12 18 -21.5 34t-13.5 22t-2 6 q-12 0 -31 -35q-16 -33 -40 -49q-4 -4 -9 -6q-14 -8 -30 -27q-20 -20 -39 -20q-31 0 -31 41zM80 39q0 25 37 61h-2q16 20 16 37q0 4 -2 13v16q0 16 2 24q0 2 1 7.5t1 9.5q0 10 1 19.5t1 15.5l2 4q2 14 2 47v41q0 47 -4 104l2 -4q-4 12 -4 19v6q0 6 4 26l2 21l6 47 q0 2 -14 20l-10 11q-25 20 -29 25t-4 18v4q0 25 18 43l33 16h-2l53 31q8 4 22.5 9t18.5 7l15 8h-2q18 12 32 13q35 0 35 -43q0 -35 -4 -60q-2 -10 -2 -18q0 -25 2 -41q0 -10 1 -25.5t1 -17.5q0 -41 -6 -113q-2 -6 -2 -18q0 -20 2 -37q4 -33 4 -39v-18q-2 -8 -2 -23 q0 -139 25 -194v2q4 -10 12 -27l-2 2q20 -37 20 -49q0 -43 -63 -43q-2 0 -9 1t-14 1q-4 0 -16 1t-18 1h-31q-4 0 -17.5 -1t-21.5 -1q-18 -2 -45 -2q-45 0 -45 43z" />
<glyph unicode="&#xef;" horiz-adv-x="399" d="M39 918q0 49 18 69q31 31 78 31q20 0 55 -25q8 -8 19 -43q2 -8 5 -19t3 -13l2 -15q0 -41 -29 -69q-18 -20 -40 -21q-86 0 -105 70q-4 16 -6 35zM80 39q0 23 35 61q16 20 16 37q0 4 -2 13v16q0 14 2 24v-2q0 4 1 10.5t1 8.5q0 10 1 19.5t2 13.5t1 6q2 14 2 45v41 q0 51 -4 104l2 -2q-4 10 -4 17v6q0 8 4 28l2 19l6 47v-2q0 6 -14 24l-10 11q-25 18 -29 23t-4 20v4q0 23 18 41l33 18h-2l53 29q20 10 41 18l15 6h-2q18 12 32 13q35 0 35 -43q0 -6 -4 -60q-2 -10 -2 -16q0 -27 2 -43q0 -8 1 -24.5t1 -18.5q0 -43 -6 -113q-2 -4 -2 -16 q0 -23 2 -39q4 -29 4 -39v-16q-2 -8 -2 -23q0 -137 23 -194v2q6 -10 14 -27l-2 2q20 -37 20 -49q0 -43 -63 -43q-2 0 -9 1t-14 1q-4 0 -16 1t-18 1h-31q-4 0 -18.5 -1t-22.5 -1q-16 -2 -43 -2q-45 0 -45 43zM223 924q0 29 31 73q16 23 59 23q39 0 66 -43q14 -33 14 -64 q0 -27 -18 -63q-23 -47 -49 -47q-41 0 -78 41q-16 12 -19 51z" />
<glyph unicode="&#xf0;" horiz-adv-x="819" d="M55 338q0 37 2 72v71q0 47 78 158q6 8 68 57q59 41 159 64q48 10 97 10q16 0 71 -10q4 -2 15 -2q0 8 -17 67v-4l-20 35q-12 18 -27 53q-8 16 -41 90q-31 78 -51 78l-2 -2q-2 -2 -10 -8t-17 -12q-37 -31 -49 -31q-25 0 -39 25q-53 41 -53 69q0 18 23 43q14 23 34 25l-4 -2 q23 10 25 14q-4 -4 -51 41l-47 35h2q-49 31 -49 51v4q0 39 41 39q31 0 77 -29l-12 4q10 -4 16 -6q4 -2 11.5 -7t19.5 -11t23 -12q16 -10 42.5 -24.5t35.5 -20.5q25 0 45 18q18 23 36 31q39 18 58 18q25 0 51 -37q25 -35 25 -55q0 -25 -31 -39h2l-27 -16q-57 -25 -57 -33 q18 -16 51 -53q12 -12 59 -86q70 -106 99 -205q41 -135 47 -191l18 -84q0 -2 1 -8t1 -10q0 -16 2 -29q4 -37 5 -71q0 -96 -52 -219v2q-25 -61 -63 -101q-119 -109 -223 -108q-111 0 -211 65h2q-98 66 -152 150q-37 55 -37 137zM233 424q0 -70 3 -92q6 -25 22 -76l-2 2 q2 -2 4 -7t2 -7q10 -31 14 -47v4q18 -29 29 -31l25 -12l26 -15l54 -32q41 0 96 30q47 27 69 105q25 76 25 141q0 29 -4 41l-25 61q-2 2 -2 5l2 -5q-6 18 -34 84q-52 74 -158 74q-33 0 -51 -12h2q-51 -39 -80 -96v2q-16 -39 -17 -117z" />
<glyph unicode="&#xf1;" horiz-adv-x="774" d="M51 47q0 27 45 59q12 6 35 60q6 14 10 67q6 80 6 132v59q0 27 3 57q0 41 -17 56h2q-2 2 -31 18q-37 20 -47 33v2q-2 8 -2 20q0 25 37 47q70 35 96 52q77 57 91 57q20 0 32 -23l2 -26l35 22q45 29 105 29q25 0 94 -18h-4q78 -8 102 -60q33 -98 33 -123l4 -26v-39l4 -62 l-2 -6v-10q0 -27 -2 -43l4 -82q2 -47 14 -98q4 -25 15 -51q0 -8 35 -54q18 -23 34 -45q0 -51 -63 -51h-27l-43 4h-6q-14 0 -31 -2q-4 0 -12 -1t-12 -1q-10 -2 -23 -2q-6 0 -18 1t-17 1q-33 0 -38 2q-37 6 -37 43q0 20 35 57q2 2 14 37l12 35l-4 92l4 19q6 35 6 73 q0 180 -14 220q-25 70 -84 69q-41 0 -72 -24q-2 -6 -6 -17.5t-6 -17.5q-14 -29 -18 -39v-57l-5 -21v-18q0 -6 -4 -25v-16q-2 -33 -6 -64q6 -72 6 -78q0 -2 -1 -14t-1 -18q-2 -6 -2 -13q2 -4 2 -10q0 -4 2 -16.5t4 -22.5l5 -41v4q8 -23 16 -43l-2 6q10 -16 43 -39 q12 -12 12 -28q0 -35 -51 -35q-23 0 -90 10l-51 4q-14 0 -64 -12l2 2q-10 -4 -24 -4q-63 0 -64 47zM205 868q0 25 31 52v-2l26 26q54 72 109 72h16q14 -4 32.5 -13.5t31.5 -13.5l-2 2l32 -10q72 -39 80 -39q23 0 72 33q4 2 8 8q39 0 39 -31v-4q0 -10 -41 -67 q-31 -39 -41 -50q-43 -25 -67.5 -24.5t-61.5 10.5q-10 2 -55 25q-6 2 -23.5 8t-34.5 12q-43 16 -53 17q-12 0 -20 -13q-23 -35 -41 -35q-37 0 -37 37z" />
<glyph unicode="&#xf2;" horiz-adv-x="819" d="M55 334v16v88q0 68 15 90v-2q63 135 196 195q59 23 82 29q55 12 96 12q80 0 95 -6h-4q18 -6 75 -31q53 -25 80 -61l27 -37q74 -86 74 -217q0 -113 -64 -242q-31 -70 -109 -119h3q-62 -41 -74 -47l-2 -2q-49 -14 -92 -14q-111 0 -213 65q-76 55 -84 66q-100 102 -101 217z M203 956q0 39 28.5 73t65.5 34q20 0 47 -16l-2 2q6 -4 82 -88q8 -8 16 -15q12 -6 29 -22q43 -37 43 -70q0 -39 -39 -39q-10 0 -76 27l2 -2l-80 24l-18 6q-2 2 -9 5.5t-9 3.5l2 -2q-4 0 -10.5 3t-18.5 8t-25 9q-29 16 -28 59zM231 420q0 -70 2 -90q0 -18 27 -88q0 -4 2 -6.5 t4 -8.5l-2 2q2 -4 6 -17t6 -19l-2 6q16 -25 31 -31l45 -25q55 -33 58 -32q39 0 96 28q49 27 71 105q25 78 25 141q0 25 -4 33l-27 67v4v-4q-8 25 -34 82q-49 74 -158 74q-33 0 -51 -12h2q-45 -33 -78 -94v2q-18 -45 -19 -117z" />
<glyph unicode="&#xf3;" horiz-adv-x="819" d="M55 334v16v88q0 68 15 90v-2q63 137 196 193q53 23 82 31q55 12 96 12q80 0 95 -6h-4q23 -8 75 -33q53 -23 80 -61l27 -35v2q74 -86 74 -219q0 -113 -64 -242q-31 -70 -109 -119h3q-62 -41 -74 -47l-2 -2q-49 -14 -92 -14q-111 0 -213 65q-76 55 -84 66 q-100 100 -101 217zM231.5 420q-0.5 -70 1.5 -90q0 -20 27 -90q0 -2 2 -4.5t4 -8.5l-2 2q2 -4 6 -17t6 -19l-2 6q16 -25 31 -31l45 -25q55 -33 58 -32q39 0 96 28q49 27 71 105q25 74 25 141q0 25 -4 33l-27 67v4v-4q-12 33 -34 82q-52 74 -158 74q-33 0 -51 -12h2 q-45 -33 -78 -94v2q-18 -47 -18.5 -117zM342 842q0 25 53 59l-2 -2q53 35 99 90q37 55 90 55q78 0 77 -75q0 -49 -45 -82q-31 -23 -61 -25l-33 -4h2q-33 -8 -51 -14h-2q-2 -2 -4 -2l8 2q-12 -6 -24 -10l4 2q-2 0 -21.5 -9.5t-36.5 -15.5q-6 -6 -14 -6q-39 0 -39 37z" />
<glyph unicode="&#xf4;" horiz-adv-x="819" d="M55 334v18v86q0 70 15 90v-2q63 139 196 195q43 18 82 29q55 12 96 12q80 0 95 -6h-4q18 -6 75 -31q53 -25 80 -61l27 -35v2q74 -86 74 -219q0 -115 -64 -244q-31 -70 -109 -119h3q-62 -41 -74 -47l-2 -2q-49 -14 -92 -14q-111 0 -213 65q-76 55 -84 66 q-100 102 -101 217zM231 420q0 -68 2 -90q0 -18 27 -88q0 -4 2 -6.5t4 -8.5l-2 2q2 -4 6 -17t6 -19l-2 6q16 -25 31 -31l45 -25q55 -33 58 -32q39 0 96 28q47 25 71 107q25 74 25 139q0 25 -4 33l-27 67v4v-4q-6 18 -34 84q-49 72 -158 72q-31 0 -51 -10h2q-49 -39 -78 -96 v2q-18 -45 -19 -117zM242 836q10 23 30 51l19 39l28 39l-2 -2l15 22l30 37q20 43 31.5 51t46.5 8q14 0 39 -12l2 -4q2 -2 6.5 -6t8.5 -10l10 -19l33 -45l20 -27q2 -2 10 -14q10 -25 27 -49q4 -10 8 -23l2 -2v-4q12 -14 12 -28q0 -37 -36 -37q-16 0 -109 69q-14 18 -24.5 34 t-14.5 22t-2 6q-12 0 -31 -33q-14 -29 -19 -34t-32 -21q-14 -10 -35 -29q-20 -20 -39 -20q-35 0 -34 41z" />
<glyph unicode="&#xf5;" horiz-adv-x="819" d="M55 334v16v88q0 68 15 90v-2q63 137 196 193q57 27 82 29q55 12 96 12q80 0 95 -6h-4q37 -12 75 -31q57 -27 80 -61l27 -35q74 -86 74 -217q0 -113 -64 -242q-31 -70 -109 -119h3q-62 -41 -74 -47l-2 -2q-49 -14 -92 -14q-111 0 -213 65q-66 45 -84 66q-100 100 -101 217 zM188 868q0 23 29 52v-2l27 28q55 70 108 70h19q31 -10 61 -27l-2 2l33 -10q72 -39 80 -39q31 0 71 33q4 2 11 8q39 0 39 -31v-2q0 -10 -43 -69q-20 -29 -41 -50q-39 -25 -68 -24q-25 0 -59 10q-16 4 -58 27l-55 18q-43 16 -55 17q-10 0 -19 -13q-29 -35 -41 -35 q-37 0 -37 37zM231.5 420q-0.5 -70 1.5 -90q0 -20 27 -90q2 -4 4 -6.5t2 -6.5l-2 2q2 -4 6 -17t6 -19l-2 6q14 -23 31 -31l45 -25q55 -33 58 -32q39 0 96 28q49 27 71 105q25 74 25 141q0 25 -4 33l-27 67v4v-4q-12 33 -34 82q-52 74 -158 74q-33 0 -51 -12h2 q-49 -39 -78 -94v2q-18 -47 -18.5 -117z" />
<glyph unicode="&#xf6;" horiz-adv-x="819" d="M55 334v16v88q0 68 15 90v-2q63 137 196 193q57 27 82 29q55 12 96 12q80 0 95 -6h-4q37 -12 75 -31q57 -27 80 -61l27 -35q74 -86 74 -217q0 -113 -64 -242q-31 -70 -109 -119h3q-62 -41 -74 -47l-2 -2q-49 -14 -92 -14q-111 0 -213 65q-66 45 -84 66q-100 100 -101 217 zM203 918q0 51 18 69q31 31 84 31q23 0 57 -25q10 -10 21 -41q4 -27 6 -34l2 -15q0 -43 -29 -69q-18 -20 -45 -21q-90 0 -108 70q-6 18 -6 35zM231.5 420q-0.5 -70 1.5 -90q0 -20 27 -90q2 -4 4 -6.5t2 -6.5l-2 2q2 -4 6 -17t6 -19l-2 6q14 -23 31 -31l45 -25q55 -33 58 -32 q39 0 96 28q49 27 71 105q25 74 25 141q0 25 -4 33l-27 67v4v-4q-12 33 -34 82q-52 74 -158 74q-33 0 -51 -12h2q-49 -39 -78 -94v2q-18 -47 -18.5 -117zM422 922q0 6 14.5 36.5t20.5 36.5q20 21 65 21q27 0 62 -19q49 -27 49 -86q0 -39 -49 -82q-27 -27 -52 -26 q-43 0 -83 41q-18 18 -21 51z" />
<glyph unicode="&#xf7;" horiz-adv-x="894" d="M94 692q0 47 62 47q31 0 51 -2q2 0 11 -1t13 -1q10 -2 25 -2q8 0 49 8l27 2q45 2 125 2q33 0 49 -2q59 8 80 9q31 0 59 -2q10 -2 17 -2q14 0 28 2q2 0 11.5 1t13.5 1l82 -4q45 -6 45 -37v-6l-4 -31l6 -37q0 -49 -74 -49q-8 2 -45 6l-92 -6q-10 0 -15 2q-45 6 -61 6 q-31 0 -92 -6q-6 0 -16.5 -1t-14.5 -1q-27 -2 -65 -2l-70 -4h-16h-21q-31 0 -53 2h-33q-39 0 -63 14q-16 25 -17 66zM348 952q0 35 26.5 61.5t59.5 26.5v-39q106 0 101 13q-2 2 -13 6q4 -2 10 -2q49 -23 50 -100q0 -45 -25 -70q-4 -4 -59 -33q-16 -8 -35 -8q-35 0 -82 45 q-33 25 -33 100zM352 412q0 55 25 80q8 8 47 20t53 12q25 0 78 -47q29 -27 29 -76q0 -111 -90 -110q-14 0 -64 24q-47 16 -59 25q-18 20 -19 72zM485 1030q10 -2 22.5 -6t14.5 -4q-10 2 -37 10z" />
<glyph unicode="&#xf8;" horiz-adv-x="819" d="M55 332v20v80q0 72 15 94v-2q61 133 196 193q66 27 82 28q56 13 115 13q53 0 69 -4q18 -8 23 -9q8 0 16 21l2 4q2 2 4.5 6t5.5 10.5t7 10.5l-2 -4q18 39 26 45q18 16 52 16q63 0 63 -43q0 -47 -55 -111v2q-8 -8 -8 -16q0 -2 28 -31l23 -32q74 -84 74 -215 q0 -100 -52 -218q-29 -61 -65 -98q-117 -106 -217 -106q-80 0 -160 32q-2 0 -6 2.5t-6 2.5q-8 0 -41 -46q-39 -61 -78 -61q-68 0 -74 49l39 64l27 43l14 22l-4 4q-2 4 -11.5 16.5t-19.5 24.5l-45 60q-37 51 -37 133zM231 424q0 -98 13 -143v2q14 -25 18 -47q4 12 10 22 l15 23l-2 -2l16 28l21 33v-2l28 45l27 39l-2 -2l24 51q47 68 60 94q18 31 18 41q0 14 -24 21q-66 10 -74 10q-33 0 -53 -10h2q-47 -35 -78 -95v3q-18 -47 -19 -111zM350 147l25 -18l-2 2l35 -20q127 0 167 133q25 70 25 139q0 33 -16 66l-15 36l-4 15q-4 0 -8 -4 q0 -2 -3 -5.5t-3 -5.5q-10 -23 -27 -59l-8 -16q-10 -14 -20 -29l-9 -16l-38 -50l2 2q-35 -63 -95 -153h2q-8 -10 -8 -17z" />
<glyph unicode="&#xf9;" horiz-adv-x="739" d="M41 713q0 39 49 39q10 0 23 -4l-2 2l51 -11q2 0 6 1t6 1h-4l53 9q92 0 92 -74v-2q0 -2 -1 -8.5t-2 -11.5t-1 -13q-2 -14 -6 -51l2 -342v-6q-2 -6 -2 -11q0 -2 -1 -12t-1 -16q-2 -10 -2 -15q0 -39 25 -65q12 -12 22 -12q14 0 47 14t45 25q12 14 26.5 45.5t14.5 48.5l-4 86 q6 63 6 69v7q-2 6 -3 20t-1 29v-2q-2 10 -2 30q0 12 6 107q2 6 2 18q0 14 -4 27l-57 94q37 25 51 25q6 0 12 -2l5 -2h4t6 -1t6 -1q6 -2 10 -3l88 3q45 0 45 -78v-121l-4 -72l2 -108q0 -27 2 -45q0 -8 2 -13l-6 -106v-2q0 -2 17 -25q41 -53 41 -63q0 -20 -25 -35v2l-47 -37h2 q-84 -76 -143 -76q-33 0 -39 31l-4 29q-18 -10 -46 -31q-18 -12 -57 -12q-111 0 -190 137h2q-23 39 -23 145q0 41 2 72v-2q0 4 1 15.5t1 17.5t1 17t1 15q2 29 2 70q0 10 -6 74q-4 43 -12 57q-8 27 -29 41q-55 43 -55 68zM162 958q0 39 29.5 73t64.5 34q20 0 45 -16 q6 -4 82 -88l16 -13q4 -4 14.5 -12t14.5 -12q43 -33 43 -70q0 -39 -39 -39q-12 0 -76 29l2 -2l-77 22l-21 6l-16 9l2 -2q-6 2 -56 22q-29 16 -28 59zM446 39v6v-6z" />
<glyph unicode="&#xfa;" horiz-adv-x="739" d="M41 713q0 39 49 39q10 0 23 -4l-2 2l51 -11q2 0 4 1t4 1l53 9q92 0 92 -76l-4 -33q-4 -25 -6 -51l2 -342q0 -2 -1 -7t-1 -10q0 -2 -1 -12t-1 -16l-2 -15q0 -39 25 -65q12 -12 22 -12q14 0 47 14t45 25q12 14 26.5 44.5t14.5 47.5l-4 88q6 63 6 69v7q-2 6 -3 20t-1 29v-2 q-2 8 -2 30q0 12 6 107q2 6 2 18q0 10 -4 27l-57 92q35 27 51 27q6 0 14 -4h7q2 0 6 -1t6 -1q6 -2 10 -3l88 3q45 0 45 -78v-121l-4 -72l2 -108q0 -27 2 -45q0 -8 2 -13l-6 -106v-2q0 -4 17 -25q41 -53 41 -63q0 -20 -25 -35l-47 -35h2q-84 -76 -143 -76q-33 0 -39 31l-4 29 q-18 -10 -46 -31q-18 -12 -57 -12q-111 0 -190 137h2q-23 39 -23 145q0 41 2 72q0 4 1 14.5t1 16.5t1 17t1 15q2 29 2 70q0 10 -6 74q-4 45 -12 57q-10 29 -29 41q-55 41 -55 68zM301 842q0 29 53 59l-2 -2q61 43 97 92q43 56 92 56q76 0 75 -78q0 -51 -43 -80 q-33 -25 -61 -27l-33 -4h2q-37 -10 -51 -14h-2q-2 -2 -4 -2l8 2q-14 -8 -24 -8h4q-8 -2 -58 -25q-6 -6 -14 -6q-39 0 -39 37zM446 39v6v-6zM487 752l2 -2z" />
<glyph unicode="&#xfb;" horiz-adv-x="739" d="M41 713q0 39 49 39q10 0 23 -2l-2 2l51 -11q2 0 4 1t4 1l53 9q92 0 92 -76v-2q0 -2 -1 -8.5t-2 -11.5t-1 -13q-2 -14 -6 -51l2 -340q0 -2 -1 -8t-1 -11q0 -2 -1 -12t-1 -16q-2 -8 -2 -15q0 -39 25 -65q12 -12 22 -12q14 0 47 14t45 25q12 14 26.5 45.5t14.5 48.5l-4 86 q6 63 6 69v7q-2 6 -3 20t-1 29v-2q-2 10 -2 30q0 14 6 107q2 6 2 18.5t-4 28.5l-57 92q33 25 51 25q6 0 12 -2h2h5h-5h7q2 0 6 -1t6 -1q6 -2 10 -2l88 2q45 0 45 -80v-121l-4 -72l2 -108q0 -27 2 -45q0 -8 2 -13l-6 -106v-2q0 -2 17 -25q41 -53 41 -63q0 -20 -25 -35v2 l-47 -37h2q-84 -76 -143 -76q-33 0 -39 31l-4 29q-18 -10 -46 -31q-18 -12 -57 -12q-111 0 -190 137h2q-23 39 -23 145q0 41 2 72q0 4 1 14.5t1 16.5t1 17t1 15q2 29 2 70q0 10 -6 74q-4 43 -12 57q-10 31 -29 41q-55 43 -55 68zM203 836q6 20 30 53l-2 -2l19 39l31 41 l-2 -2l12 20l31 39q20 43 31 51t46 8q14 0 39 -12q2 -4 15 -22l12 -19l33 -45l18 -24q2 -4 10 -17q4 -8 13.5 -24.5t13.5 -24.5q4 -10 8 -23q0 -2 4 -6q12 -12 13 -28q0 -35 -37 -35q-18 0 -109 67q-43 61 -41 62q-12 0 -31 -33q-14 -29 -19 -35t-32 -20q-18 -10 -33 -29 q-27 -18 -40 -18q-33 0 -33 39zM446 39v6v-6z" />
<glyph unicode="&#xfc;" horiz-adv-x="739" d="M41 711q0 41 49 41q10 0 23 -4l-2 2l51 -11q2 0 4 1t4 1l53 9q92 0 92 -76v-4q-2 -4 -3 -13.5t-1 -15.5q-2 -14 -6 -51l2 -342q0 -2 -1 -7t-1 -10q0 -2 -1 -12t-1 -16q-2 -10 -2 -17q0 -37 25 -63q12 -12 22 -12q16 0 48 13t44 26q12 14 26.5 44.5t14.5 47.5l-4 88 q6 63 6 67v9q-2 6 -3 19t-1 28v-2q-2 10 -2 32q0 12 6 107q2 6 2 16q0 12 -4 29l-57 92q35 27 51 27q6 0 14 -4h7q2 0 6 -1t6 -1q6 -2 10 -3l88 3q45 0 45 -80v-119l-4 -72l2 -108q0 -27 2 -45q0 -8 2 -13l-6 -106v-2q0 -4 17 -25q41 -53 41 -63q0 -18 -25 -37v2l-47 -35h2 q-84 -76 -143 -76q-33 0 -39 31l-4 29q-18 -10 -46 -31q-18 -12 -57 -12q-111 0 -190 137h2q-23 39 -23 145q0 41 2 72q0 4 1 14.5t1 16.5t1 16t1 14q2 31 2 72q0 6 -6 74q-4 45 -12 57q-10 29 -29 41q-55 41 -55 66zM162 920q0 47 20 67q31 33 82 33q25 0 58 -27 q12 -12 20 -41q6 -25 6 -32l2 -15q0 -43 -28 -71q-16 -18 -43 -19q-90 0 -109 68q-6 18 -8 37zM381 922q0 6 14.5 36.5t18.5 36.5q22 23 67 23q27 0 62 -21q47 -25 47 -84q0 -39 -47 -84q-31 -25 -51 -24q-45 0 -84 39q-18 18 -21 51zM446 39v6v-6zM487 752l2 -2z" />
<glyph unicode="&#xfd;" horiz-adv-x="663" d="M0 -475q0 27 23 53q23 23 77 37q37 10 95 170l43 106l-2 -2l14 45q16 41 16 119q0 10 -6 47l-8 37v-2l-12 41h2q0 4 -2 12.5t-4 10.5q-8 45 -13 61q-8 8 -51 117v2q-2 8 -8 23.5t-16.5 49t-20.5 62.5q-29 92 -70 123q-51 39 -51 65q0 47 49 50q43 6 68 6l33 -4 q16 0 82 -9q12 -2 36.5 -4t32.5 -2q25 -16 25 -45q0 -20 -33 -67v-4q0 -4 12 -58q0 -6 2 -13t4 -16.5t5 -15.5q0 -16 8 -67q4 -25 18 -50q16 -45 29 -71l16 -37q6 0 17 35v-2q4 14 20 51v-2l27 80q8 12 22 61q6 12 13 31h-3q12 43 13 59q0 10 -37 84v2q-4 8 -4 21 q0 43 51 43h31h-2q20 -2 34 -2l54 2h8q63 0 63 -53q0 -16 -45 -72l-8 -29q-31 -53 -41 -112q-12 -39 -49 -125q-10 -18 -22 -64l-23 -53v2l-16 -53h2l-13 -52l-24 -51q-2 -8 -5 -21.5t-5 -21.5t-5 -14l3 2q0 -8 -9 -23q-2 -12 -12 -30q-37 -80 -51 -105l-31 -59 q-20 -41 -37 -90q-45 -104 -55 -119h2q-84 -143 -147 -152q-8 -2 -41 -2q-68 0 -68 64zM301 852q0 27 55 61l-2 -2q55 37 97 90q39 58 92 58q76 0 75 -78q0 -53 -43 -82q-33 -25 -63 -27l-33 -4h2q-31 -8 -49 -14q-2 0 -6 -2l8 2q-10 -6 -26 -10l4 2q-4 -2 -22.5 -10.5 t-33.5 -14.5q-6 -6 -16 -6q-39 0 -39 37z" />
<glyph unicode="&#xfe;" horiz-adv-x="776" d="M49.5 1147q-0.5 39 77.5 80q18 8 43 37l45 26v-2q27 18 43 31q-12 -10 18 -19l15 -4v41q39 0 39 -47q0 -16 -8 -45l4 -57v-6q0 -6 -4 -23q0 -45 -7 -117v-12l4 -104q-8 -47 -8 -66q0 -27 2 -41q6 -49 6 -67q0 -2 -1 -12.5t-1 -14.5q-2 -4 -2 -12q25 25 66 44t65 19 q88 0 162 -37q68 -33 90 -73h-2l2 -7q2 -8 7 -12q4 -12 16 -31q4 -6 31 -98l2 -6v-8v4q4 -12 6 -31q0 -63 2 -135l2 -51v-6q0 -55 -66 -158q-41 -61 -106 -102q-49 -35 -72 -37l-86 -11l-100 23l-12 -37l-3 -51l5 -72v-127l-2 -65q0 -57 43 -82h-5q14 -4 31 -12 q2 -2 8.5 -4.5t11.5 -5.5t9 -5h-2q25 -6 24 -39q0 -43 -49 -43q-4 0 -14 1t-17 1h-22q-20 0 -80 -8h-12q-27 0 -43 2q-29 4 -39 4q-2 0 -10.5 -1t-12.5 -1h-20q-66 0 -66 47q0 23 27 39l-2 -2q10 8 18.5 16.5l14.5 14.5l4 6h-2q6 14 10 33v-2q4 12 6 16q0 45 2 76v-2 q0 8 1 26.5t1 28.5l6 84v2v6t-1 9.5t-1 16.5v24q0 55 -2 77l-2 23l2 80l-2 35q0 2 1 9t1 9q4 16 6 39l-4 53l-2 51v-4q-2 10 -2 43q-2 14 -2 29q0 84 6 194q0 2 1 7.5t1 9.5q8 82 9 88v10q-6 37 -7 45v78l5 45v125q-8 14 -11 37l-8 29q-2 20 -8 53v-2q-8 14 -14 20l-43 23h4 q-20 8 -20.5 47zM258 1319q2 0 4 2q-2 -2 -4 -2zM315 262l4 -39v-43q8 -23 19 -45l2 -6q14 -25 84 -27q23 0 37 -2l4 -2h8h4q33 0 58 37q59 74 59 170q0 303 -186 303q-51 0 -72 -26q-10 -14 -10 -21v2l-4 -47l-7 -61l2 -47z" />
<glyph unicode="&#xff;" horiz-adv-x="663" d="M0 -475q0 31 22.5 53.5t77.5 36.5q37 10 95 170l43 106l-2 -2l14 45q16 41 16 119q0 10 -6 47l-8 37v-2l-12 41h2q0 4 -2 12.5t-4 10.5q-8 45 -13 61q-8 8 -51 117v2q-2 6 -8 23.5t-16.5 49t-20.5 60.5q-27 94 -70 125q-51 39 -51 65q0 43 49 48q43 6 68 6l33 -4h-2 q6 0 84 -7q12 -2 36.5 -4t32.5 -2q25 -16 25 -45q0 -20 -33 -67v-4q0 -4 12 -58q0 -6 2 -13t4 -16.5t5 -15.5q0 -16 8 -67q2 -23 18 -50q16 -45 29 -71l16 -37q6 0 17 35v-2q4 14 20 51v-2l27 80q6 10 22 59q8 20 13 33h-3q12 43 13 59q0 10 -37 84v2q-4 8 -4 21q0 43 51 43 q23 0 31 -2h-2q20 -2 34 -2l54 2h8q63 0 63 -51q0 -16 -45 -72l-8 -29q-31 -53 -41 -112q-12 -39 -49 -125q-10 -18 -22 -64l-23 -53v2l-16 -55h2l-13 -50l-24 -51q-2 -8 -5 -21.5t-5 -21.5t-5 -14l3 2q0 -8 -9 -23q-2 -12 -12 -30q-37 -80 -51 -105l-31 -59 q-20 -41 -37 -90q-45 -104 -55 -119h2q-84 -143 -147 -152q-8 -2 -41 -2q-68 0 -68 64zM162 930q0 49 20 69q31 33 82 33q23 0 60 -26q8 -6 18 -41q2 -6 3 -14.5t3 -13.5t2 -7l2 -15q0 -39 -28 -71q-18 -18 -45 -19q-90 0 -109 70q-6 16 -8 35zM383 934q0 6 13.5 36.5 t19.5 37.5q22 22 65 22q29 0 62 -20q49 -25 49 -86q0 -41 -49 -84q-29 -25 -49 -25q-45 0 -86 39q-16 23 -19 51z" />
<glyph unicode="&#x152;" horiz-adv-x="1738" d="M86 737v11q0 76 35 174h-2q6 33 76 147q6 12 23.5 38t23.5 34h-2q6 10 30 43q88 96 228 159q98 45 125 50l-2 -2l10 2q10 0 27.5 2t31.5 2q2 0 8.5 1t10.5 1q85 6 114 6q88 0 162 -25q10 -6 21 -6q29 2 98 4h37q4 0 10 2h6h2q41 0 101 -16h8q14 2 41 6l-2 -2q8 4 30 4 q25 0 52 2q18 2 49 2q49 0 102 -12h-2q2 0 4 -1t4 -1q6 0 23 4q29 4 41 4q57 0 63 -49l6 -82q0 -2 1 -11t1 -14l-2 -22v-10q0 -23 11 -78q4 -29 4 -43q0 -55 -43 -55l-49 32q-12 6 -46 80l-18 31q-8 14 -18 29q0 2 -4 4l-5 2q-23 18 -47 28l4 -2q-8 0 -19 1t-25.5 3.5 t-22.5 2.5q-2 2 -15 6q-2 0 -6 2h-6q-63 20 -94 20q-70 0 -76 -35q-2 -4 -2 -18q0 -2 -1 -10t-1 -13l-4 -30v-19q-12 -68 -12 -98v-6q0 -4 1 -35t1 -49q0 -39 -2 -82q0 -76 49 -76q25 0 45 14q70 47 96 80q23 29 45 29q31 0 47 -37q0 -25 2 -49l5 -39l-3 -57l-2 -56l-4 -36 q0 -12 2 -17q0 -14 2 -18q2 -12 2 -29l3 -12q0 -20 -19 -58v3q-6 -25 -33 -25q-4 0 -28 8l-21 29l-22 28l-17 43l-33 33q-4 6 -18 21q-8 8 -49 8q-25 0 -29 -10v-2q2 -2 2 -8.5v-11.5v-15q0 -6 -1 -22.5t-1 -26.5q0 -27 -10 -72q-12 -53 -12 -74q0 -18 2 -41l-2 -53 q0 -43 -2 -68q0 -4 -1 -14t-1 -12l-4 -25v-4q0 -47 100 -51h6q6 0 27 -2l55 -6q12 0 68 16q31 8 36 15l39 36q45 29 49 37l-2 -4q4 10 43 107v-2q12 43 54 43q45 0 45 -62q0 -141 -8 -188v2q-2 -27 -7 -72q0 -61 -86 -61q-18 0 -98 20l-2 -2q-23 -6 -51 -6h-6q-4 0 -14.5 1 t-30 2t-37.5 1h-21q-33 0 -59 -2q-4 0 -9 -1t-8 -1q-25 -2 -67 -2q-2 0 -14.5 1t-18.5 1q-14 2 -35 2q-6 0 -23.5 -1t-25.5 -1h-49q-78 0 -100 -8q-61 -16 -170 -17q-135 0 -199 21q-233 68 -352 299q-59 113 -82 192q-2 12 -8.5 34t-11.5 41.5t-7 37.5v8q0 6 -1 18.5t-2 37 t-1 45.5q0 14 -4 30zM356 541q0 -20 29 -127q6 -27 25 -82h-2l59 -70q23 -37 35 -49l4 -4q4 -2 10 -8t12.5 -10.5t22.5 -12.5q63 -47 88 -57q18 -6 84 -12q16 -2 37 -3h18q68 0 92 13q49 29 66 47q4 4 10 57q2 18 6 60q0 4 -1 16t-1 20v109q-2 23 -2 41l2 20v15q0 51 4 125 q2 16 3 30.5t4 22.5q0 18 -3 35q0 4 -1 14t-1 17q-2 12 -2 40q0 27 2 35v56l5 86q4 76 10 108q-4 16 -4 21q0 6 -1 9t-3 8t-5 11q-6 59 -30 90q-8 12 -19 23l-61 18q-16 7 -84 11l-62 10q-10 -2 -59 -25v2q-12 -8 -31 -20q-35 -25 -41 -31q-37 -29 -92 -100q-14 -16 -47 -84 l-29 -51v2l-16 -43q-2 -4 -5 -12.5t-5 -12.5v2q-2 -6 -7 -18.5t-8 -18.5v4q-4 -37 -4 -88q0 -16 2 -43q0 -6 1 -17t1 -15q0 -6 -1 -15.5t-1 -11.5l-4 -133v-4z" />
<glyph unicode="&#x153;" horiz-adv-x="1148" d="M55 373v30q0 6 1 16.5t1 14.5v45q0 45 72 133q37 49 145 99q91 39 191 39q59 0 74 -11l20 -12q4 -2 13.5 -7t11.5 -7q12 -4 18 -8q4 -4 9 -9.5t9.5 -8.5t8.5 -7t6 -8h-2q29 -29 33 -29l4 4q41 55 106 82q47 23 96 23q102 0 195 -80q80 -74 80 -135q0 -88 -82 -88 q-20 0 -31 2q-6 0 -13 1t-9 1q-27 0 -49 -2q-4 0 -11.5 -1t-9.5 -1q-14 -2 -37 -3h-28q-33 0 -46 3h3q-59 6 -70 6q-33 0 -55 -21q-6 -4 -7 -24l3 -4v-9q0 -2 1 -9t1 -9q10 -76 12 -80q16 -33 72 -74q49 -39 63 -45l-2 2q33 -10 63 -10q41 0 113 16q33 10 45 19q12 4 21 4 q35 0 34 -35q0 -14 -10 -33q0 -2 -1 -6t-1 -6h2q-10 -39 -41 -70q-4 -4 -28 -22q-18 -12 -66 -37q-43 -18 -125 -18q-27 0 -82 20q-4 2 -16 7t-15 5q-14 2 -26 11q-8 6 -49 47q-12 14 -16.5 14t-80.5 -63q-47 -41 -135 -41q-197 0 -323 182q-49 68 -56 115q-4 41 -4 92z M236 438q0 -49 2 -73v-39q0 -23 26 -88q12 -39 23 -54q8 -12 16 -14l57 -31h-2q4 -4 9 -4l20 -10q23 -16 29 -16q80 0 110 100h-2q25 70 25 156q0 41 -8 63l-15 45q-2 4 -10 34t-16 48l-6 18v-4q-39 64 -121 64q-27 0 -56 -29q-43 -39 -61 -67h2q-23 -41 -22 -99zM367 135 q2 -2 4 -2zM743 565q0 -4 5 -8q41 -8 176 -8q33 0 32 8q0 31 -34 64q-29 22 -78 22q-45 0 -78 -33q-23 -23 -23 -45zM745 16h3l2 -2h-2z" />
<glyph unicode="&#x178;" horiz-adv-x="1120" d="M12 1327q0 16 15 31q6 8 90 12q59 6 67 6q14 0 62 -8q16 0 28 2q29 4 41 4l7 -2h12q4 0 14 -1t17 -1q4 -2 41 -2q78 0 77 -53q0 -18 -20 -39l-31 -35q-10 -14 -10 -27q0 -31 59 -116q31 -53 45 -68l37 -39q20 -20 37 -53h-2l31 -51l18 -39q45 0 127 172q12 33 23 49 l51 68q20 20 20 43q0 25 -16 47q-6 2 -8 8q-8 6 -15 18l-2 2q-12 8 -32 25h2q-16 10 -17 35q0 53 78 53h21q6 0 16 -1t14 -1q14 -2 29 -2h4q4 2 13.5 3t19.5 3t30.5 2t79.5 -8q74 -12 74 -55v-4q0 -25 -12 -36.5t-76 -45.5q-23 -10 -63 -60l-4 -6q-6 -8 -41 -43 q-8 -10 -45 -84l-29 -45v2l-23 -35l-14 -20l-10 -14l-19 -31l-57 -86q-23 -25 -39 -58v2q-8 -27 -8 -81v-154q-6 -51 -6 -53t4 -23q2 -12 2 -39v-6l-2 -92l-2 -61v-13q0 -39 12 -67q12 -23 55 -64h-2q43 -33 43 -61q0 -35 -32 -35h-5l-38 2q-10 -2 -46 -2l-94 4q-4 0 -10 -2 q-4 0 -12 -1t-11 -1q-16 -2 -36 -2q-16 0 -27 2h2q-20 2 -33 2l-28 -2h-54q-57 0 -57 41q0 29 27 41l43 20h-2q6 4 53 70q29 35 29 51v8q-2 20 -3 37l7 119v-2q0 33 6 92v-2q0 8 2 16l-8 107q-4 45 -7 76l-4 6q-4 6 -16 27.5t-25 41.5q-14 27 -47 84q-12 20 -18 33 q-25 33 -41 53q-35 45 -53 78q-8 18 -37 66l2 -4q-2 2 -5 6l-3 4q-47 78 -56 86l-41 39l-34 39v-2l-29 26h4q-49 31 -59 41q-14 14 -15 33zM326 1554q0 35 32 74q49 53 80 53q27 0 74 -34q27 -14 33 -39v-33v2q6 -25 6 -35q0 -16 -12 -41v2q-18 -41 -37 -52t-62 -11 q-23 0 -61 24v-2q-53 31 -53 92zM709 1567q0 37 24 67.5t55 30.5h15q39 0 65 -18q43 -27 43 -97q0 -27 -10 -55l2 2q-2 -23 -41 -39q-39 -20 -59 -20q-94 0 -94 129z" />
<glyph unicode="&#x2c6;" horiz-adv-x="915" d="M299 748q8 18 31 47l-2 -2l18 34l27 37l-2 -2l12 19l31 34q18 37 29 44.5t44 7.5q16 0 37 -11l4 -6q4 -6 11 -12l10 -16l31 -41l18 -23q2 -2 5 -7t5 -7q8 -16 25 -43l8 -21q0 -2 4 -6q10 -12 10 -24q0 -33 -34 -33q-16 0 -103 61q-14 18 -23.5 30.5t-13.5 19t-2 6.5 q-14 0 -28 -31q-16 -29 -39 -43q-6 -4 -11 -6q-6 -2 -32 -25q-23 -18 -39 -18q-31 0 -31 37z" />
<glyph unicode="&#x2dc;" horiz-adv-x="940" d="M256 733q0 20 29 43v-2l26 23q54 61 105 61h16q18 -6 62 -24l-2 2l30 -9q68 -33 78 -32q35 0 70 28q4 0 10 6q37 0 37 -24v-4q0 -10 -41 -58q-6 -8 -13.5 -16t-12.5 -12t-8 -8.5t-5 -6.5q-45 -18 -68 -18q-31 0 -57 8q-14 2 -55 21q-25 8 -54 16q-47 14 -53 14 q-12 0 -18 -10q-29 -31 -41 -31q-35 0 -35 33z" />
<glyph unicode="&#x2000;" horiz-adv-x="867" />
<glyph unicode="&#x2001;" horiz-adv-x="1735" />
<glyph unicode="&#x2002;" horiz-adv-x="867" />
<glyph unicode="&#x2003;" horiz-adv-x="1735" />
<glyph unicode="&#x2004;" horiz-adv-x="578" />
<glyph unicode="&#x2005;" horiz-adv-x="433" />
<glyph unicode="&#x2006;" horiz-adv-x="289" />
<glyph unicode="&#x2007;" horiz-adv-x="289" />
<glyph unicode="&#x2008;" horiz-adv-x="216" />
<glyph unicode="&#x2009;" horiz-adv-x="347" />
<glyph unicode="&#x200a;" horiz-adv-x="96" />
<glyph unicode="&#x2010;" horiz-adv-x="368" d="M0 287l10 84q10 22 33 26l41 -2h33l33 -4h-3q8 0 27 6q12 2 21 2q6 0 21 -1t24 -1q16 -2 36 -2q2 0 12.5 1t18.5 1q25 4 35 4q35 0 59 -26l-2 2q12 -12 13 -25q0 -6 -9 -20q-2 -2 -2 -6q0 -43 -8 -54l2 2q-16 -20 -35 -20q-23 0 -34 2h2q-4 0 -13 2l-20 4q-16 0 -41 -4 q-6 -4 -14 -4h-7l-51 6l-30 -6q-6 0 -14.5 1t-10.5 1h-8l-37 -2l-21 -2q-8 -2 -18 -2q-25 0 -39 20q-4 6 -4 17z" />
<glyph unicode="&#x2011;" horiz-adv-x="368" d="M0 287l10 84q10 22 33 26l41 -2h33l33 -4h-3q8 0 27 6q12 2 21 2q6 0 21 -1t24 -1q16 -2 36 -2q2 0 12.5 1t18.5 1q25 4 35 4q35 0 59 -26l-2 2q12 -12 13 -25q0 -6 -9 -20q-2 -2 -2 -6q0 -43 -8 -54l2 2q-16 -20 -35 -20q-23 0 -34 2h2q-4 0 -13 2l-20 4q-16 0 -41 -4 q-6 -4 -14 -4h-7l-51 6l-30 -6q-6 0 -14.5 1t-10.5 1h-8l-37 -2l-21 -2q-8 -2 -18 -2q-25 0 -39 20q-4 6 -4 17z" />
<glyph unicode="&#x2012;" horiz-adv-x="368" d="M0 287l10 84q10 22 33 26l41 -2h33l33 -4h-3q8 0 27 6q12 2 21 2q6 0 21 -1t24 -1q16 -2 36 -2q2 0 12.5 1t18.5 1q25 4 35 4q35 0 59 -26l-2 2q12 -12 13 -25q0 -6 -9 -20q-2 -2 -2 -6q0 -43 -8 -54l2 2q-16 -20 -35 -20q-23 0 -34 2h2q-4 0 -13 2l-20 4q-16 0 -41 -4 q-6 -4 -14 -4h-7l-51 6l-30 -6q-6 0 -14.5 1t-10.5 1h-8l-37 -2l-21 -2q-8 -2 -18 -2q-25 0 -39 20q-4 6 -4 17z" />
</font>
</defs>
</svg>
